<svg width="63" height="102" viewBox="0 0 63 102" fill="none" xmlns="http://www.w3.org/2000/svg">
<path fill-rule="evenodd" clip-rule="evenodd" d="M31.2494 102.001C48.4598 102.001 62.4988 99.0757 62.4988 95.4866C62.4988 91.8974 48.4598 88.9727 31.2494 88.9727C14.039 88.9727 0 91.8974 0 95.4866C0.00417829 99.0757 14.039 102.001 31.2494 102.001Z" fill="#E6E7E8"/>
<path fill-rule="evenodd" clip-rule="evenodd" d="M15.5138 96.2697C17.5821 96.2697 19.2659 95.9187 19.2659 95.4884C19.2659 95.058 17.5821 94.707 15.5138 94.707C13.4456 94.707 11.7617 95.058 11.7617 95.4884C11.7617 95.9146 13.4456 96.2697 15.5138 96.2697Z" fill="#888888"/>
<path fill-rule="evenodd" clip-rule="evenodd" d="M11.3131 99.3209C16.1766 99.3209 20.1376 97.4448 20.1376 95.1468C20.1376 92.8487 16.1724 90.9727 11.3131 90.9727C6.44957 90.9727 2.48438 92.8487 2.48438 95.1468C2.48855 97.449 6.45375 99.3209 11.3131 99.3209Z" fill="#3E3639"/>
<path fill-rule="evenodd" clip-rule="evenodd" d="M9.14062 9.89844H15.9429V95.6536V96.7441L15.9136 96.7692L15.9094 96.7734L15.8718 96.8068L15.8635 96.8151L15.8342 96.8361L15.8092 96.8569L15.7966 96.8653L15.759 96.8945L15.6755 96.9572L15.6337 96.9823V96.9865L15.5919 97.0115L15.571 97.0241L15.5459 97.0408L15.5041 97.0659L15.5 97.07L15.454 97.0951L15.4373 97.1035L15.4081 97.1244L15.3704 97.1452L15.3579 97.1494L15.3078 97.1745L15.2994 97.1787L15.2576 97.1996L15.2284 97.2163L15.2075 97.2246L15.1574 97.2497L15.1532 97.2539L15.103 97.2748L15.078 97.2873L15.0487 97.2998L14.9986 97.3249H14.9944L14.9401 97.3458L14.9192 97.3583L14.8858 97.3709L14.8356 97.3876L14.8273 97.3918L14.7688 97.4127L14.7521 97.421L14.7103 97.4377L14.6685 97.4503L14.6518 97.4586L14.5933 97.4795H14.5849L14.5306 97.5004L14.4972 97.5088L14.4679 97.5171L14.4053 97.538L14.3426 97.5547L14.3175 97.5631L14.2799 97.5756L14.2256 97.5882L14.2172 97.5923L14.1504 97.609L14.1295 97.6132L14.0835 97.6257L14.0376 97.6383L14.0209 97.6425L13.9498 97.6592H13.9415L13.883 97.6717L13.8412 97.6801L13.8161 97.6884L13.7451 97.701L13.6782 97.7135L13.6448 97.7219L13.6072 97.7302L13.5404 97.7386L13.5362 97.7427L13.4651 97.7511L13.4401 97.7553L13.3941 97.7636L13.3356 97.772L13.3189 97.7762L13.2479 97.7845L13.2312 97.7887L13.1727 97.7929L13.1267 97.8012L13.1016 97.8054L13.0264 97.8138H13.0181L12.9512 97.8221L12.9136 97.8263H12.876L12.805 97.8346H12.8008L12.7256 97.8388L12.6922 97.843L12.6462 97.8472L12.5835 97.8514H12.571L12.4916 97.8556H12.4707L12.3579 97.8597H12.337L12.2576 97.8639H12.2451H12.1782L12.1323 97.8681H12.0988H12.0195H11.9693H11.915H11.9066H11.8649L11.8147 97.8639H11.7897H11.7646L11.7144 97.8597H11.6768H11.6601H11.61L11.564 97.8556H11.5598H11.5097L11.4596 97.8514H11.4554L11.4136 97.8472L11.3635 97.843H11.3426L11.3133 97.8388L11.2632 97.8346H11.2339L11.2131 97.8305L11.1671 97.8263H11.1253L11.1169 97.8221L11.0668 97.8179L11.0209 97.8138H11.0167L10.9707 97.8096L10.9247 97.8012L10.8788 97.7971L10.8286 97.7887H10.8078L10.7827 97.7845L10.7367 97.7762L10.7033 97.772H10.6866L10.6406 97.7636L10.5988 97.7553H10.5947L10.5487 97.7469L10.5027 97.7427L10.4944 97.7386L10.4568 97.7344L10.4108 97.726L10.3941 97.7219L10.369 97.7177L10.3231 97.7051L10.2938 97.701L10.2771 97.6968L10.2353 97.6884L10.1894 97.6801L10.1434 97.6717L10.1016 97.6592L10.0598 97.6508L10.0139 97.6383H10.0014L9.9721 97.6299L9.93031 97.6216L9.90525 97.6132L9.88853 97.609L9.84676 97.5965L9.80497 97.5882L9.76319 97.5756L9.7214 97.5631L9.67961 97.5505L9.63784 97.538L9.60023 97.5255L9.55845 97.5129L9.40385 97.4628L9.37043 97.4503H9.36624L9.32447 97.4336L9.28685 97.421L9.24925 97.4085L9.21165 97.3918L9.17823 97.3792L9.14062 97.3625V95.5993V9.89844Z" fill="#A37D73"/>
<path fill-rule="evenodd" clip-rule="evenodd" d="M9.14062 9.89844H15.947V10.5001C15.0069 11.2271 13.8287 11.6617 12.5459 11.6617C11.2632 11.6617 10.0849 11.2271 9.14062 10.5001V9.89844Z" fill="#170603"/>
<path fill-rule="evenodd" clip-rule="evenodd" d="M12.5417 9.89844H9.14062V95.6536V96.7441L9.16986 96.7692L9.17405 96.7734L9.2033 96.7984L9.22418 96.8152L9.23672 96.8277L9.27015 96.8528L9.2785 96.8569L9.30775 96.882L9.34117 96.9071L9.37878 96.9322L9.41638 96.9614L9.454 96.9865L9.4916 97.0116L9.51667 97.0241L9.53339 97.0366L9.57516 97.0617L9.57934 97.0659L9.61694 97.0868L9.64619 97.1035L9.65873 97.1118L9.70051 97.1327L9.71722 97.1453L9.7423 97.1578L9.78825 97.1787V97.1828L9.83421 97.2038L9.85929 97.2163L9.88018 97.2288L9.92613 97.2497L9.9345 97.2539L9.9721 97.2706L10.0097 97.2873L10.0222 97.2915L10.0682 97.3166L10.0891 97.3249L10.1183 97.3374L10.1685 97.3584L10.2186 97.3751L10.2479 97.3876L10.2688 97.3959L10.3189 97.4168L10.3314 97.421L10.3732 97.4377L10.415 97.4503L10.4275 97.4544L10.4819 97.4753L10.5027 97.4795L10.5362 97.4921L10.5905 97.5088L10.6448 97.5255L10.6782 97.538L10.7033 97.5422L10.7576 97.5589L10.7702 97.5631L10.8161 97.5756L10.8621 97.5882L10.8746 97.5923L10.9331 97.609L10.954 97.6132L10.9916 97.6216L11.0501 97.6383L11.1086 97.6508L11.1462 97.6592L11.1713 97.6675L11.2298 97.6801H11.2423L11.2924 97.6926L11.3426 97.701L11.3551 97.7051L11.4178 97.7177L11.4429 97.7219L11.4805 97.7302L11.5431 97.7386L11.6058 97.7511L11.6434 97.7553L11.6727 97.7595L11.7353 97.772H11.7479L11.8022 97.7803L11.8523 97.7887H11.8649L11.9317 97.7971L11.9986 97.8054L12.0654 97.8138L12.1323 97.8221L12.1991 97.8263L12.266 97.8347H12.2827L12.337 97.8388L12.3913 97.843H12.4039L12.4749 97.8472L12.5041 97.8514H12.5417V95.6244V9.89844Z" fill="#BD9585"/>
<path fill-rule="evenodd" clip-rule="evenodd" d="M12.5417 9.89844H9.14062V10.5001C10.0807 11.2271 11.2632 11.6617 12.5417 11.6617V9.89844Z" fill="#53362B"/>
<path fill-rule="evenodd" clip-rule="evenodd" d="M12.544 0.00390625C15.6192 0.00390625 18.1095 2.49835 18.1095 5.56939C18.1095 8.64461 15.615 11.1349 12.544 11.1349C9.46878 11.1349 6.97852 8.64043 6.97852 5.56939C6.97852 2.49417 9.46878 0.00390625 12.544 0.00390625Z" fill="#A37D73"/>
<path fill-rule="evenodd" clip-rule="evenodd" d="M9.75051 10.3865C7.08894 8.84472 6.18225 5.43942 7.72403 2.77785C9.26582 0.116281 12.6711 -0.79041 15.3327 0.751379L9.75051 10.3865Z" fill="#BD9585"/>
<path fill-rule="evenodd" clip-rule="evenodd" d="M18.1114 5.57031C18.1114 8.64553 15.617 11.1358 12.546 11.1358C9.47073 11.1358 6.98047 8.64135 6.98047 5.57031C6.98047 9.53551 12.0529 9.89902 12.5251 9.89902C14.3844 9.89902 18.1114 9.17617 18.1114 5.57031Z" fill="#53362B"/>
<path fill-rule="evenodd" clip-rule="evenodd" d="M6.97852 5.57031C6.97852 8.64553 9.47296 11.1358 12.544 11.1358V9.89902C10.6721 9.89485 6.97852 8.76252 6.97852 5.57031Z" fill="#6F3E31"/>
<path fill-rule="evenodd" clip-rule="evenodd" d="M9.14062 11.1328C10.2938 11.6635 11.4094 11.9935 12.5417 11.9935C13.6365 11.9935 14.8106 11.8306 15.9429 11.1328H54.6631L49.5488 27.3738L54.6631 43.6148H15.9429C14.8899 44.1288 13.6741 44.4756 12.5417 44.4756C11.4094 44.4756 10.11 44.0452 9.14062 43.6148C9.14062 32.7889 9.14062 21.9629 9.14062 11.1328Z" fill="#009844"/>
<path fill-rule="evenodd" clip-rule="evenodd" d="M12.543 11.9935C13.6377 11.9935 14.8118 11.8306 15.9441 11.1328V43.6148C14.8912 44.1288 13.6795 44.4756 12.543 44.4756V11.9935Z" fill="#007A3C"/>
<path fill-rule="evenodd" clip-rule="evenodd" d="M42.7943 11.1328H54.6648L49.5506 27.3738L54.6648 43.6148H27.5352L42.7943 11.1328Z" fill="#007A3C"/>
</svg>
