<svg xmlns="http://www.w3.org/2000/svg" version="1.1" xmlns:xlink="http://www.w3.org/1999/xlink" xmlns:svgjs="http://svgjs.com/svgjs" width="512" height="512" x="0" y="0" viewBox="0 0 512 512" style="enable-background:new 0 0 512 512" xml:space="preserve" class=""><g><g xmlns="http://www.w3.org/2000/svg" id="Location_8_"><g><path d="m413.757 258.71c-3.65-1.965-8.197-.597-10.159 3.05-5.363 9.967-11.774 19.434-19.056 28.14-.124.147-.241.3-.354.457l-118.011 165.494c-2.376 3.331-6.085 5.242-10.177 5.242s-7.802-1.911-10.178-5.242l-118.011-165.495c-.112-.157-.229-.31-.354-.457-24.595-29.404-38.426-66.728-38.943-105.093-.525-39.008 13.017-77.346 38.133-107.951 2.628-3.202 2.162-7.928-1.04-10.556-3.202-2.626-7.928-2.163-10.556 1.04-27.358 33.338-42.109 75.127-41.535 117.67.562 41.705 15.563 82.281 42.248 114.289l86.26 120.968c-44.884 5.736-88.524 19.846-88.524 44.234 0 31.185 71.687 47.5 142.5 47.5s142.5-16.315 142.5-47.5c0-24.388-43.641-38.498-88.526-44.233l86.261-120.968c7.854-9.421 14.773-19.657 20.571-30.43 1.963-3.647.598-8.196-3.049-10.159zm-30.257 205.79c0 11.342-43.79 32.5-127.5 32.5s-127.5-21.158-127.5-32.5c0-8.879 26.558-24.379 83.467-30.291l21.642 30.35c5.228 7.33 13.389 11.533 22.392 11.533 9.002 0 17.162-4.204 22.389-11.533l21.642-30.35c56.91 5.912 83.468 21.412 83.468 30.291z" fill="#ffffff" data-original="#ffffff" class=""></path><path d="m384.925 53.331c-34.465-34.4-80.236-53.331-128.922-53.331-.116 0-.236 0-.353 0-41.528.078-82.306 14.833-114.82 41.547-3.201 2.63-3.664 7.355-1.034 10.556 2.629 3.202 7.356 3.664 10.556 1.034 29.846-24.522 67.251-38.066 105.326-38.137h.324c44.682 0 86.696 17.377 118.326 48.947 31.709 31.65 49.172 73.753 49.172 118.553 0 16.457-2.38 32.715-7.075 48.323-1.192 3.967 1.056 8.149 5.022 9.343 3.918 1.173 8.165-1.107 9.343-5.022 5.116-17.011 7.71-34.723 7.71-52.644 0-48.812-19.027-94.686-53.575-129.169z" fill="#ffffff" data-original="#ffffff" class=""></path></g><path d="m256 325c-78.575 0-142.5-63.925-142.5-142.5s63.925-142.5 142.5-142.5 142.5 63.925 142.5 142.5-63.925 142.5-142.5 142.5zm0-270c-70.304 0-127.5 57.196-127.5 127.5s57.196 127.5 127.5 127.5 127.5-57.196 127.5-127.5-57.197-127.5-127.5-127.5z" fill="#ffffff" data-original="#ffffff" class=""></path><path d="m169.183 158.203 9.316 4.933v36.899c0 10.003 5.429 19.223 14.168 24.062 21.013 11.634 42.166 17.45 63.329 17.449 8.205 0 16.412-.876 24.61-2.626v6.13c-8.73 3.095-15 11.437-15 21.215 0 12.407 10.094 22.5 22.5 22.5s22.5-10.093 22.5-22.5c0-9.778-6.27-18.119-15-21.215v-10.311c7.924-2.728 15.835-6.275 23.724-10.642 8.739-4.839 14.169-14.06 14.169-24.063v-36.9l9.314-4.931c5.744-3.041 9.312-8.967 9.313-15.466 0-6.5-3.568-12.426-9.312-15.467l-69.27-36.672c-10.983-5.816-24.104-5.816-35.091 0l-69.271 36.672c-5.743 3.041-9.312 8.967-9.312 15.466s3.57 12.426 9.313 15.467zm86.814 68.435c-18.6-.001-37.204-5.223-56.063-15.665-3.969-2.197-6.434-6.389-6.434-10.939v-28.957l44.947 23.797h.001c5.494 2.909 11.52 4.362 17.547 4.362 6.025 0 12.053-1.454 17.545-4.362l7.067-3.741v32.464c-8.218 2.028-16.413 3.041-24.61 3.041zm32.11 47.126c-4.136 0-7.5-3.364-7.5-7.5s3.364-7.5 7.5-7.5 7.5 3.364 7.5 7.5-3.364 7.5-7.5 7.5zm30.393-73.731c0 4.55-2.466 8.743-6.435 10.94-5.507 3.048-10.99 5.651-16.458 7.81v-35.59l22.893-12.119zm-142.298-59.506 69.271-36.672c6.593-3.491 14.465-3.49 21.056 0l69.269 36.672c1.754.928 1.756 3.49 0 4.419l-47.238 25.007-30.613-20.506c-3.441-2.307-8.1-1.384-10.405 2.057s-1.384 8.1 2.058 10.405l23.906 16.014-6.981 3.696c-6.592 3.489-14.463 3.489-21.057 0h.001l-69.264-36.672c-1.756-.929-1.758-3.491-.003-4.42z" fill="#ffffff" data-original="#ffffff" class=""></path></g></g></svg>