<svg xmlns="http://www.w3.org/2000/svg" version="1.1" xmlns:xlink="http://www.w3.org/1999/xlink" xmlns:svgjs="http://svgjs.com/svgjs" width="512" height="512" x="0" y="0" viewBox="0 0 64 64" style="enable-background:new 0 0 512 512" xml:space="preserve" class=""><g><path xmlns="http://www.w3.org/2000/svg" d="M30.57,28H38V26H33.24l4.88-4.25a1,1,0,0,0,.28-1.1,1,1,0,0,0-.93-.65H30v2h4.79l-4.87,4.25a1,1,0,0,0-.29,1.1A1,1,0,0,0,30.57,28Z" fill="#000000" data-original="#000000" class=""></path><path xmlns="http://www.w3.org/2000/svg" d="M43.57,19H51V17H45.75l5.47-6.35a1,1,0,0,0,.16-1.07A1,1,0,0,0,50.47,9H43v2h5.28l-5.47,6.35A1,1,0,0,0,43.57,19Z" fill="#000000" data-original="#000000" class=""></path><path xmlns="http://www.w3.org/2000/svg" d="M22.29,36H26V34H24.47l2-2.35a1,1,0,0,0,.15-1.07,1,1,0,0,0-.91-.58H22v2h1.55l-2,2.35a1,1,0,0,0-.15,1.07A1,1,0,0,0,22.29,36Z" fill="#000000" data-original="#000000" class=""></path><path xmlns="http://www.w3.org/2000/svg" d="M59.5,30H45.24a3,3,0,0,0-2.69,1.66l0,.12-3.19,9.16L27.5,40A4.51,4.51,0,0,0,23,44.5,2.49,2.49,0,0,1,20.76,47,7,7,0,1,0,8.67,40a5,5,0,0,0-4.4,3.38,3.74,3.74,0,0,0-.87,7.2l11.24,4.32A.92.92,0,0,0,15,55H42.51a7,7,0,0,0,5-2h0l5.27-5.26,2.75,5.5A3.24,3.24,0,0,0,58.41,55a3.28,3.28,0,0,0,3-4.68L55.11,37H59.5a3.5,3.5,0,0,0,0-7ZM15,38a5,5,0,0,1,3,9H14.2l-3.48-1.45A4.86,4.86,0,0,1,10,43,5,5,0,0,1,15,38ZM8.05,42.16A7.89,7.89,0,0,0,8,43a6.75,6.75,0,0,0,.18,1.49l-1.87-.78A3,3,0,0,1,8.05,42.16ZM59.5,35H48a1,1,0,0,0-1,.68l-3,9a1,1,0,0,0,1.61,1.07l8-7.11,5.9,12.54a1.26,1.26,0,0,1-.08,1.23,1.33,1.33,0,0,1-2.23-.12l-3.37-6.74a1,1,0,0,0-.73-.54H53a1,1,0,0,0-.71.29l-6.24,6.25A5,5,0,0,1,42.51,53H15.19L4.12,48.74A1.74,1.74,0,0,1,3,47.12a1.68,1.68,0,0,1,.78-1.45,1.7,1.7,0,0,1,1.63-.16l8.21,3.41A1,1,0,0,0,14,49h6.5A4.51,4.51,0,0,0,25,44.5,2.49,2.49,0,0,1,27.42,42l12.5,1a1,1,0,0,0,1-.67l3.43-9.82a1,1,0,0,1,.87-.51H59.5a1.5,1.5,0,0,1,0,3Zm-7,2-5.37,4.77L48.72,37Z" fill="#000000" data-original="#000000" class=""></path></g></svg>