<svg width="92" height="92" viewBox="0 0 92 92" fill="none" xmlns="http://www.w3.org/2000/svg">
<circle cx="46" cy="46" r="46" fill="#F3F5F7" stroke="#2A3C4A" stroke-width="2"/>
<mask id="path-2-outside-1_2199_41" maskUnits="userSpaceOnUse" x="22" y="24" width="47" height="44" fill="black">
<rect fill="black" x="22" y="24" width="47" height="44"/>
<path fill-rule="evenodd" clip-rule="evenodd" d="M37.5848 25.055C36.7851 25.3027 36.0841 25.9097 35.7279 26.6629C35.5233 27.0958 35.493 27.2859 35.4651 28.3108C35.4365 29.3572 35.4504 29.4902 35.6081 29.6851C35.8476 29.9808 36.3823 29.9862 36.6178 29.6953C36.7577 29.5225 36.7843 29.3349 36.7843 28.5182C36.7843 27.8912 36.8277 27.4453 36.9067 27.2605C37.0549 26.9143 37.45 26.5305 37.7908 26.4018C37.9606 26.3376 40.4243 26.3077 45.4408 26.3091C52.4646 26.3109 52.8589 26.3194 53.205 26.4766C53.641 26.6747 53.9131 27.03 54.0356 27.5614C54.1571 28.0885 54.1571 37.6908 54.0356 38.218C53.9168 38.7334 53.6595 39.0806 53.2367 39.2964C52.9014 39.4674 52.688 39.4722 45.4579 39.4722C39.3434 39.4722 37.9731 39.4505 37.7377 39.3497C37.3915 39.2016 37.0076 38.8065 36.8789 38.4657C36.8185 38.3061 36.7843 37.0776 36.7843 35.0753C36.7843 32.0332 36.7785 31.9278 36.5999 31.7008C36.3576 31.3929 35.9168 31.3812 35.6403 31.6755L35.4437 31.8848L35.4691 35.2559L35.4944 38.6272L35.7269 39.1164C36.0066 39.7054 36.4941 40.2074 37.0956 40.5263L37.5404 40.7621H45.4127H53.2851L53.7887 40.5148C54.3925 40.2182 54.8679 39.7158 55.1856 39.0381L55.42 38.5382V32.8897V27.2411L55.1856 26.7412C54.8679 26.0636 54.3925 25.5612 53.7887 25.2646L53.2851 25.0173L45.5462 25.0017C41.2897 24.9932 37.7071 25.0171 37.5848 25.055ZM43.3223 28.793C42.9645 28.8789 42.5551 29.098 42.3693 29.3034C41.9725 29.742 41.9436 29.9852 41.9436 32.8897C41.9436 35.7942 41.9725 36.0374 42.3693 36.4759C42.732 36.8767 43.448 37.0933 44.0004 36.9692C44.4971 36.8575 48.7302 34.3635 49.0596 33.9883C49.7115 33.2458 49.5847 32.1381 48.7783 31.5303C48.6152 31.4073 47.556 30.7642 46.4247 30.1012C44.1963 28.7954 43.8759 28.6602 43.3223 28.793ZM45.916 31.3552C47.0665 32.028 48.0457 32.6483 48.0921 32.734C48.1452 32.8319 48.1453 32.9474 48.0925 33.0453C47.9714 33.2694 43.8722 35.6472 43.6071 35.6472C43.4854 35.6472 43.3616 35.5839 43.3319 35.5065C43.2614 35.3229 43.2614 30.4564 43.3319 30.2728C43.3616 30.1955 43.4845 30.1321 43.6051 30.1321C43.7261 30.1321 44.7619 30.6803 45.916 31.3552ZM28.0966 33.2831C26.5304 33.6629 25.2006 35.0347 24.8736 36.6078C24.805 36.9376 24.7755 40.6864 24.7755 49.0836V61.0879H24.0704C23.4073 61.0879 23.3537 61.1025 23.172 61.3325C22.9899 61.5632 22.981 61.6483 23.0167 62.8225C23.0466 63.8111 23.0943 64.1772 23.2478 64.5981C23.6315 65.6511 24.4662 66.6327 25.4017 67.1314C26.4712 67.7014 25.1948 67.6677 45.7342 67.6691C57.8059 67.67 64.5941 67.639 64.9037 67.5816C65.9873 67.3807 67.1186 66.6005 67.7878 65.5927C68.3325 64.7724 68.4779 64.2225 68.5204 62.8225C68.5561 61.6483 68.5472 61.5632 68.3651 61.3325C68.1834 61.1025 68.1299 61.0879 67.4667 61.0879H66.7616V49.0836C66.7616 40.6864 66.7321 36.9376 66.6635 36.6078C66.3253 34.9804 64.9392 33.5945 63.3103 33.2548C63.0235 33.1951 61.7325 33.1565 60.0135 33.1565C57.2931 33.1565 57.1809 33.1633 56.9935 33.3379C56.7369 33.577 56.733 34.0478 56.9859 34.2769C57.1598 34.4344 57.3828 34.4495 60.1659 34.4908L63.159 34.5353L63.662 34.7711C64.2872 35.0643 64.8496 35.6301 65.1518 36.2699L65.3828 36.7592L65.4063 48.9235L65.4298 61.0879L57.7563 61.0883C50.2956 61.0885 50.0749 61.0934 49.7973 61.2627C49.6403 61.3584 49.4067 61.5955 49.2783 61.7895C48.8676 62.4101 48.7996 62.4222 45.7241 62.4222C42.6485 62.4222 42.5806 62.4101 42.1699 61.7895C42.0415 61.5955 41.8079 61.3584 41.6509 61.2627C41.3733 61.0934 41.1529 61.0885 33.7364 61.0883L26.1073 61.0879L26.1308 48.9235L26.1543 36.7592L26.3901 36.2561C26.6833 35.6309 27.2491 35.0685 27.8889 34.7663C28.3742 34.5372 28.3998 34.535 31.077 34.4908L33.7759 34.4464L33.9458 34.2363C34.1769 33.9507 34.1592 33.6367 33.8973 33.3749L33.679 33.1565L31.1175 33.1641C29.394 33.1692 28.4057 33.2081 28.0966 33.2831ZM28.4191 36.2079C28.1543 36.3479 27.9669 36.5353 27.8269 36.8001L27.622 37.1875V45.1406C27.622 50.062 27.6547 53.1548 27.7076 53.2537C27.7547 53.3416 27.9107 53.4622 28.0543 53.5217C28.2705 53.6113 28.3629 53.6053 28.5914 53.4871C28.7432 53.4087 28.8768 53.3354 28.8885 53.3244C28.9 53.3135 28.93 49.7219 28.9552 45.3432L29.0008 37.3818L31.3883 37.3373C33.7654 37.293 33.7766 37.292 33.9458 37.0829C34.1769 36.7972 34.1592 36.4832 33.8973 36.2214L33.679 36.003H31.2427C28.8711 36.003 28.7961 36.0085 28.4191 36.2079ZM56.9935 36.1844C56.7368 36.4235 56.733 36.8944 56.9859 37.1234C57.1587 37.2799 57.378 37.2963 59.8546 37.3373L62.5363 37.3818L62.5589 47.8116L62.5815 58.2414H57.7332H52.8848V56.5655C52.8848 55.1887 52.8535 54.7672 52.7094 54.2037C52.4532 53.2022 51.9944 52.4018 51.1732 51.5241L50.459 50.7607L50.7516 50.1646C51.1311 49.3911 51.1979 48.8155 50.9382 48.5558C50.737 48.3547 50.3967 48.3123 50.1297 48.4552C50.0397 48.5034 49.8581 48.825 49.7264 49.1698C48.8143 51.5566 46.1882 52.6292 43.945 51.5311C41.3422 50.2569 40.7731 46.8525 42.8212 44.8079C44.8844 42.7483 48.2359 43.3544 49.5815 46.0308C49.894 46.6525 49.982 46.7595 50.224 46.8126C50.6093 46.8973 50.9619 46.633 51.0014 46.2298C51.0432 45.8035 50.4858 44.7572 49.8429 44.0556C48.5005 42.5907 46.3908 41.9249 44.5591 42.388C43.3906 42.6835 42.709 43.0642 41.8974 43.8747C40.7795 44.9911 40.2534 46.2199 40.2534 47.7147C40.2534 48.6705 40.3757 49.2377 40.7621 50.0757L41.078 50.7608L40.3639 51.5241C39.5427 52.4018 39.0839 53.2022 38.8277 54.2037C38.6836 54.7672 38.6523 55.1887 38.6523 56.5655V58.2414H33.8043H28.9564V56.9191C28.9564 55.716 28.9397 55.5756 28.772 55.3624C28.517 55.0383 28.0614 55.0383 27.8064 55.3624C27.6341 55.5816 27.622 55.7109 27.622 57.354C27.622 58.9516 27.6375 59.1303 27.7921 59.3212L27.9621 59.5312H45.7686H63.575L63.745 59.3212C63.9103 59.117 63.9151 58.8098 63.9151 48.1493V37.1875L63.7102 36.8001C63.5702 36.5353 63.3828 36.3479 63.118 36.2079C62.7377 36.0068 62.6807 36.003 59.9594 36.003C57.2935 36.003 57.1808 36.0099 56.9935 36.1844ZM42.6475 52.3208C43.6624 53.0118 44.5442 53.2823 45.7686 53.2783C47.0101 53.2742 47.8872 53.0033 48.9075 52.3087L49.6362 51.8125L50.2406 52.4695C50.9106 53.1978 51.3257 53.9472 51.4611 54.6731C51.5103 54.9367 51.5505 55.8474 51.5505 56.6968V58.2414H45.7686H39.9866V56.6144C39.9866 54.2837 40.1625 53.7241 41.2861 52.4817C41.6069 52.1269 41.8845 51.8368 41.903 51.8368C41.9215 51.8368 42.2566 52.0546 42.6475 52.3208ZM41.2764 62.7969C41.4232 62.997 41.7634 63.2848 42.0325 63.4364L42.5218 63.712H45.7241H48.9264L49.413 63.4452C49.6937 63.2912 50.0137 63.0207 50.1691 62.8057L50.4386 62.4331L58.835 62.4276L67.2314 62.4222L67.1848 63.17C67.1026 64.4869 66.4274 65.5216 65.3147 66.0355L64.7601 66.2917H45.7686H26.777L26.2225 66.0355C25.1097 65.5216 24.4345 64.4869 24.3523 63.17L24.3057 62.4222L32.6576 62.4276L41.0095 62.4331L41.2764 62.7969Z"/>
</mask>
<path fill-rule="evenodd" clip-rule="evenodd" d="M37.5848 25.055C36.7851 25.3027 36.0841 25.9097 35.7279 26.6629C35.5233 27.0958 35.493 27.2859 35.4651 28.3108C35.4365 29.3572 35.4504 29.4902 35.6081 29.6851C35.8476 29.9808 36.3823 29.9862 36.6178 29.6953C36.7577 29.5225 36.7843 29.3349 36.7843 28.5182C36.7843 27.8912 36.8277 27.4453 36.9067 27.2605C37.0549 26.9143 37.45 26.5305 37.7908 26.4018C37.9606 26.3376 40.4243 26.3077 45.4408 26.3091C52.4646 26.3109 52.8589 26.3194 53.205 26.4766C53.641 26.6747 53.9131 27.03 54.0356 27.5614C54.1571 28.0885 54.1571 37.6908 54.0356 38.218C53.9168 38.7334 53.6595 39.0806 53.2367 39.2964C52.9014 39.4674 52.688 39.4722 45.4579 39.4722C39.3434 39.4722 37.9731 39.4505 37.7377 39.3497C37.3915 39.2016 37.0076 38.8065 36.8789 38.4657C36.8185 38.3061 36.7843 37.0776 36.7843 35.0753C36.7843 32.0332 36.7785 31.9278 36.5999 31.7008C36.3576 31.3929 35.9168 31.3812 35.6403 31.6755L35.4437 31.8848L35.4691 35.2559L35.4944 38.6272L35.7269 39.1164C36.0066 39.7054 36.4941 40.2074 37.0956 40.5263L37.5404 40.7621H45.4127H53.2851L53.7887 40.5148C54.3925 40.2182 54.8679 39.7158 55.1856 39.0381L55.42 38.5382V32.8897V27.2411L55.1856 26.7412C54.8679 26.0636 54.3925 25.5612 53.7887 25.2646L53.2851 25.0173L45.5462 25.0017C41.2897 24.9932 37.7071 25.0171 37.5848 25.055ZM43.3223 28.793C42.9645 28.8789 42.5551 29.098 42.3693 29.3034C41.9725 29.742 41.9436 29.9852 41.9436 32.8897C41.9436 35.7942 41.9725 36.0374 42.3693 36.4759C42.732 36.8767 43.448 37.0933 44.0004 36.9692C44.4971 36.8575 48.7302 34.3635 49.0596 33.9883C49.7115 33.2458 49.5847 32.1381 48.7783 31.5303C48.6152 31.4073 47.556 30.7642 46.4247 30.1012C44.1963 28.7954 43.8759 28.6602 43.3223 28.793ZM45.916 31.3552C47.0665 32.028 48.0457 32.6483 48.0921 32.734C48.1452 32.8319 48.1453 32.9474 48.0925 33.0453C47.9714 33.2694 43.8722 35.6472 43.6071 35.6472C43.4854 35.6472 43.3616 35.5839 43.3319 35.5065C43.2614 35.3229 43.2614 30.4564 43.3319 30.2728C43.3616 30.1955 43.4845 30.1321 43.6051 30.1321C43.7261 30.1321 44.7619 30.6803 45.916 31.3552ZM28.0966 33.2831C26.5304 33.6629 25.2006 35.0347 24.8736 36.6078C24.805 36.9376 24.7755 40.6864 24.7755 49.0836V61.0879H24.0704C23.4073 61.0879 23.3537 61.1025 23.172 61.3325C22.9899 61.5632 22.981 61.6483 23.0167 62.8225C23.0466 63.8111 23.0943 64.1772 23.2478 64.5981C23.6315 65.6511 24.4662 66.6327 25.4017 67.1314C26.4712 67.7014 25.1948 67.6677 45.7342 67.6691C57.8059 67.67 64.5941 67.639 64.9037 67.5816C65.9873 67.3807 67.1186 66.6005 67.7878 65.5927C68.3325 64.7724 68.4779 64.2225 68.5204 62.8225C68.5561 61.6483 68.5472 61.5632 68.3651 61.3325C68.1834 61.1025 68.1299 61.0879 67.4667 61.0879H66.7616V49.0836C66.7616 40.6864 66.7321 36.9376 66.6635 36.6078C66.3253 34.9804 64.9392 33.5945 63.3103 33.2548C63.0235 33.1951 61.7325 33.1565 60.0135 33.1565C57.2931 33.1565 57.1809 33.1633 56.9935 33.3379C56.7369 33.577 56.733 34.0478 56.9859 34.2769C57.1598 34.4344 57.3828 34.4495 60.1659 34.4908L63.159 34.5353L63.662 34.7711C64.2872 35.0643 64.8496 35.6301 65.1518 36.2699L65.3828 36.7592L65.4063 48.9235L65.4298 61.0879L57.7563 61.0883C50.2956 61.0885 50.0749 61.0934 49.7973 61.2627C49.6403 61.3584 49.4067 61.5955 49.2783 61.7895C48.8676 62.4101 48.7996 62.4222 45.7241 62.4222C42.6485 62.4222 42.5806 62.4101 42.1699 61.7895C42.0415 61.5955 41.8079 61.3584 41.6509 61.2627C41.3733 61.0934 41.1529 61.0885 33.7364 61.0883L26.1073 61.0879L26.1308 48.9235L26.1543 36.7592L26.3901 36.2561C26.6833 35.6309 27.2491 35.0685 27.8889 34.7663C28.3742 34.5372 28.3998 34.535 31.077 34.4908L33.7759 34.4464L33.9458 34.2363C34.1769 33.9507 34.1592 33.6367 33.8973 33.3749L33.679 33.1565L31.1175 33.1641C29.394 33.1692 28.4057 33.2081 28.0966 33.2831ZM28.4191 36.2079C28.1543 36.3479 27.9669 36.5353 27.8269 36.8001L27.622 37.1875V45.1406C27.622 50.062 27.6547 53.1548 27.7076 53.2537C27.7547 53.3416 27.9107 53.4622 28.0543 53.5217C28.2705 53.6113 28.3629 53.6053 28.5914 53.4871C28.7432 53.4087 28.8768 53.3354 28.8885 53.3244C28.9 53.3135 28.93 49.7219 28.9552 45.3432L29.0008 37.3818L31.3883 37.3373C33.7654 37.293 33.7766 37.292 33.9458 37.0829C34.1769 36.7972 34.1592 36.4832 33.8973 36.2214L33.679 36.003H31.2427C28.8711 36.003 28.7961 36.0085 28.4191 36.2079ZM56.9935 36.1844C56.7368 36.4235 56.733 36.8944 56.9859 37.1234C57.1587 37.2799 57.378 37.2963 59.8546 37.3373L62.5363 37.3818L62.5589 47.8116L62.5815 58.2414H57.7332H52.8848V56.5655C52.8848 55.1887 52.8535 54.7672 52.7094 54.2037C52.4532 53.2022 51.9944 52.4018 51.1732 51.5241L50.459 50.7607L50.7516 50.1646C51.1311 49.3911 51.1979 48.8155 50.9382 48.5558C50.737 48.3547 50.3967 48.3123 50.1297 48.4552C50.0397 48.5034 49.8581 48.825 49.7264 49.1698C48.8143 51.5566 46.1882 52.6292 43.945 51.5311C41.3422 50.2569 40.7731 46.8525 42.8212 44.8079C44.8844 42.7483 48.2359 43.3544 49.5815 46.0308C49.894 46.6525 49.982 46.7595 50.224 46.8126C50.6093 46.8973 50.9619 46.633 51.0014 46.2298C51.0432 45.8035 50.4858 44.7572 49.8429 44.0556C48.5005 42.5907 46.3908 41.9249 44.5591 42.388C43.3906 42.6835 42.709 43.0642 41.8974 43.8747C40.7795 44.9911 40.2534 46.2199 40.2534 47.7147C40.2534 48.6705 40.3757 49.2377 40.7621 50.0757L41.078 50.7608L40.3639 51.5241C39.5427 52.4018 39.0839 53.2022 38.8277 54.2037C38.6836 54.7672 38.6523 55.1887 38.6523 56.5655V58.2414H33.8043H28.9564V56.9191C28.9564 55.716 28.9397 55.5756 28.772 55.3624C28.517 55.0383 28.0614 55.0383 27.8064 55.3624C27.6341 55.5816 27.622 55.7109 27.622 57.354C27.622 58.9516 27.6375 59.1303 27.7921 59.3212L27.9621 59.5312H45.7686H63.575L63.745 59.3212C63.9103 59.117 63.9151 58.8098 63.9151 48.1493V37.1875L63.7102 36.8001C63.5702 36.5353 63.3828 36.3479 63.118 36.2079C62.7377 36.0068 62.6807 36.003 59.9594 36.003C57.2935 36.003 57.1808 36.0099 56.9935 36.1844ZM42.6475 52.3208C43.6624 53.0118 44.5442 53.2823 45.7686 53.2783C47.0101 53.2742 47.8872 53.0033 48.9075 52.3087L49.6362 51.8125L50.2406 52.4695C50.9106 53.1978 51.3257 53.9472 51.4611 54.6731C51.5103 54.9367 51.5505 55.8474 51.5505 56.6968V58.2414H45.7686H39.9866V56.6144C39.9866 54.2837 40.1625 53.7241 41.2861 52.4817C41.6069 52.1269 41.8845 51.8368 41.903 51.8368C41.9215 51.8368 42.2566 52.0546 42.6475 52.3208ZM41.2764 62.7969C41.4232 62.997 41.7634 63.2848 42.0325 63.4364L42.5218 63.712H45.7241H48.9264L49.413 63.4452C49.6937 63.2912 50.0137 63.0207 50.1691 62.8057L50.4386 62.4331L58.835 62.4276L67.2314 62.4222L67.1848 63.17C67.1026 64.4869 66.4274 65.5216 65.3147 66.0355L64.7601 66.2917H45.7686H26.777L26.2225 66.0355C25.1097 65.5216 24.4345 64.4869 24.3523 63.17L24.3057 62.4222L32.6576 62.4276L41.0095 62.4331L41.2764 62.7969Z" fill="black"/>
<path fill-rule="evenodd" clip-rule="evenodd" d="M37.5848 25.055C36.7851 25.3027 36.0841 25.9097 35.7279 26.6629C35.5233 27.0958 35.493 27.2859 35.4651 28.3108C35.4365 29.3572 35.4504 29.4902 35.6081 29.6851C35.8476 29.9808 36.3823 29.9862 36.6178 29.6953C36.7577 29.5225 36.7843 29.3349 36.7843 28.5182C36.7843 27.8912 36.8277 27.4453 36.9067 27.2605C37.0549 26.9143 37.45 26.5305 37.7908 26.4018C37.9606 26.3376 40.4243 26.3077 45.4408 26.3091C52.4646 26.3109 52.8589 26.3194 53.205 26.4766C53.641 26.6747 53.9131 27.03 54.0356 27.5614C54.1571 28.0885 54.1571 37.6908 54.0356 38.218C53.9168 38.7334 53.6595 39.0806 53.2367 39.2964C52.9014 39.4674 52.688 39.4722 45.4579 39.4722C39.3434 39.4722 37.9731 39.4505 37.7377 39.3497C37.3915 39.2016 37.0076 38.8065 36.8789 38.4657C36.8185 38.3061 36.7843 37.0776 36.7843 35.0753C36.7843 32.0332 36.7785 31.9278 36.5999 31.7008C36.3576 31.3929 35.9168 31.3812 35.6403 31.6755L35.4437 31.8848L35.4691 35.2559L35.4944 38.6272L35.7269 39.1164C36.0066 39.7054 36.4941 40.2074 37.0956 40.5263L37.5404 40.7621H45.4127H53.2851L53.7887 40.5148C54.3925 40.2182 54.8679 39.7158 55.1856 39.0381L55.42 38.5382V32.8897V27.2411L55.1856 26.7412C54.8679 26.0636 54.3925 25.5612 53.7887 25.2646L53.2851 25.0173L45.5462 25.0017C41.2897 24.9932 37.7071 25.0171 37.5848 25.055ZM43.3223 28.793C42.9645 28.8789 42.5551 29.098 42.3693 29.3034C41.9725 29.742 41.9436 29.9852 41.9436 32.8897C41.9436 35.7942 41.9725 36.0374 42.3693 36.4759C42.732 36.8767 43.448 37.0933 44.0004 36.9692C44.4971 36.8575 48.7302 34.3635 49.0596 33.9883C49.7115 33.2458 49.5847 32.1381 48.7783 31.5303C48.6152 31.4073 47.556 30.7642 46.4247 30.1012C44.1963 28.7954 43.8759 28.6602 43.3223 28.793ZM45.916 31.3552C47.0665 32.028 48.0457 32.6483 48.0921 32.734C48.1452 32.8319 48.1453 32.9474 48.0925 33.0453C47.9714 33.2694 43.8722 35.6472 43.6071 35.6472C43.4854 35.6472 43.3616 35.5839 43.3319 35.5065C43.2614 35.3229 43.2614 30.4564 43.3319 30.2728C43.3616 30.1955 43.4845 30.1321 43.6051 30.1321C43.7261 30.1321 44.7619 30.6803 45.916 31.3552ZM28.0966 33.2831C26.5304 33.6629 25.2006 35.0347 24.8736 36.6078C24.805 36.9376 24.7755 40.6864 24.7755 49.0836V61.0879H24.0704C23.4073 61.0879 23.3537 61.1025 23.172 61.3325C22.9899 61.5632 22.981 61.6483 23.0167 62.8225C23.0466 63.8111 23.0943 64.1772 23.2478 64.5981C23.6315 65.6511 24.4662 66.6327 25.4017 67.1314C26.4712 67.7014 25.1948 67.6677 45.7342 67.6691C57.8059 67.67 64.5941 67.639 64.9037 67.5816C65.9873 67.3807 67.1186 66.6005 67.7878 65.5927C68.3325 64.7724 68.4779 64.2225 68.5204 62.8225C68.5561 61.6483 68.5472 61.5632 68.3651 61.3325C68.1834 61.1025 68.1299 61.0879 67.4667 61.0879H66.7616V49.0836C66.7616 40.6864 66.7321 36.9376 66.6635 36.6078C66.3253 34.9804 64.9392 33.5945 63.3103 33.2548C63.0235 33.1951 61.7325 33.1565 60.0135 33.1565C57.2931 33.1565 57.1809 33.1633 56.9935 33.3379C56.7369 33.577 56.733 34.0478 56.9859 34.2769C57.1598 34.4344 57.3828 34.4495 60.1659 34.4908L63.159 34.5353L63.662 34.7711C64.2872 35.0643 64.8496 35.6301 65.1518 36.2699L65.3828 36.7592L65.4063 48.9235L65.4298 61.0879L57.7563 61.0883C50.2956 61.0885 50.0749 61.0934 49.7973 61.2627C49.6403 61.3584 49.4067 61.5955 49.2783 61.7895C48.8676 62.4101 48.7996 62.4222 45.7241 62.4222C42.6485 62.4222 42.5806 62.4101 42.1699 61.7895C42.0415 61.5955 41.8079 61.3584 41.6509 61.2627C41.3733 61.0934 41.1529 61.0885 33.7364 61.0883L26.1073 61.0879L26.1308 48.9235L26.1543 36.7592L26.3901 36.2561C26.6833 35.6309 27.2491 35.0685 27.8889 34.7663C28.3742 34.5372 28.3998 34.535 31.077 34.4908L33.7759 34.4464L33.9458 34.2363C34.1769 33.9507 34.1592 33.6367 33.8973 33.3749L33.679 33.1565L31.1175 33.1641C29.394 33.1692 28.4057 33.2081 28.0966 33.2831ZM28.4191 36.2079C28.1543 36.3479 27.9669 36.5353 27.8269 36.8001L27.622 37.1875V45.1406C27.622 50.062 27.6547 53.1548 27.7076 53.2537C27.7547 53.3416 27.9107 53.4622 28.0543 53.5217C28.2705 53.6113 28.3629 53.6053 28.5914 53.4871C28.7432 53.4087 28.8768 53.3354 28.8885 53.3244C28.9 53.3135 28.93 49.7219 28.9552 45.3432L29.0008 37.3818L31.3883 37.3373C33.7654 37.293 33.7766 37.292 33.9458 37.0829C34.1769 36.7972 34.1592 36.4832 33.8973 36.2214L33.679 36.003H31.2427C28.8711 36.003 28.7961 36.0085 28.4191 36.2079ZM56.9935 36.1844C56.7368 36.4235 56.733 36.8944 56.9859 37.1234C57.1587 37.2799 57.378 37.2963 59.8546 37.3373L62.5363 37.3818L62.5589 47.8116L62.5815 58.2414H57.7332H52.8848V56.5655C52.8848 55.1887 52.8535 54.7672 52.7094 54.2037C52.4532 53.2022 51.9944 52.4018 51.1732 51.5241L50.459 50.7607L50.7516 50.1646C51.1311 49.3911 51.1979 48.8155 50.9382 48.5558C50.737 48.3547 50.3967 48.3123 50.1297 48.4552C50.0397 48.5034 49.8581 48.825 49.7264 49.1698C48.8143 51.5566 46.1882 52.6292 43.945 51.5311C41.3422 50.2569 40.7731 46.8525 42.8212 44.8079C44.8844 42.7483 48.2359 43.3544 49.5815 46.0308C49.894 46.6525 49.982 46.7595 50.224 46.8126C50.6093 46.8973 50.9619 46.633 51.0014 46.2298C51.0432 45.8035 50.4858 44.7572 49.8429 44.0556C48.5005 42.5907 46.3908 41.9249 44.5591 42.388C43.3906 42.6835 42.709 43.0642 41.8974 43.8747C40.7795 44.9911 40.2534 46.2199 40.2534 47.7147C40.2534 48.6705 40.3757 49.2377 40.7621 50.0757L41.078 50.7608L40.3639 51.5241C39.5427 52.4018 39.0839 53.2022 38.8277 54.2037C38.6836 54.7672 38.6523 55.1887 38.6523 56.5655V58.2414H33.8043H28.9564V56.9191C28.9564 55.716 28.9397 55.5756 28.772 55.3624C28.517 55.0383 28.0614 55.0383 27.8064 55.3624C27.6341 55.5816 27.622 55.7109 27.622 57.354C27.622 58.9516 27.6375 59.1303 27.7921 59.3212L27.9621 59.5312H45.7686H63.575L63.745 59.3212C63.9103 59.117 63.9151 58.8098 63.9151 48.1493V37.1875L63.7102 36.8001C63.5702 36.5353 63.3828 36.3479 63.118 36.2079C62.7377 36.0068 62.6807 36.003 59.9594 36.003C57.2935 36.003 57.1808 36.0099 56.9935 36.1844ZM42.6475 52.3208C43.6624 53.0118 44.5442 53.2823 45.7686 53.2783C47.0101 53.2742 47.8872 53.0033 48.9075 52.3087L49.6362 51.8125L50.2406 52.4695C50.9106 53.1978 51.3257 53.9472 51.4611 54.6731C51.5103 54.9367 51.5505 55.8474 51.5505 56.6968V58.2414H45.7686H39.9866V56.6144C39.9866 54.2837 40.1625 53.7241 41.2861 52.4817C41.6069 52.1269 41.8845 51.8368 41.903 51.8368C41.9215 51.8368 42.2566 52.0546 42.6475 52.3208ZM41.2764 62.7969C41.4232 62.997 41.7634 63.2848 42.0325 63.4364L42.5218 63.712H45.7241H48.9264L49.413 63.4452C49.6937 63.2912 50.0137 63.0207 50.1691 62.8057L50.4386 62.4331L58.835 62.4276L67.2314 62.4222L67.1848 63.17C67.1026 64.4869 66.4274 65.5216 65.3147 66.0355L64.7601 66.2917H45.7686H26.777L26.2225 66.0355C25.1097 65.5216 24.4345 64.4869 24.3523 63.17L24.3057 62.4222L32.6576 62.4276L41.0095 62.4331L41.2764 62.7969Z" stroke="black" stroke-width="0.26166" mask="url(#path-2-outside-1_2199_41)"/>
</svg>
