<svg width="92" height="92" viewBox="0 0 92 92" fill="none" xmlns="http://www.w3.org/2000/svg">
<circle cx="46" cy="46" r="45" fill="#F3F5F7" stroke="#2A3C4A" stroke-width="2"/>
<path fill-rule="evenodd" clip-rule="evenodd" d="M47.6721 25.2429C47.469 25.4187 47.3997 25.5906 47.3548 26.0301L47.2973 26.5923L46.7865 26.6453C45.9521 26.7317 44.9798 27.1815 44.3373 27.778C42.7461 29.2552 42.4985 31.6631 43.7897 33.1031C44.4022 33.7863 45.0068 34.1471 46.2258 34.557L47.2728 34.9091L47.2993 37.7238L47.3258 40.5384L46.9503 40.4691C45.6403 40.2273 44.8453 39.4412 44.6806 38.2247C44.5894 37.5522 44.2948 37.2161 43.7962 37.2161C43.5338 37.2161 43.39 37.2895 43.1935 37.5237C42.9063 37.8659 42.8843 38.0629 43.0466 38.8359C43.3749 40.3988 44.5035 41.5438 46.219 42.0542C46.5168 42.1429 46.8807 42.2153 47.0277 42.2153C47.2786 42.2153 47.2982 42.249 47.3523 42.7756C47.4415 43.6412 47.925 44.0414 48.5603 43.7752C48.9276 43.6213 49.1174 43.2289 49.1174 42.6232V42.2609L49.8984 42.099C52.0569 41.6514 53.2854 40.3908 53.4664 38.4376C53.6763 36.1736 52.3215 34.4715 49.7406 33.7565L49.1174 33.5838V30.9506C49.1174 29.5023 49.1351 28.3174 49.1568 28.3174C49.1784 28.3174 49.4851 28.4069 49.8383 28.5163C51.0443 28.8898 51.6243 29.5222 51.7699 30.6227C51.8568 31.2803 52.1495 31.6183 52.6277 31.6137C53.5045 31.6052 53.7274 30.6889 53.1979 29.2697C52.7568 28.0876 51.3188 27.0115 49.7948 26.7231L49.1406 26.5994L49.0958 26.0578C49.0174 25.11 48.3 24.6993 47.6721 25.2429ZM47.3226 30.7171C47.3226 32.0369 47.3072 33.1167 47.2884 33.1167C47.2696 33.1167 47.0076 33.0316 46.7063 32.9277C45.2037 32.4093 44.6963 31.8757 44.6996 30.817C44.7026 29.8694 45.1547 29.1174 45.9765 28.6932C46.4477 28.4498 46.7901 28.3378 47.0983 28.326L47.3226 28.3174V30.7171ZM50.1672 35.7508C51.0839 36.1918 51.554 36.7134 51.7088 37.4607C51.928 38.5197 51.6032 39.4344 50.8343 39.9233C50.4064 40.1954 50.1894 40.2778 49.3916 40.4709L49.1174 40.5373V37.9768C49.1174 35.0201 49.0307 35.204 50.1672 35.7508ZM22.5693 44.8577C21.9727 45.0711 21.4955 45.4999 21.2385 46.0531L21.001 46.5647L21 55.8017C20.9993 62.5948 21.03 65.1426 21.1163 65.4312C21.2777 65.9714 21.9097 66.6621 22.4217 66.8579C22.7882 66.998 23.3375 67.0154 26.5993 66.9905L30.355 66.9617L30.7848 66.6586C31.0212 66.4919 31.346 66.1426 31.5064 65.8823C31.7647 65.4635 31.8038 65.2941 31.8462 64.4106C31.8726 63.8614 31.9144 63.4122 31.9393 63.4122C31.964 63.4122 33.6743 63.769 35.7398 64.2052C43.5043 65.8446 47.5181 66.5932 49.0224 66.6822C49.8421 66.7307 50.0764 66.7062 50.7102 66.5056C52.0118 66.0937 54.7965 64.5829 58.0415 62.5281C61.8404 60.1227 70.4279 54.2348 71.0252 53.6261C71.2208 53.4268 71.5204 52.9712 71.6909 52.6138C71.971 52.0268 72.0009 51.872 72 51.014C71.9991 50.1955 71.9621 49.9852 71.7328 49.4925C71.3778 48.7301 70.6434 47.9629 69.9087 47.5866C69.4123 47.3325 69.1594 47.2718 68.4436 47.2351C67.8301 47.2037 67.4488 47.2351 67.1327 47.3431L66.687 47.4954L66.3527 47.1486C66.1688 46.9579 65.6853 46.6366 65.2784 46.4346C64.6118 46.1039 64.4585 46.0673 63.7329 46.0661C62.792 46.0646 62.3337 46.2156 61.1442 46.9195L60.3387 47.3962L59.9503 47.0442C59.7366 46.8507 59.2645 46.5522 58.9013 46.381C58.3367 46.1149 58.1252 46.0693 57.4432 46.0672C56.8912 46.0656 56.493 46.1238 56.1504 46.2562C55.8781 46.3615 54.314 47.2727 52.6748 48.2809C51.0355 49.2892 49.6291 50.1142 49.5495 50.1142C49.4699 50.1142 48.075 49.7296 46.4498 49.2595C44.8248 48.7895 42.6176 48.1735 41.5451 47.8907C39.7661 47.4216 39.4988 47.3764 38.4982 47.3762C37.4684 47.376 37.2432 47.4169 34.8089 48.0469C33.3831 48.4159 32.1379 48.7427 32.042 48.7729C31.8838 48.8227 31.8675 48.7351 31.8675 47.8394C31.8675 46.564 31.6918 45.9621 31.1654 45.4343C30.4733 44.7404 30.2999 44.7144 26.3906 44.7194C23.7726 44.7227 22.8533 44.756 22.5693 44.8577ZM29.8871 46.6059L30.1225 46.797V55.9125C30.1225 64.8205 30.1181 65.0313 29.929 65.17C29.7709 65.2859 29.1191 65.3119 26.37 65.3119C23.0053 65.3119 23.0045 65.3119 22.8493 65.0896C22.7116 64.8926 22.6941 63.8506 22.6941 55.8602C22.6941 46.4982 22.6885 46.629 23.0929 46.4841C23.1752 46.4546 24.6846 46.4269 26.4471 46.4226C29.4604 46.4152 29.6658 46.4261 29.8871 46.6059ZM58.4113 48.0395C58.6147 48.1535 58.7608 48.2798 58.7358 48.3203C58.7109 48.3608 58.1744 48.6945 57.5436 49.0617C56.913 49.4291 56.3295 49.8261 56.247 49.9441C55.818 50.5584 56.3302 51.3012 57.1257 51.2181C57.2252 51.2077 58.5261 50.4736 60.0167 49.5867C61.5072 48.6999 62.9034 47.9132 63.1193 47.8386C63.361 47.7551 63.6677 47.7281 63.9175 47.7684C64.3841 47.8435 65.2321 48.2991 65.106 48.4069C65.0593 48.4467 63.6303 49.3047 61.9302 50.3136C60.2301 51.3225 58.7845 52.219 58.7177 52.3058C58.3362 52.8019 58.7671 53.6532 59.3906 53.6354C59.6006 53.6294 60.7889 52.981 63.157 51.5801C65.0597 50.4544 66.8143 49.4085 67.056 49.2558C67.9458 48.6937 69.134 48.8526 69.7903 49.6213C70.4844 50.4345 70.5277 51.556 69.8941 52.311C69.5592 52.7102 62.7514 57.4349 58.9832 59.8833C53.7308 63.2961 50.513 65.012 49.3652 65.012C48.7647 65.012 45.4248 64.4375 41.8385 63.7175C38.9499 63.1375 32.3856 61.7526 32.0412 61.6505C31.8761 61.6016 31.8673 61.2726 31.8916 56.0886L31.9173 50.5787L33.762 50.094C36.2686 49.4354 38.1507 49.0143 38.588 49.0143C39.4859 49.0143 52.0955 52.5682 53.6612 53.2626C54.2918 53.5422 55.0775 54.2395 55.2644 54.6853C55.7646 55.8789 54.9802 57.4415 53.6854 57.8304C53.2014 57.9758 52.2352 57.8862 46.9324 57.204C43.0213 56.7008 43.0015 56.6993 42.7446 56.891C42.2508 57.2596 42.2138 57.9619 42.6723 58.2631C42.8269 58.3646 44.186 58.5812 46.7339 58.9101C53.3464 59.7636 53.6392 59.773 54.857 59.1694C56.4574 58.3763 57.3562 56.6421 57.0804 54.8797C56.8139 53.1768 55.4696 51.9659 52.9981 51.2025C52.3993 51.0175 51.9096 50.8433 51.9099 50.8152C51.9109 50.7277 56.4266 47.9824 56.7951 47.8453C57.2342 47.6819 57.9202 47.7643 58.4113 48.0395Z" fill="#2A3C4A"/>
<path fill-rule="evenodd" clip-rule="evenodd" d="M47.1057 25.272C47.4572 24.974 47.8567 24.9237 48.1838 25.1072C48.5031 25.2862 48.7189 25.6688 48.761 26.1667L48.7984 26.6098L49.3666 26.7151C50.1601 26.8622 50.9292 27.2096 51.5577 27.6704C52.1853 28.1305 52.6806 28.7097 52.9153 29.3258C53.1873 30.04 53.2751 30.649 53.1656 31.0904C53.1101 31.3138 53.0027 31.499 52.8383 31.6285C52.6737 31.7581 52.4634 31.823 52.2184 31.8253C51.9418 31.8279 51.7093 31.7317 51.5367 31.5363C51.3681 31.3456 51.2661 31.071 51.2202 30.7312C51.149 30.2036 50.9733 29.7989 50.6764 29.4818C50.3782 29.1632 49.948 28.9225 49.3493 28.7408C49.1707 28.6866 49.004 28.6373 48.8795 28.6018C48.8544 28.5946 48.831 28.588 48.8097 28.582C48.8091 28.5981 48.8084 28.6155 48.8077 28.6342C48.803 28.7658 48.7987 28.957 48.7951 29.1939C48.7878 29.6676 48.7833 30.3213 48.7833 31.0407V33.5626L49.3219 33.7088C50.6501 34.0693 51.6744 34.6818 52.3396 35.5006C53.0063 36.3212 53.3045 37.3397 53.1953 38.4945C53.1011 39.4901 52.7332 40.3168 52.1018 40.9516C51.4715 41.5853 50.5871 42.0191 49.4739 42.2452L48.7833 42.3855V42.6434C48.7833 43.2661 48.5829 43.7225 48.1396 43.9044C47.7827 44.0509 47.4466 44.0197 47.1885 43.8104C46.938 43.6073 46.7847 43.2553 46.7377 42.8078C46.7239 42.6764 46.7128 42.5804 46.7001 42.5086C46.687 42.4346 46.6744 42.3999 46.6645 42.3833C46.6595 42.3747 46.6582 42.3741 46.6499 42.3717C46.6318 42.3663 46.6007 42.3635 46.5354 42.3635C46.4472 42.3635 46.3069 42.3432 46.1576 42.3141C46.0054 42.2843 45.8337 42.2434 45.6786 42.1981C43.8998 41.6797 42.7153 40.5097 42.3712 38.9047L42.4962 38.8788C42.8292 40.4324 43.9743 41.5705 45.7149 42.0778C46.0171 42.166 46.3862 42.238 46.5354 42.238C46.79 42.238 46.8098 42.2715 46.8648 42.7949C46.9552 43.6554 47.4458 44.0531 48.0904 43.7886C48.4631 43.6356 48.6556 43.2455 48.6556 42.6434V42.2833L49.448 42.1223C51.638 41.6775 52.8845 40.4244 53.0681 38.4829C53.281 36.2325 51.9065 34.5405 49.2879 33.8298L48.6556 33.6581V31.0407C48.6556 29.8791 48.6673 28.8879 48.6834 28.5484C48.6834 28.5485 48.6834 28.5483 48.6834 28.5484C48.6872 28.4674 48.6913 28.4232 48.6956 28.4232C48.7034 28.4232 48.7479 28.4345 48.8181 28.4539M49.387 28.6209C50.6106 28.9922 51.1991 29.6208 51.3468 30.7147C51.4351 31.3683 51.732 31.7044 52.2172 31.6998C53.1067 31.6913 53.3329 30.7805 52.7956 29.3698C52.3482 28.1948 50.8892 27.1251 49.3429 26.8385L48.6792 26.7154L48.6337 26.1771C48.5541 25.2349 47.8263 24.8268 47.1892 25.367C46.9831 25.5419 46.9128 25.7127 46.8673 26.1495L46.8089 26.7084L46.2906 26.761C45.4441 26.847 44.4576 27.2941 43.8057 27.887C42.1913 29.3553 41.9401 31.7489 43.2501 33.1803C43.8716 33.8594 44.485 34.2181 45.7218 34.6255L46.784 34.9755L46.8379 40.5711L46.4569 40.5022C45.1277 40.2619 44.3211 39.4804 44.154 38.2713C44.0616 37.6028 43.7626 37.2687 43.2568 37.2687C42.9905 37.2687 42.8446 37.3416 42.6452 37.5745C42.3539 37.9146 42.3315 38.1104 42.4962 38.8788L42.3712 38.9047C42.2893 38.5226 42.2487 38.2625 42.2728 38.052C42.2981 37.8298 42.3938 37.6731 42.5475 37.4937M46.7087 40.4202L46.6572 35.0661L45.6812 34.7444C44.4315 34.3328 43.7961 33.9646 43.1551 33.2642C41.7896 31.7721 42.0636 29.3005 43.7189 27.7949C44.3902 27.1844 45.4022 26.7251 46.2775 26.6362L46.6925 26.594L46.7402 26.1367C46.7633 25.9158 46.7936 25.7493 46.8496 25.613C46.9077 25.4718 46.9906 25.3697 47.1057 25.272M45.4689 28.7967C44.6351 29.2184 44.1764 29.9659 44.1733 30.9079C44.17 31.9602 44.6847 32.4906 46.2093 33.0059C46.396 33.069 46.5677 33.1251 46.6775 33.1592C46.6777 33.1592 46.6778 33.1593 46.678 33.1593C46.7478 33.181 46.7925 33.1938 46.7999 33.1938C46.8038 33.1938 46.8075 33.1498 46.811 33.0688C46.811 33.0685 46.811 33.0681 46.811 33.0678C46.8247 32.7476 46.8346 31.8538 46.8346 30.8085V28.4232L46.607 28.4317C46.2943 28.4435 45.947 28.5548 45.4689 28.7967ZM46.7069 28.5536L46.6119 28.5571C46.3267 28.5678 45.9991 28.6696 45.5274 28.9083C44.7371 29.3079 44.304 30.0118 44.3011 30.9083C44.2995 31.4116 44.4206 31.7727 44.7108 32.0717C45.0077 32.3776 45.4931 32.6311 46.2509 32.8873C46.4032 32.9387 46.5453 32.9854 46.6514 33.0192C46.663 33.0229 46.6741 33.0264 46.6847 33.0297C46.685 33.0207 46.6854 33.0112 46.6857 33.0014C46.6898 32.8814 46.6935 32.7072 46.6967 32.4913C46.703 32.0597 46.7069 31.464 46.7069 30.8085V28.5536ZM48.9039 40.382C49.3086 40.2861 49.559 40.2192 49.7612 40.144C49.9606 40.0698 50.1162 39.9864 50.3292 39.8537C51.0546 39.4018 51.374 38.551 51.1598 37.5374C51.0134 36.8448 50.5727 36.3529 49.6654 35.9253C49.5848 35.8873 49.5053 35.8486 49.4332 35.8136C49.3801 35.7877 49.3309 35.7639 49.2883 35.7436C49.1805 35.6924 49.0967 35.6558 49.0294 35.635C48.9602 35.6135 48.9269 35.6149 48.9122 35.6191C48.9058 35.6209 48.8908 35.6254 48.8712 35.6662C48.8496 35.7111 48.83 35.7857 48.8154 35.9049C48.801 36.0222 48.7924 36.1733 48.7876 36.3659C48.7806 36.6412 48.7814 36.9933 48.7825 37.4405C48.7829 37.6196 48.7833 37.814 48.7833 38.0248V40.4106L48.9039 40.382ZM48.9338 40.504C49.7432 40.3121 49.9634 40.2302 50.3976 39.9597C51.1777 39.4737 51.5073 38.5645 51.2848 37.5119C51.1278 36.7689 50.6508 36.2505 49.7207 35.8121C49.2629 35.5963 49.0007 35.4374 48.851 35.5081C48.6236 35.6156 48.6556 36.2527 48.6556 38.0248V40.57L48.9338 40.504ZM20.3697 46.0528C20.6304 45.5029 21.1146 45.0767 21.7199 44.8645C22.0081 44.7635 22.9408 44.7304 25.597 44.7271C29.5634 44.7221 29.7393 44.748 30.4415 45.4377C30.9756 45.9624 31.1539 46.5607 31.1539 47.8285C31.1539 48.7188 31.1704 48.8058 31.3309 48.7563C31.4282 48.7263 32.6916 48.4015 34.1383 48.0347C36.608 47.4085 36.8366 47.3678 37.8814 47.368C38.8966 47.3682 39.1678 47.4131 40.9727 47.8795C42.0609 48.1605 44.3003 48.7728 45.9491 49.2401C47.598 49.7074 49.0132 50.0896 49.0941 50.0896C49.1748 50.0896 50.6017 49.2696 52.2649 48.2674C53.9281 47.2651 55.515 46.3594 55.7913 46.2548C56.1389 46.1231 56.5429 46.0652 57.103 46.0668C57.7949 46.0689 58.0095 46.1142 58.5823 46.3788C58.9509 46.549 59.4298 46.8456 59.6466 47.038L60.0408 47.3879L60.858 46.9141C62.0649 46.2144 62.5299 46.0642 63.4845 46.0657C64.2206 46.0669 64.3762 46.1033 65.0525 46.4321C65.4654 46.6328 65.956 46.9523 66.1425 47.1418L66.4817 47.4865L66.9339 47.3351C67.2546 47.2278 67.6415 47.1966 68.264 47.2278C68.9902 47.2642 69.2468 47.3246 69.7504 47.5772C70.4959 47.9512 71.241 48.7138 71.6011 49.4716C71.8338 49.9614 71.8713 50.1704 71.8722 50.9841C71.8732 51.837 71.8428 51.9908 71.5586 52.5743C71.3856 52.9296 71.0817 53.3824 70.8833 53.5806C70.2773 54.1856 61.5643 60.0383 57.71 62.4294C54.4176 64.4719 51.5923 65.9736 50.2716 66.3831C49.6286 66.5825 49.3909 66.6068 48.5592 66.5586C47.033 66.4701 42.9606 65.726 35.0827 64.0964C32.9871 63.6629 31.2518 63.3081 31.2267 63.3081C31.2015 63.3081 31.159 63.7547 31.1323 64.3006C31.0892 65.1788 31.0495 65.3472 30.7875 65.7635C30.6248 66.0222 30.2953 66.3695 30.0554 66.5352L29.6193 66.8364L25.8087 66.865C22.4994 66.8899 21.9421 66.8725 21.5702 66.7332C21.0507 66.5386 20.4095 65.8521 20.2457 65.3151C20.1582 65.0282 20.127 62.4957 20.1277 55.7432L20.1288 46.5614L20.3697 46.0528ZM31.3244 63.4543C31.3189 63.4964 31.3132 63.5492 31.3072 63.6113C31.2904 63.7888 31.2732 64.035 31.2599 64.3066C31.2384 64.7439 31.2175 65.0169 31.1665 65.2336C31.1139 65.4567 31.0304 65.6163 30.8962 65.8295C30.7248 66.1018 30.3836 66.4618 30.1289 66.6378L29.6601 66.9616L25.8097 66.9905C24.1559 67.0029 23.1864 67.0048 22.5839 66.9861C21.9831 66.9674 21.7321 66.9282 21.5247 66.8505C21.2394 66.7436 20.9333 66.5082 20.6804 66.2374C20.4273 65.9664 20.2128 65.6442 20.1233 65.3511C20.108 65.3007 20.0973 65.2169 20.0882 65.1087C20.0787 64.9962 20.0703 64.8453 20.0626 64.6529C20.0473 64.2679 20.0352 63.7121 20.0259 62.9553C20.0073 61.4414 19.9997 59.1194 20 55.7432L20.001 46.5336L20.2539 45.9999C20.5297 45.4182 21.041 44.9693 21.677 44.7464C21.7641 44.7158 21.889 44.6936 22.0605 44.6761C22.2342 44.6583 22.4641 44.6444 22.7658 44.6337C23.3695 44.6123 24.2688 44.6032 25.5968 44.6016C27.5745 44.5991 28.6226 44.6039 29.2622 44.6978C29.586 44.7453 29.8143 44.8166 30.0094 44.926C30.2029 45.0344 30.356 45.1763 30.5319 45.349C30.8131 45.6253 31.0029 45.9241 31.1206 46.3192C31.237 46.71 31.2816 47.1906 31.2816 47.8285C31.2816 48.2799 31.2863 48.5093 31.3077 48.6217C31.3084 48.6253 31.3091 48.6286 31.3098 48.6316C31.4933 48.5798 32.7191 48.265 34.1063 47.9132C35.3394 47.6005 36.0193 47.4324 36.5214 47.343C37.0287 47.2526 37.3558 47.2424 37.8814 47.2425C38.3915 47.2426 38.7214 47.2539 39.1521 47.3252C39.5792 47.3959 40.1041 47.5253 41.0052 47.7581C42.0947 48.0395 44.3352 48.6521 45.9845 49.1195C46.8086 49.353 47.5741 49.5653 48.1435 49.7191C48.4282 49.796 48.6635 49.8582 48.8324 49.9011C48.917 49.9226 48.9842 49.9391 49.0323 49.9501C49.0537 49.955 49.0706 49.9586 49.0832 49.9611C49.0943 49.9563 49.1093 49.9494 49.1285 49.94C49.1761 49.9168 49.2431 49.8819 49.3281 49.8359C49.4978 49.7441 49.7346 49.6109 50.0216 49.446C50.5954 49.1163 51.3671 48.6612 52.1981 48.1604C53.0304 47.6588 53.8438 47.1813 54.484 46.816C54.804 46.6333 55.0813 46.4784 55.2961 46.3625C55.5075 46.2484 55.6666 46.1675 55.7453 46.1377C56.1132 45.9983 56.5347 45.9397 57.1034 45.9413C57.4506 45.9424 57.6885 45.9541 57.9141 46.0017C58.1405 46.0494 58.3481 46.1319 58.6367 46.2652C59.0125 46.4388 59.5032 46.7417 59.7322 46.9449L60.0567 47.2329L60.7931 46.806C61.3975 46.4556 61.8255 46.2371 62.2259 46.1078C62.6298 45.9773 62.9995 45.9395 63.4847 45.9402C63.8525 45.9408 64.089 45.9499 64.3205 46.004C64.5517 46.058 64.7715 46.1554 65.1092 46.3196C65.3211 46.4226 65.5516 46.5554 65.7529 46.6865C65.9523 46.8163 66.1311 46.9497 66.2343 47.0546L66.5172 47.342L66.8927 47.2163C67.2367 47.1012 67.6431 47.071 68.2705 47.1024C68.6351 47.1208 68.8906 47.1454 69.1204 47.1994C69.3521 47.2539 69.5523 47.3369 69.8085 47.4655C70.5798 47.8524 71.3449 48.6359 71.7169 49.4186C71.8353 49.6677 71.908 49.8538 71.9494 50.0846C71.9901 50.3118 71.9995 50.5775 72 50.984C72.0004 51.4088 71.9935 51.6724 71.9478 51.9041C71.9014 52.1389 71.8165 52.3355 71.6739 52.6285C71.4971 52.9915 71.1859 53.4574 70.9743 53.6686C70.8902 53.7526 70.6787 53.9164 70.3777 54.137C70.0728 54.3605 69.6667 54.6487 69.1852 54.9845C68.2221 55.6562 66.9551 56.5197 65.5868 57.4388C62.8507 59.2767 59.7073 61.3387 57.7782 62.5355C54.4876 64.5769 51.6488 66.0877 50.3101 66.5028C49.986 66.6032 49.7561 66.6622 49.4994 66.6885C49.2444 66.7146 48.9679 66.708 48.5517 66.6839C47.0135 66.5947 42.9291 65.8478 35.0564 64.2192C34.0087 64.0024 33.051 63.8054 32.3522 63.6626C32.0028 63.5911 31.7182 63.5333 31.5195 63.4933C31.4403 63.4774 31.3748 63.4643 31.3244 63.4543ZM31.2707 48.6419C31.2707 48.6419 31.2711 48.6419 31.2717 48.6418L31.2707 48.6419ZM29.0642 46.6998C29.0193 46.6641 28.9799 46.6393 28.9014 46.6187C28.816 46.5962 28.6844 46.5788 28.4549 46.5668C27.9971 46.5429 27.1853 46.542 25.6547 46.5456C24.761 46.5478 23.9318 46.5557 23.3158 46.5668C23.0078 46.5723 22.7536 46.5786 22.5715 46.5854C22.4803 46.5887 22.4082 46.5922 22.3567 46.5956C22.3309 46.5973 22.3115 46.599 22.298 46.6005C22.2929 46.6011 22.2895 46.6015 22.2874 46.6018L22.2821 46.6037C22.2314 46.6214 22.2107 46.6287 22.1919 46.6423C22.178 46.6524 22.1573 46.6725 22.1348 46.7328C22.0857 46.8648 22.0477 47.1328 22.0226 47.7109C21.9742 48.8256 21.9743 51.0248 21.9743 55.4339L21.9743 55.8013C21.9743 59.7731 21.9787 62.0164 22.0006 63.2914C22.0116 63.9294 22.0269 64.3217 22.0478 64.5659C22.0583 64.6881 22.0699 64.7694 22.082 64.8242C22.0944 64.8802 22.1054 64.899 22.1087 64.9036C22.1463 64.9564 22.1583 64.9713 22.1979 64.9875C22.2516 65.0096 22.3536 65.0298 22.577 65.0436C23.0184 65.0709 23.8662 65.071 25.5762 65.071C26.9713 65.071 27.8313 65.0645 28.3623 65.0438C28.6283 65.0334 28.8076 65.0196 28.9287 65.002C29.055 64.9836 29.0988 64.9634 29.1117 64.9542C29.1258 64.944 29.1301 64.9398 29.1364 64.9274C29.146 64.9087 29.1594 64.8699 29.1724 64.7858C29.1984 64.6178 29.2169 64.31 29.2295 63.7206C29.2546 62.5458 29.2557 60.2816 29.2557 55.8533V46.8521L29.0642 46.6998ZM29.3834 46.7923V55.8533C29.3834 64.708 29.379 64.9176 29.1871 65.0555C29.0266 65.1707 28.3654 65.1965 25.5762 65.1965C22.1623 65.1965 22.1615 65.1965 22.0041 64.9756C21.8644 64.7797 21.8466 63.744 21.8466 55.8013C21.8466 47.3952 21.8419 46.6884 22.1435 46.5241C22.1758 46.5066 22.2115 46.4952 22.2512 46.4813C22.3347 46.452 23.8661 46.4244 25.6544 46.4202C28.7116 46.4128 28.92 46.4236 29.1446 46.6023L29.3834 46.7923ZM22.2942 46.5994C22.2943 46.5994 22.2941 46.5995 22.2942 46.5994V46.5994ZM57.1407 48.935C57.4599 48.7529 57.7549 48.5793 57.9728 48.4466C58.0819 48.3801 58.1709 48.3243 58.2337 48.283C58.236 48.2815 58.2382 48.2801 58.2404 48.2786C58.1888 48.237 58.1131 48.1864 58.0229 48.1369C57.7901 48.0091 57.5079 47.9246 57.2303 47.892C56.9517 47.8592 56.688 47.8798 56.4898 47.952L56.4454 47.8343C56.8909 47.6719 57.5869 47.7538 58.0852 48.0273C58.2916 48.1406 58.4398 48.2663 58.4144 48.3065C58.3891 48.3468 57.8448 48.6784 57.2049 49.0435C56.565 49.4086 55.973 49.8033 55.8893 49.9206C55.454 50.5312 55.9737 51.2696 56.7808 51.187L56.794 51.3118C56.3474 51.3575 55.9689 51.176 55.7641 50.8851C55.5577 50.592 55.5359 50.1975 55.7847 49.8486C55.8183 49.8014 55.8867 49.7439 55.9616 49.6864C56.0419 49.6249 56.1463 49.5515 56.2668 49.4711C56.508 49.3103 56.8186 49.1188 57.1407 48.935ZM62.8619 47.8277C62.6429 47.9018 61.2263 48.6838 59.714 49.5654C58.2017 50.4469 56.8817 51.1766 56.7808 51.187L56.794 51.3118C56.8205 51.3091 56.8472 51.2987 56.8612 51.2932C56.8803 51.2857 56.903 51.2757 56.9284 51.2639C56.9796 51.2401 57.0472 51.2064 57.1286 51.1642C57.2916 51.0798 57.5145 50.9594 57.7808 50.8122C58.3135 50.5177 59.0224 50.1144 59.7792 49.6733C60.5346 49.2329 61.266 48.8175 61.8355 48.5031C62.1203 48.3459 62.3642 48.2142 62.5501 48.1174C62.7406 48.0182 62.8603 47.961 62.9035 47.9463C63.1291 47.87 63.419 47.8451 63.6515 47.8818C63.8682 47.916 64.1873 48.0407 64.4399 48.1737C64.5586 48.2362 64.6553 48.2967 64.7162 48.3454C64.6702 48.3735 64.6077 48.411 64.5304 48.4571C64.3612 48.5581 64.1219 48.6996 63.83 48.8713C63.2462 49.2147 62.4527 49.6785 61.5904 50.1799C60.7275 50.6816 59.9288 51.1555 59.3372 51.515C59.0415 51.6947 58.7969 51.8461 58.6217 51.9582C58.5342 52.0142 58.4631 52.061 58.4113 52.0969C58.3855 52.1147 58.3633 52.1307 58.3459 52.1441C58.3325 52.1545 58.3103 52.172 58.2949 52.1916C58.0632 52.4868 58.0856 52.8762 58.2412 53.1774C58.3967 53.4784 58.7033 53.7259 59.0824 53.7153C59.1317 53.7139 59.191 53.6964 59.2496 53.6753C59.3125 53.6526 59.3901 53.6198 59.482 53.5776C59.666 53.493 59.9144 53.3669 60.2294 53.1985C60.8598 52.8615 61.7634 52.3513 62.965 51.6548C64.8944 50.5366 66.6769 49.4956 66.9242 49.3426C67.7767 48.8149 68.9112 48.9674 69.5333 49.6814C70.2019 50.4489 70.2356 51.4947 69.6379 52.1926C69.6253 52.2072 69.5875 52.2419 69.5161 52.2997C69.4477 52.355 69.3557 52.4259 69.2418 52.511C69.0143 52.6812 68.7027 52.9059 68.3256 53.1727C67.5714 53.7062 66.5574 54.406 65.4341 55.1698C63.1875 56.6973 60.5061 58.4791 58.5959 59.6951C55.9327 61.3905 53.7877 62.6627 52.1646 63.5107C51.3529 63.9347 50.6739 64.2515 50.1271 64.462C49.5766 64.6739 49.1729 64.7729 48.907 64.7729C48.7655 64.7729 48.4489 64.7387 47.9866 64.6737C47.528 64.6092 46.9348 64.5157 46.2464 64.3997C44.8696 64.1677 43.1139 63.8463 41.2955 63.4886C39.8308 63.2005 37.4335 62.7123 35.3586 62.2834C33.3149 61.861 31.5958 61.4984 31.3766 61.4395C31.3723 61.4299 31.3651 61.4101 31.3575 61.3726C31.336 61.2667 31.3199 61.0705 31.3099 60.7034C31.2898 59.974 31.2937 58.6066 31.3061 56.0289L31.3317 50.6483L33.1084 50.1909C34.3791 49.8639 35.4907 49.596 36.3394 49.4099C36.7639 49.3169 37.1217 49.2446 37.4004 49.1955C37.6825 49.1459 37.8745 49.1219 37.9725 49.1219C38.0161 49.1219 38.1085 49.1334 38.2538 49.1596C38.3955 49.1852 38.5785 49.2231 38.7978 49.2719C39.2361 49.3695 39.8154 49.5098 40.4911 49.6807C41.8423 50.0223 43.5756 50.4852 45.3304 50.9698C47.0853 51.4543 48.861 51.9604 50.297 52.3883C51.7372 52.8175 52.8258 53.1653 53.2141 53.334C53.5187 53.4663 53.867 53.7008 54.1632 53.9583C54.4626 54.2186 54.6913 54.4874 54.7746 54.682C55.0111 55.2351 54.9465 55.8813 54.6602 56.4401C54.374 56.9987 53.8723 57.4575 53.2537 57.6395C53.0356 57.7037 52.6925 57.7213 51.7097 57.6319C50.7334 57.5432 49.1458 57.3518 46.455 57.0126C44.4734 56.7628 43.4714 56.6367 42.9334 56.5973C42.666 56.5777 42.5002 56.5783 42.3817 56.6005C42.2519 56.6249 42.1827 56.6747 42.1135 56.7252C41.5617 57.1289 41.4871 57.9348 42.0464 58.2948C42.0843 58.3192 42.1408 58.3378 42.1975 58.3537C42.2594 58.371 42.3395 58.3897 42.4367 58.4097C42.6315 58.4499 42.9017 58.4968 43.2462 58.5506C43.9356 58.6582 44.9281 58.7939 46.221 58.9574C49.572 59.3812 51.3315 59.5968 52.4066 59.6304C52.9464 59.6473 53.3212 59.6188 53.6425 59.5451C53.964 59.4714 54.2253 59.3539 54.5356 59.2032C56.2092 58.3907 57.1496 56.6135 56.861 54.8072C56.5796 53.0453 55.1584 51.8165 52.6306 51.0515C52.328 50.96 52.0537 50.8712 51.8557 50.8022C51.8113 50.7867 51.7711 50.7724 51.7355 50.7593C51.7428 50.7544 51.7503 50.7495 51.758 50.7444C51.8826 50.6622 52.0619 50.5487 52.2794 50.4137C52.714 50.1441 53.2978 49.791 53.8935 49.4362C54.4893 49.0814 55.0964 48.7251 55.5777 48.4493C55.8184 48.3113 56.0272 48.1937 56.1871 48.1065C56.3516 48.0168 56.4543 47.9649 56.4898 47.952L56.4454 47.8343C56.105 47.9584 52.2774 50.2311 51.5932 50.7031C51.5911 50.7046 51.589 50.706 51.587 50.7075C51.5236 50.7514 51.489 50.7789 51.4889 50.7864C51.4888 50.7944 51.5296 50.8144 51.6023 50.8432C51.6048 50.8442 51.6074 50.8452 51.61 50.8462C51.7934 50.9182 52.1658 51.0422 52.593 51.1715C55.1005 51.9303 56.4644 53.134 56.7348 54.8266C57.0147 56.5785 56.1028 58.3024 54.479 59.0907C53.2434 59.6907 52.9464 59.6814 46.2373 58.8329C43.6522 58.5061 42.2732 58.2908 42.1164 58.1898C41.6513 57.8904 41.6888 57.1923 42.1898 56.8259C42.4504 56.6354 42.4705 56.6369 46.4388 57.1371C51.8189 57.8152 52.7993 57.9043 53.2903 57.7598C54.604 57.3731 55.3999 55.8199 54.8923 54.6334C54.7027 54.1903 53.9055 53.4971 53.2658 53.2192C51.6771 52.529 38.8835 48.9964 37.9725 48.9964C37.5288 48.9964 35.6192 49.4149 33.076 50.0696L31.2044 50.5514L31.1783 56.0283C31.1536 61.1814 31.1627 61.5083 31.3301 61.5569C31.6795 61.6585 38.3397 63.0351 41.2705 63.6117C44.9091 64.3274 48.2978 64.8983 48.907 64.8983C50.0716 64.8983 53.3364 63.1928 58.6654 59.8004C62.4887 57.3666 69.3958 52.6701 69.7356 52.2734C70.3784 51.5228 70.3345 50.4081 69.6303 49.5998C68.9644 48.8356 67.7588 48.6776 66.8561 49.2364C66.6109 49.3882 64.8307 50.4279 62.9001 51.5468C60.4975 52.9394 59.2918 53.5839 59.0788 53.5899C58.4462 53.6075 58.009 52.7613 58.3961 52.2682C58.4639 52.1818 59.9306 51.2907 61.6555 50.2879C63.3804 49.285 64.8303 48.4321 64.8776 48.3926C65.0056 48.2855 64.1452 47.8325 63.6718 47.7579C63.4183 47.7179 63.1071 47.7447 62.8619 47.8277Z" fill="#2A3C4A"/>
</svg>
