<svg width="92" height="92" viewBox="0 0 92 92" fill="none" xmlns="http://www.w3.org/2000/svg">
<circle cx="46" cy="46" r="46" fill="#E09907"/>
<mask id="path-2-outside-1_2199_42" maskUnits="userSpaceOnUse" x="23" y="28" width="42" height="42" fill="black">
<rect fill="white" x="23" y="28" width="42" height="42"/>
<path fill-rule="evenodd" clip-rule="evenodd" d="M30.4385 29.132C30.2236 29.2064 29.1506 29.8114 28.0542 30.4763C25.8091 31.8379 25.322 32.2487 24.82 33.2041C24.2544 34.2805 23.9225 36.2517 24.0156 37.9817C24.3423 44.0562 28.6629 51.1801 36.6462 58.8075C42.7351 64.625 48.3767 67.9955 53.4134 68.8249C55.7424 69.2083 58.3544 68.9474 59.8024 68.1865C60.7572 67.6847 61.1677 67.1977 62.5287 64.9523C63.1932 63.8559 63.7984 62.7829 63.8734 62.5679C64.0418 62.0857 64.0499 61.6585 63.9003 61.1548C63.6623 60.3532 63.5871 60.2929 59.0958 57.2957C56.789 55.7563 54.7472 54.4181 54.5585 54.3218C54.1279 54.1021 53.4223 54.0327 52.9538 54.1639C52.2535 54.3599 51.9888 54.611 50.5964 56.4C49.8636 57.3416 49.2005 58.1647 49.1227 58.2292C49.0336 58.303 48.8193 58.346 48.5437 58.3452C48.1471 58.344 48.0185 58.2937 47.1681 57.807C44.9895 56.5603 43.4352 55.3261 40.9224 52.8477C37.9987 49.9639 36.5693 48.2166 35.2714 45.9399C34.6243 44.8046 34.5174 44.4281 34.7273 44.0224C34.8025 43.8768 35.5279 43.2563 36.5802 42.4375C38.3908 41.0283 38.6443 40.7612 38.8426 40.0527C38.9738 39.5842 38.9043 38.8786 38.6847 38.448C38.5884 38.2593 37.2501 36.2175 35.7108 33.9107C32.7136 29.4194 32.6533 29.3442 31.8517 29.1062C31.3489 28.9568 30.9216 28.9647 30.4385 29.132ZM31.6196 30.4573C31.8675 30.5752 32.2803 31.1534 34.62 34.6592C36.1121 36.895 37.395 38.8444 37.4709 38.9912C37.6384 39.3154 37.5972 39.7659 37.3738 40.0498C37.2885 40.1583 36.555 40.7618 35.7439 41.3909C34.0061 42.7387 33.8144 42.9114 33.5394 43.3758C33.353 43.6905 33.331 43.8059 33.331 44.4708V45.2141L33.8737 46.1907C35.2947 48.7484 36.7207 50.5525 39.5874 53.4191C42.4489 56.2806 44.2595 57.7126 46.8024 59.1254C47.6954 59.6215 47.8073 59.6632 48.3363 59.6972C49.0335 59.7419 49.5525 59.5897 49.9952 59.2107C50.1648 59.0656 50.8781 58.2067 51.5803 57.302C52.8753 55.6335 53.1064 55.4148 53.5747 55.4148C53.6885 55.4148 53.8821 55.4668 54.0048 55.5302C54.1274 55.5936 56.0693 56.8794 58.32 58.3874C62.7339 61.3447 62.7561 61.3629 62.66 61.9555C62.5934 62.3656 60.3803 65.984 59.9135 66.4459C59.1487 67.2026 57.9826 67.5718 56.0802 67.6593C51.874 67.8529 46.6514 65.5449 41.2268 61.0953C39.0357 59.298 35.9843 56.3888 34.0388 54.2422C28.8405 48.5065 26.0389 43.5142 25.4267 38.8959C25.1962 37.1577 25.4189 35.0093 25.9388 33.9531C26.313 33.1931 26.8524 32.7517 28.9141 31.5184C29.9245 30.9141 30.804 30.4 30.8685 30.3762C31.0897 30.2944 31.3326 30.3206 31.6196 30.4573ZM46.5036 34.364C46.0328 34.5305 45.8728 35.1445 46.2163 35.4672C46.372 35.6134 46.5391 35.6487 47.3804 35.7129C48.5576 35.8028 49.3506 35.9567 50.2952 36.2789C53.4623 37.3591 56.0241 39.8058 57.2196 42.8921C57.6539 44.0134 57.9898 45.628 57.9952 46.6201C57.9981 47.1586 58.1089 47.428 58.3929 47.5874C58.6374 47.7246 58.9476 47.6595 59.1659 47.4252C59.2957 47.286 59.3244 47.1497 59.3244 46.674C59.3244 45.4802 58.9693 43.7131 58.4701 42.4231C56.8339 38.1942 52.8775 35.0658 48.4189 34.4752C47.6017 34.367 46.6514 34.3118 46.5036 34.364ZM46.2105 38.5442C45.9688 38.8056 45.9742 39.2266 46.2222 39.4597C46.3781 39.6061 46.545 39.6477 47.2071 39.7052C48.232 39.7943 49.0253 40.0117 49.9045 40.4449C51.2917 41.1283 52.4527 42.2713 53.1645 43.6544C53.6783 44.6528 54.0081 45.8983 54.0084 46.8411C54.0085 47.1539 54.0476 47.2575 54.237 47.447C54.5374 47.7473 54.8122 47.7438 55.1202 47.4357C55.3597 47.1962 55.3599 47.1951 55.3152 46.5171C55.176 44.4067 54.3043 42.4437 52.8475 40.9599C51.3093 39.3932 49.3804 38.5053 47.2854 38.3995C46.4061 38.3551 46.3826 38.3583 46.2105 38.5442ZM46.2265 42.5514C45.8577 42.9202 46.0473 43.5401 46.5588 43.6383C46.679 43.6614 46.9646 43.7034 47.1934 43.7316C47.7991 43.8063 48.5936 44.2332 49.0759 44.7432C49.5759 45.2719 49.8318 45.8138 49.9437 46.581C50.0453 47.2777 50.1308 47.4725 50.3856 47.5887C50.6699 47.7182 50.8501 47.695 51.0774 47.4994C51.3463 47.2681 51.3965 46.8554 51.2437 46.1308C50.865 44.3338 49.5739 42.9512 47.8673 42.5147C47.0051 42.2942 46.4717 42.3061 46.2265 42.5514Z"/>
</mask>
<path fill-rule="evenodd" clip-rule="evenodd" d="M30.4385 29.132C30.2236 29.2064 29.1506 29.8114 28.0542 30.4763C25.8091 31.8379 25.322 32.2487 24.82 33.2041C24.2544 34.2805 23.9225 36.2517 24.0156 37.9817C24.3423 44.0562 28.6629 51.1801 36.6462 58.8075C42.7351 64.625 48.3767 67.9955 53.4134 68.8249C55.7424 69.2083 58.3544 68.9474 59.8024 68.1865C60.7572 67.6847 61.1677 67.1977 62.5287 64.9523C63.1932 63.8559 63.7984 62.7829 63.8734 62.5679C64.0418 62.0857 64.0499 61.6585 63.9003 61.1548C63.6623 60.3532 63.5871 60.2929 59.0958 57.2957C56.789 55.7563 54.7472 54.4181 54.5585 54.3218C54.1279 54.1021 53.4223 54.0327 52.9538 54.1639C52.2535 54.3599 51.9888 54.611 50.5964 56.4C49.8636 57.3416 49.2005 58.1647 49.1227 58.2292C49.0336 58.303 48.8193 58.346 48.5437 58.3452C48.1471 58.344 48.0185 58.2937 47.1681 57.807C44.9895 56.5603 43.4352 55.3261 40.9224 52.8477C37.9987 49.9639 36.5693 48.2166 35.2714 45.9399C34.6243 44.8046 34.5174 44.4281 34.7273 44.0224C34.8025 43.8768 35.5279 43.2563 36.5802 42.4375C38.3908 41.0283 38.6443 40.7612 38.8426 40.0527C38.9738 39.5842 38.9043 38.8786 38.6847 38.448C38.5884 38.2593 37.2501 36.2175 35.7108 33.9107C32.7136 29.4194 32.6533 29.3442 31.8517 29.1062C31.3489 28.9568 30.9216 28.9647 30.4385 29.132ZM31.6196 30.4573C31.8675 30.5752 32.2803 31.1534 34.62 34.6592C36.1121 36.895 37.395 38.8444 37.4709 38.9912C37.6384 39.3154 37.5972 39.7659 37.3738 40.0498C37.2885 40.1583 36.555 40.7618 35.7439 41.3909C34.0061 42.7387 33.8144 42.9114 33.5394 43.3758C33.353 43.6905 33.331 43.8059 33.331 44.4708V45.2141L33.8737 46.1907C35.2947 48.7484 36.7207 50.5525 39.5874 53.4191C42.4489 56.2806 44.2595 57.7126 46.8024 59.1254C47.6954 59.6215 47.8073 59.6632 48.3363 59.6972C49.0335 59.7419 49.5525 59.5897 49.9952 59.2107C50.1648 59.0656 50.8781 58.2067 51.5803 57.302C52.8753 55.6335 53.1064 55.4148 53.5747 55.4148C53.6885 55.4148 53.8821 55.4668 54.0048 55.5302C54.1274 55.5936 56.0693 56.8794 58.32 58.3874C62.7339 61.3447 62.7561 61.3629 62.66 61.9555C62.5934 62.3656 60.3803 65.984 59.9135 66.4459C59.1487 67.2026 57.9826 67.5718 56.0802 67.6593C51.874 67.8529 46.6514 65.5449 41.2268 61.0953C39.0357 59.298 35.9843 56.3888 34.0388 54.2422C28.8405 48.5065 26.0389 43.5142 25.4267 38.8959C25.1962 37.1577 25.4189 35.0093 25.9388 33.9531C26.313 33.1931 26.8524 32.7517 28.9141 31.5184C29.9245 30.9141 30.804 30.4 30.8685 30.3762C31.0897 30.2944 31.3326 30.3206 31.6196 30.4573ZM46.5036 34.364C46.0328 34.5305 45.8728 35.1445 46.2163 35.4672C46.372 35.6134 46.5391 35.6487 47.3804 35.7129C48.5576 35.8028 49.3506 35.9567 50.2952 36.2789C53.4623 37.3591 56.0241 39.8058 57.2196 42.8921C57.6539 44.0134 57.9898 45.628 57.9952 46.6201C57.9981 47.1586 58.1089 47.428 58.3929 47.5874C58.6374 47.7246 58.9476 47.6595 59.1659 47.4252C59.2957 47.286 59.3244 47.1497 59.3244 46.674C59.3244 45.4802 58.9693 43.7131 58.4701 42.4231C56.8339 38.1942 52.8775 35.0658 48.4189 34.4752C47.6017 34.367 46.6514 34.3118 46.5036 34.364ZM46.2105 38.5442C45.9688 38.8056 45.9742 39.2266 46.2222 39.4597C46.3781 39.6061 46.545 39.6477 47.2071 39.7052C48.232 39.7943 49.0253 40.0117 49.9045 40.4449C51.2917 41.1283 52.4527 42.2713 53.1645 43.6544C53.6783 44.6528 54.0081 45.8983 54.0084 46.8411C54.0085 47.1539 54.0476 47.2575 54.237 47.447C54.5374 47.7473 54.8122 47.7438 55.1202 47.4357C55.3597 47.1962 55.3599 47.1951 55.3152 46.5171C55.176 44.4067 54.3043 42.4437 52.8475 40.9599C51.3093 39.3932 49.3804 38.5053 47.2854 38.3995C46.4061 38.3551 46.3826 38.3583 46.2105 38.5442ZM46.2265 42.5514C45.8577 42.9202 46.0473 43.5401 46.5588 43.6383C46.679 43.6614 46.9646 43.7034 47.1934 43.7316C47.7991 43.8063 48.5936 44.2332 49.0759 44.7432C49.5759 45.2719 49.8318 45.8138 49.9437 46.581C50.0453 47.2777 50.1308 47.4725 50.3856 47.5887C50.6699 47.7182 50.8501 47.695 51.0774 47.4994C51.3463 47.2681 51.3965 46.8554 51.2437 46.1308C50.865 44.3338 49.5739 42.9512 47.8673 42.5147C47.0051 42.2942 46.4717 42.3061 46.2265 42.5514Z" fill="white"/>
<path d="M30.4385 29.132L30.6648 29.7854L30.6648 29.7854L30.4385 29.132ZM28.0542 30.4763L27.6956 29.885L27.6956 29.885L28.0542 30.4763ZM24.82 33.2041L24.2079 32.8824L24.2079 32.8824L24.82 33.2041ZM24.0156 37.9817L24.706 37.9445L24.706 37.9445L24.0156 37.9817ZM36.6462 58.8075L37.1239 58.3075L37.1239 58.3075L36.6462 58.8075ZM53.4134 68.8249L53.301 69.5072L53.301 69.5072L53.4134 68.8249ZM59.8024 68.1865L60.1241 68.7986L60.1241 68.7986L59.8024 68.1865ZM62.5287 64.9523L63.1201 65.3107L63.1201 65.3107L62.5287 64.9523ZM63.8734 62.5679L63.2206 62.3399L63.2206 62.34L63.8734 62.5679ZM63.9003 61.1548L63.2374 61.3517L63.2374 61.3517L63.9003 61.1548ZM59.0958 57.2957L59.4796 56.7205L59.4796 56.7205L59.0958 57.2957ZM54.5585 54.3218L54.8728 53.7059L54.8727 53.7058L54.5585 54.3218ZM52.9538 54.1639L53.1402 54.8298L53.1402 54.8298L52.9538 54.1639ZM50.5964 56.4L50.0507 55.9753L50.0507 55.9753L50.5964 56.4ZM49.1227 58.2292L49.564 58.7615L49.564 58.7615L49.1227 58.2292ZM48.5437 58.3452L48.5417 59.0367H48.5418L48.5437 58.3452ZM47.1681 57.807L47.5116 57.2069L47.5116 57.2069L47.1681 57.807ZM40.9224 52.8477L41.408 52.3554L40.9224 52.8477ZM35.2714 45.9399L34.6707 46.2823L34.6707 46.2823L35.2714 45.9399ZM34.7273 44.0224L34.1131 43.7047L34.113 43.7047L34.7273 44.0224ZM36.5802 42.4375L37.0049 42.9832L37.0049 42.9832L36.5802 42.4375ZM38.8426 40.0527L38.1767 39.8663L38.1767 39.8663L38.8426 40.0527ZM38.6847 38.448L39.3006 38.1338L39.3006 38.1337L38.6847 38.448ZM35.7108 33.9107L36.286 33.5269L36.286 33.5268L35.7108 33.9107ZM31.8517 29.1062L31.6548 29.769L31.6548 29.769L31.8517 29.1062ZM31.6196 30.4573L31.3224 31.0816L31.3225 31.0817L31.6196 30.4573ZM34.62 34.6592L34.0448 35.0431L34.0448 35.0431L34.62 34.6592ZM37.4709 38.9912L38.0852 38.6737L38.0851 38.6734L37.4709 38.9912ZM37.3738 40.0498L37.9173 40.4774L37.9173 40.4773L37.3738 40.0498ZM35.7439 41.3909L35.3201 40.8445L35.3201 40.8445L35.7439 41.3909ZM33.5394 43.3758L32.9444 43.0235L32.9444 43.0235L33.5394 43.3758ZM33.331 45.2141H32.6396V45.3933L32.7266 45.55L33.331 45.2141ZM33.8737 46.1907L34.4781 45.8548L34.4781 45.8548L33.8737 46.1907ZM39.5874 53.4191L40.0763 52.9301L40.0763 52.9301L39.5874 53.4191ZM46.8024 59.1254L47.1383 58.5209L47.1383 58.5209L46.8024 59.1254ZM48.3363 59.6972L48.3806 59.0071H48.3806L48.3363 59.6972ZM49.9952 59.2107L49.5456 58.6854L49.5455 58.6855L49.9952 59.2107ZM51.5803 57.302L52.1265 57.726V57.726L51.5803 57.302ZM54.0048 55.5302L54.3226 54.916L54.3223 54.9159L54.0048 55.5302ZM58.32 58.3874L58.7049 57.8129L58.32 58.3874ZM62.66 61.9555L61.9774 61.8447L61.9774 61.8448L62.66 61.9555ZM59.9135 66.4459L60.3999 66.9374L60.3999 66.9374L59.9135 66.4459ZM56.0802 67.6593L56.1119 68.3501L56.0802 67.6593ZM41.2268 61.0953L40.7882 61.63L40.7882 61.63L41.2268 61.0953ZM34.0388 54.2422L34.5512 53.7779L34.5512 53.7778L34.0388 54.2422ZM25.4267 38.8959L26.1122 38.8051L26.1122 38.8051L25.4267 38.8959ZM25.9388 33.9531L26.5592 34.2585L26.5592 34.2585L25.9388 33.9531ZM28.9141 31.5184L28.5592 30.925L28.5591 30.925L28.9141 31.5184ZM30.8685 30.3762L31.1083 31.0248L31.1085 31.0247L30.8685 30.3762ZM46.5036 34.364L46.2732 33.7121L46.2731 33.7121L46.5036 34.364ZM46.2163 35.4672L46.6899 34.9633L46.6898 34.9631L46.2163 35.4672ZM47.3804 35.7129L47.433 35.0234L47.433 35.0234L47.3804 35.7129ZM50.2952 36.2789L50.5184 35.6244L50.5184 35.6244L50.2952 36.2789ZM57.2196 42.8921L56.5748 43.1419L56.5748 43.1419L57.2196 42.8921ZM57.9952 46.6201L58.6867 46.6164V46.6163L57.9952 46.6201ZM58.3929 47.5874L58.0543 48.1904L58.0545 48.1904L58.3929 47.5874ZM59.1659 47.4252L58.6601 46.9537L58.66 46.9539L59.1659 47.4252ZM58.4701 42.4231L59.115 42.1735L59.115 42.1735L58.4701 42.4231ZM48.4189 34.4752L48.5098 33.7897L48.5097 33.7897L48.4189 34.4752ZM46.2105 38.5442L45.7029 38.0746L45.7028 38.0747L46.2105 38.5442ZM46.2222 39.4597L45.7487 39.9636L45.7488 39.9637L46.2222 39.4597ZM47.2071 39.7052L47.1473 40.3941L47.1473 40.3941L47.2071 39.7052ZM49.9045 40.4449L49.5989 41.0652L49.5989 41.0652L49.9045 40.4449ZM53.1645 43.6544L53.7794 43.338L53.7794 43.338L53.1645 43.6544ZM54.0084 46.8411L54.6999 46.8409V46.8409L54.0084 46.8411ZM54.237 47.447L53.7481 47.9359L54.237 47.447ZM55.1202 47.4357L54.6313 46.9467L55.1202 47.4357ZM55.3152 46.5171L56.0052 46.4716V46.4716L55.3152 46.5171ZM52.8475 40.9599L52.3541 41.4444L52.3541 41.4444L52.8475 40.9599ZM47.2854 38.3995L47.2505 39.0901H47.2505L47.2854 38.3995ZM46.2265 42.5514L46.7154 43.0404L46.7155 43.0403L46.2265 42.5514ZM46.5588 43.6383L46.6892 42.9592L46.5588 43.6383ZM47.1934 43.7316L47.2781 43.0453L47.278 43.0453L47.1934 43.7316ZM49.0759 44.7432L48.5735 45.2183L48.5735 45.2183L49.0759 44.7432ZM49.9437 46.581L49.2594 46.6808L49.2594 46.6808L49.9437 46.581ZM50.3856 47.5887L50.0988 48.2179L50.0989 48.2179L50.3856 47.5887ZM51.0774 47.4994L50.6265 46.9752L50.6264 46.9752L51.0774 47.4994ZM51.2437 46.1308L50.5671 46.2734L50.5671 46.2734L51.2437 46.1308ZM47.8673 42.5147L48.0386 41.8448L48.0386 41.8448L47.8673 42.5147ZM30.2123 28.4785C30.1007 28.5172 29.9466 28.595 29.8084 28.6675C29.6519 28.7496 29.4567 28.8567 29.2373 28.9803C28.7979 29.2281 28.2492 29.5493 27.6956 29.885L28.4127 31.0675C28.9556 30.7383 29.4916 30.4246 29.9165 30.185C30.1293 30.0651 30.3112 29.9654 30.4506 29.8923C30.6083 29.8096 30.6689 29.784 30.6648 29.7854L30.2123 28.4785ZM27.6956 29.885C26.5789 30.5623 25.8502 31.0316 25.3376 31.4639C24.794 31.9225 24.4937 32.3385 24.2079 32.8824L25.4321 33.5257C25.6483 33.1143 25.8426 32.8472 26.2293 32.5211C26.647 32.1688 27.2845 31.7518 28.4128 31.0675L27.6956 29.885ZM24.2079 32.8824C23.5647 34.1064 23.228 36.2144 23.3251 38.0188L24.706 37.9445C24.6169 36.2889 24.9441 34.4545 25.4321 33.5257L24.2079 32.8824ZM23.3251 38.0188C23.6664 44.3657 28.1514 51.6478 36.1686 59.3075L37.1239 58.3075C29.1743 50.7123 25.0181 43.7468 24.706 37.9445L23.3251 38.0188ZM36.1686 59.3075C42.2989 65.1646 48.0639 68.6448 53.301 69.5072L53.5257 68.1426C48.6896 67.3462 43.1713 64.0854 37.1239 58.3075L36.1686 59.3075ZM53.301 69.5072C54.5275 69.7091 55.8237 69.7411 57.0071 69.6229C58.1811 69.5056 59.2926 69.2355 60.1241 68.7986L59.4808 67.5744C58.8642 67.8983 57.9458 68.1392 56.8696 68.2467C55.8027 68.3533 54.6283 68.3241 53.5257 68.1426L53.301 69.5072ZM60.1241 68.7986C60.6678 68.5129 61.0836 68.2127 61.5419 67.6689C61.974 67.1563 62.4431 66.4276 63.1201 65.3107L61.9374 64.5938C61.2533 65.7224 60.8366 66.3599 60.4845 66.7776C60.1586 67.1642 59.8918 67.3584 59.4807 67.5744L60.1241 68.7986ZM63.1201 65.3107C63.4555 64.7572 63.7766 64.2086 64.0244 63.7692C64.1481 63.5499 64.2552 63.3548 64.3373 63.1984C64.41 63.0601 64.4876 62.9065 64.5263 62.7958L63.2206 62.34C63.2217 62.3368 63.1955 62.398 63.1128 62.5556C63.0396 62.6951 62.9398 62.877 62.8198 63.0899C62.5801 63.5149 62.2664 64.0509 61.9374 64.5939L63.1201 65.3107ZM64.5262 62.7959C64.7439 62.1725 64.7529 61.5965 64.5632 60.9579L63.2374 61.3517C63.347 61.7205 63.3397 61.999 63.2206 62.3399L64.5262 62.7959ZM64.5632 60.958C64.5028 60.7547 64.4296 60.5105 64.2552 60.2502C64.087 59.9991 63.8518 59.7711 63.526 59.5095C62.8855 58.9949 61.7082 58.2077 59.4796 56.7205L58.712 57.8709C60.9746 59.3808 62.0806 60.1223 62.66 60.5877C62.9442 60.816 63.0531 60.9407 63.1063 61.02C63.1533 61.0902 63.1788 61.1541 63.2374 61.3517L64.5632 60.958ZM59.4796 56.7205C58.325 55.95 57.2362 55.2295 56.4119 54.6893C55.9999 54.4192 55.6529 54.1935 55.3962 54.0287C55.1607 53.8775 54.959 53.7499 54.8728 53.7059L54.2441 54.9377C54.236 54.9336 54.2614 54.9475 54.3475 55.0011C54.422 55.0475 54.5232 55.1117 54.6491 55.1925C54.9004 55.3539 55.2434 55.5769 55.6538 55.8459C56.4742 56.3837 57.5598 57.102 58.712 57.8709L59.4796 56.7205ZM54.8727 53.7058C54.5595 53.546 54.1858 53.4573 53.838 53.4231C53.4901 53.3889 53.1062 53.4031 52.7673 53.498L53.1402 54.8298C53.2698 54.7935 53.473 54.7768 53.7026 54.7994C53.9325 54.8221 54.1269 54.8779 54.2442 54.9378L54.8727 53.7058ZM52.7673 53.498C52.3248 53.6219 51.9794 53.7838 51.5587 54.1829C51.1854 54.5371 50.7374 55.0931 50.0507 55.9753L51.1421 56.8247C51.8478 55.918 52.2283 55.454 52.5105 55.1863C52.7453 54.9636 52.8824 54.9019 53.1402 54.8298L52.7673 53.498ZM50.0507 55.9753C49.6861 56.4438 49.3396 56.8818 49.0755 57.2097C48.9431 57.3739 48.8331 57.5084 48.7526 57.6045C48.7121 57.6529 48.6815 57.6886 48.6605 57.7124C48.6244 57.7532 48.642 57.7295 48.6813 57.6969L49.564 58.7615C49.6228 58.7127 49.6782 58.6492 49.6961 58.629C49.7291 58.5917 49.7688 58.5451 49.8128 58.4926C49.9014 58.3868 50.0176 58.2446 50.1524 58.0773C50.4224 57.7421 50.7739 57.2978 51.1421 56.8247L50.0507 55.9753ZM48.6814 57.6968C48.7093 57.6736 48.7335 57.6588 48.7493 57.6501C48.7653 57.6412 48.7769 57.6364 48.7821 57.6343C48.7915 57.6307 48.7881 57.633 48.7673 57.6372C48.7249 57.6456 48.6505 57.654 48.5457 57.6537L48.5418 59.0367C48.7125 59.0372 48.883 59.0244 49.039 58.9932C49.1724 58.9664 49.3855 58.9095 49.564 58.7615L48.6814 57.6968ZM48.5458 57.6537C48.3969 57.6533 48.3586 57.6457 48.2781 57.6142C48.1473 57.563 47.9503 57.4579 47.5116 57.2069L46.8247 58.4072C47.2364 58.6428 47.5289 58.8062 47.7742 58.9021C48.0697 59.0177 48.294 59.0359 48.5417 59.0367L48.5458 57.6537ZM47.5116 57.2069C45.401 55.9991 43.894 54.8074 41.408 52.3554L40.4369 53.34C42.9764 55.8448 44.578 57.1215 46.8247 58.4072L47.5116 57.2069ZM41.408 52.3554C38.5069 49.4939 37.1262 47.7972 35.8722 45.5974L34.6707 46.2823C36.0124 48.6359 37.4904 50.4339 40.4369 53.34L41.408 52.3554ZM35.8722 45.5974C35.5454 45.0241 35.3986 44.714 35.3432 44.5188C35.319 44.4335 35.3212 44.3987 35.3218 44.3922C35.322 44.3895 35.322 44.3776 35.3415 44.34L34.113 43.7047C33.9205 44.0771 33.8876 44.4554 34.0128 44.8964C34.1201 45.2746 34.3504 45.7204 34.6707 46.2823L35.8722 45.5974ZM35.3415 44.34C35.3077 44.4054 35.2757 44.4351 35.3005 44.4073C35.3138 44.3925 35.339 44.3662 35.38 44.3268C35.4612 44.2487 35.5804 44.1417 35.7368 44.0079C36.0482 43.7416 36.4836 43.3888 37.0049 42.9832L36.1555 41.8917C35.6245 42.305 35.1711 42.6719 34.8379 42.9569C34.672 43.0988 34.53 43.2254 34.4211 43.3302C34.3671 43.3822 34.3151 43.4347 34.2702 43.4848C34.2368 43.5221 34.1657 43.603 34.1131 43.7047L35.3415 44.34ZM37.0049 42.9832C37.8979 42.2882 38.4599 41.8353 38.8176 41.4583C39.2204 41.0338 39.3835 40.6857 39.5085 40.2391L38.1767 39.8663C38.1034 40.1283 38.0406 40.268 37.8143 40.5064C37.5431 40.7923 37.0731 41.1776 36.1555 41.8918L37.0049 42.9832ZM39.5085 40.2392C39.6034 39.9003 39.6176 39.5164 39.5834 39.1684C39.5491 38.8207 39.4604 38.447 39.3006 38.1338L38.0687 38.7622C38.1286 38.8796 38.1844 39.074 38.207 39.3039C38.2296 39.5335 38.213 39.7367 38.1767 39.8663L39.5085 40.2392ZM39.3006 38.1337C39.2566 38.0475 39.1289 37.8458 38.9778 37.6103C38.813 37.3536 38.5872 37.0065 38.3172 36.5946C37.7769 35.7702 37.0565 34.6815 36.286 33.5269L35.1356 34.2945C35.9045 35.4467 36.6228 36.5322 37.1605 37.3527C37.4295 37.7631 37.6526 38.106 37.8139 38.3574C37.8947 38.4833 37.959 38.5845 38.0054 38.659C38.059 38.7451 38.0729 38.7704 38.0688 38.7623L39.3006 38.1337ZM36.286 33.5268C34.7987 31.2982 34.0115 30.121 33.497 29.4804C33.2354 29.1547 33.0073 28.9195 32.7563 28.7513C32.496 28.5769 32.2517 28.5036 32.0485 28.4433L31.6548 29.769C31.8524 29.8277 31.9163 29.8532 31.9864 29.9002C32.0658 29.9533 32.1905 30.0623 32.4188 30.3465C32.8841 30.9259 33.6257 32.0319 35.1356 34.2945L36.286 33.5268ZM32.0485 28.4433C31.411 28.254 30.8356 28.2627 30.2122 28.4786L30.6648 29.7854C31.0076 29.6667 31.2868 29.6597 31.6548 29.769L32.0485 28.4433ZM31.3225 31.0817C31.2551 31.0496 31.2523 31.0218 31.3441 31.1265C31.4303 31.2249 31.5618 31.3944 31.7726 31.6896C32.1915 32.2763 32.8729 33.2869 34.0448 35.0431L35.1952 34.2754C34.0274 32.5256 33.3325 31.4943 32.8981 30.886C32.6823 30.5837 32.5179 30.3674 32.3839 30.2147C32.2555 30.0683 32.1081 29.9239 31.9168 29.8329L31.3225 31.0817ZM34.0448 35.0431C34.7903 36.1601 35.4832 37.2051 35.9989 37.9887C36.2569 38.3807 36.4699 38.7064 36.6228 38.9425C36.7905 39.2017 36.8578 39.3109 36.8567 39.3089L38.0851 38.6734C38.0461 38.5981 37.9245 38.4085 37.7838 38.1911C37.6281 37.9506 37.4129 37.6216 37.1542 37.2285C36.6365 36.4418 35.9419 35.3942 35.1952 34.2754L34.0448 35.0431ZM36.8566 39.3086C36.9014 39.3953 36.8839 39.5542 36.8303 39.6223L37.9173 40.4773C38.3105 39.9775 38.3755 39.2354 38.0852 38.6737L36.8566 39.3086ZM36.8304 39.6223C36.8577 39.5875 36.853 39.5991 36.7421 39.696C36.6559 39.7714 36.5367 39.8718 36.3917 39.9912C36.1022 40.2293 35.7214 40.5333 35.3201 40.8445L36.1676 41.9373C36.5775 41.6195 36.9689 41.3071 37.2704 41.0591C37.4207 40.9354 37.5516 40.8253 37.6523 40.7373C37.7283 40.6709 37.8472 40.5664 37.9173 40.4774L36.8304 39.6223ZM35.3201 40.8445C33.6242 42.1598 33.302 42.4195 32.9444 43.0235L34.1344 43.7281C34.3268 43.4032 34.388 43.3177 36.1677 41.9373L35.3201 40.8445ZM32.9444 43.0235C32.8354 43.2076 32.7368 43.3958 32.686 43.6627C32.6429 43.8894 32.6396 44.1515 32.6396 44.4708H34.0225C34.0225 44.1252 34.0302 43.9972 34.0446 43.9213C34.0514 43.8855 34.057 43.8588 34.1344 43.7281L32.9444 43.0235ZM32.6396 44.4708V45.2141H34.0225V44.4708H32.6396ZM32.7266 45.55L33.2692 46.5265L34.4781 45.8548L33.9355 44.8782L32.7266 45.55ZM33.2692 46.5265C34.7308 49.1573 36.2024 51.0121 39.0984 53.9081L40.0763 52.9301C37.239 50.0928 35.8585 48.3395 34.4781 45.8548L33.2692 46.5265ZM39.0984 53.9081C41.9891 56.7987 43.8504 58.2763 46.4666 59.7298L47.1383 58.5209C44.6686 57.1488 42.9087 55.7626 40.0763 52.9301L39.0984 53.9081ZM46.4666 59.7298C46.8988 59.9699 47.1995 60.1338 47.4643 60.2325C47.7671 60.3454 48.0091 60.3691 48.2921 60.3872L48.3806 59.0071C48.1345 58.9913 48.0561 58.9772 47.9474 58.9366C47.8007 58.882 47.599 58.7769 47.1383 58.5209L46.4666 59.7298ZM48.2921 60.3872C49.1309 60.441 49.8388 60.2549 50.4449 59.736L49.5455 58.6855C49.2662 58.9245 48.9361 59.0427 48.3806 59.0071L48.2921 60.3872ZM50.4448 59.7361C50.5299 59.6633 50.6374 59.5455 50.7338 59.4364C50.8419 59.3141 50.9739 59.1589 51.12 58.983C51.4128 58.6304 51.7714 58.1835 52.1265 57.726L51.034 56.878C50.687 57.3251 50.3379 57.76 50.0561 58.0994C49.9149 58.2694 49.7928 58.4127 49.6976 58.5206C49.5906 58.6416 49.5453 58.6856 49.5456 58.6854L50.4448 59.7361ZM52.1265 57.726C52.7857 56.8768 53.1317 56.4537 53.3628 56.235C53.4702 56.1334 53.5162 56.1123 53.522 56.1098C53.5234 56.1092 53.5229 56.1093 53.525 56.109C53.529 56.1083 53.5426 56.1063 53.5747 56.1063V54.7234C53.3974 54.7234 53.1943 54.7448 52.9733 54.8403C52.7636 54.931 52.5831 55.0688 52.4123 55.2305C52.087 55.5382 51.6699 56.0588 51.034 56.878L52.1265 57.726ZM53.5747 56.1063C53.5548 56.1063 53.5494 56.1045 53.5618 56.1065C53.5721 56.1082 53.5878 56.1114 53.6073 56.1166C53.6266 56.1218 53.6453 56.1278 53.6614 56.1338C53.6693 56.1367 53.6757 56.1393 53.6805 56.1413C53.6853 56.1435 53.6875 56.1446 53.6872 56.1444L54.3223 54.9159C54.2057 54.8556 54.0776 54.8109 53.9655 54.7808C53.8591 54.7523 53.7168 54.7234 53.5747 54.7234V56.1063ZM53.6869 56.1443C53.6772 56.1392 53.778 56.2018 54.0363 56.3704C54.2689 56.5222 54.592 56.735 54.9826 56.9936C55.7635 57.5107 56.8105 58.2084 57.9352 58.9619L58.7049 57.8129C57.5788 57.0584 56.5296 56.3592 55.7461 55.8405C55.3545 55.5812 55.0285 55.3665 54.7922 55.2122C54.5816 55.0748 54.3936 54.9528 54.3226 54.916L53.6869 56.1443ZM57.9352 58.9619C60.1628 60.4544 61.2307 61.1719 61.7421 61.5924C62.0066 61.8098 62.0231 61.8719 62.0098 61.8414C61.9758 61.7638 62.0035 61.6837 61.9774 61.8447L63.3425 62.0662C63.3645 61.931 63.4255 61.6264 63.2765 61.2863C63.1481 60.9933 62.9012 60.7549 62.6204 60.5241C62.0413 60.0479 60.8912 59.2777 58.7049 57.8129L57.9352 58.9619ZM61.9774 61.8448C61.9866 61.7881 62.0002 61.7649 61.9827 61.808C61.9708 61.8373 61.9507 61.8821 61.9204 61.9443C61.8602 62.0677 61.7731 62.2326 61.6637 62.4298C61.4458 62.8226 61.1537 63.3189 60.8469 63.8205C60.5403 64.3217 60.2229 64.8221 59.9551 65.2231C59.821 65.4239 59.702 65.5958 59.6047 65.7288C59.5561 65.7954 59.5151 65.849 59.482 65.8901C59.4656 65.9105 59.4524 65.9262 59.4422 65.9378C59.4315 65.95 59.4268 65.9547 59.4271 65.9544L60.3999 66.9374C60.577 66.7622 60.8437 66.3829 61.1053 65.9911C61.3859 65.5709 61.7134 65.0544 62.0267 64.5421C62.3399 64.03 62.6427 63.5159 62.8731 63.1006C62.9879 62.8937 63.0882 62.7049 63.1636 62.5502C63.2011 62.4732 63.2358 62.3978 63.2639 62.3288C63.2863 62.2737 63.325 62.1742 63.3425 62.0662L61.9774 61.8448ZM59.4271 65.9544C58.8483 66.5271 57.8992 66.8834 56.0484 66.9686L56.1119 68.3501C58.0659 68.2602 59.4491 67.8782 60.3999 66.9374L59.4271 65.9544ZM56.0484 66.9686C52.0953 67.1505 47.0398 64.9692 41.6653 60.5607L40.7882 61.63C46.263 66.1207 51.6527 68.5553 56.1119 68.3501L56.0484 66.9686ZM41.6653 60.5607C39.5011 58.7854 36.4743 55.8997 34.5512 53.7779L33.5265 54.7066C35.4942 56.8778 38.5703 59.8106 40.7882 61.63L41.6653 60.5607ZM34.5512 53.7778C29.3908 48.084 26.6974 43.2193 26.1122 38.8051L24.7412 38.9868C25.3804 43.809 28.2902 48.929 33.5265 54.7066L34.5512 53.7778ZM26.1122 38.8051C26.0049 37.9959 26.0022 37.079 26.0892 36.24C26.1775 35.3878 26.3517 34.6801 26.5592 34.2585L25.3184 33.6477C25.006 34.2823 24.8089 35.177 24.7136 36.0975C24.6168 37.0313 24.618 38.0578 24.7412 38.9868L26.1122 38.8051ZM26.5592 34.2585C26.8292 33.7101 27.1788 33.3622 29.2691 32.1119L28.5591 30.925C26.526 32.1412 25.7967 32.6762 25.3184 33.6477L26.5592 34.2585ZM29.2691 32.1119C29.7728 31.8106 30.2432 31.5322 30.595 31.3266C30.7711 31.2237 30.9159 31.1399 31.0197 31.0809C31.0719 31.0513 31.1113 31.0293 31.138 31.0147C31.1898 30.9865 31.1585 31.0062 31.1083 31.0248L30.6287 29.7276C30.5624 29.7521 30.4895 29.7931 30.477 29.7999C30.4393 29.8205 30.3914 29.8473 30.3364 29.8786C30.2255 29.9416 30.0752 30.0285 29.8971 30.1326C29.5404 30.3411 29.0659 30.6219 28.5592 30.925L29.2691 32.1119ZM31.1085 31.0247C31.1139 31.0227 31.1219 31.0198 31.1451 31.0223C31.1734 31.0254 31.23 31.0376 31.3224 31.0816L31.9168 29.8329C31.5221 29.645 31.0791 29.561 30.6285 29.7277L31.1085 31.0247ZM46.2731 33.7121C45.3947 34.0227 44.9611 35.2369 45.7429 35.9712L46.6898 34.9631C46.6969 34.9699 46.7042 34.9788 46.7103 34.9894C46.7162 34.9998 46.7197 35.0094 46.7216 35.017C46.7251 35.0313 46.7225 35.0361 46.7238 35.0313C46.725 35.0268 46.7277 35.0218 46.7305 35.0186C46.7322 35.0167 46.7327 35.0165 46.7342 35.0159L46.2731 33.7121ZM45.7428 35.9711C45.9296 36.1466 46.1325 36.2412 46.3984 36.2974C46.618 36.3437 46.9181 36.3711 47.3278 36.4024L47.433 35.0234C47.0014 34.9905 46.7973 34.9681 46.684 34.9442C46.6359 34.934 46.6332 34.9291 46.6502 34.9375C46.6593 34.9419 46.6693 34.9478 46.6787 34.9545C46.6875 34.9609 46.6917 34.965 46.6899 34.9633L45.7428 35.9711ZM47.3277 36.4023C48.4572 36.4886 49.1915 36.633 50.072 36.9333L50.5184 35.6244C49.5096 35.2803 48.6581 35.1169 47.433 35.0234L47.3277 36.4023ZM50.0719 36.9333C53.0481 37.9484 55.4541 40.2486 56.5748 43.1419L57.8644 42.6424C56.5942 39.3631 53.8765 36.7698 50.5184 35.6244L50.0719 36.9333ZM56.5748 43.1419C56.985 44.2008 57.2989 45.7316 57.3038 46.6238L58.6867 46.6163C58.6808 45.5243 58.3229 43.826 57.8644 42.6424L56.5748 43.1419ZM57.3037 46.6238C57.3054 46.9272 57.3357 47.2331 57.4491 47.5089C57.5745 47.8138 57.7827 48.0378 58.0543 48.1904L58.7315 46.9845C58.7174 46.9766 58.7192 46.9754 58.7258 46.9827C58.7328 46.9905 58.7327 46.9939 58.7282 46.983C58.7144 46.9495 58.688 46.8516 58.6867 46.6164L57.3037 46.6238ZM58.0545 48.1904C58.6286 48.5127 59.2793 48.318 59.6719 47.8966L58.66 46.9539C58.64 46.9753 58.6319 46.9721 58.6472 46.9689C58.6549 46.9673 58.6675 46.966 58.6837 46.9683C58.7002 46.9707 58.7168 46.9763 58.7313 46.9844L58.0545 48.1904ZM59.6717 47.8967C59.8188 47.7389 59.92 47.5576 59.9704 47.3186C60.0107 47.128 60.0159 46.9074 60.0159 46.674H58.633C58.633 46.7878 58.6312 46.8703 58.6276 46.9326C58.6239 46.9957 58.6191 47.024 58.6173 47.033C58.6162 47.038 58.6195 47.0205 58.6335 46.9939C58.6477 46.967 58.6615 46.9522 58.6601 46.9537L59.6717 47.8967ZM60.0159 46.674C60.0159 45.3825 59.6402 43.5307 59.115 42.1735L57.8252 42.6726C58.2984 43.8955 58.633 45.578 58.633 46.674H60.0159ZM59.115 42.1735C57.3885 37.7115 53.2213 34.4138 48.5098 33.7897L48.3281 35.1607C52.5336 35.7178 56.2792 38.677 57.8252 42.6726L59.115 42.1735ZM48.5097 33.7897C48.084 33.7333 47.6252 33.6909 47.2503 33.6691C47.0635 33.6583 46.8898 33.6521 46.7476 33.6527C46.6771 33.6529 46.606 33.6549 46.5407 33.66C46.495 33.6636 46.3845 33.6727 46.2732 33.7121L46.7341 35.016C46.6597 35.0423 46.6112 35.0417 46.649 35.0387C46.6671 35.0373 46.7009 35.0358 46.753 35.0356C46.8561 35.0352 46.9988 35.0398 47.1702 35.0498C47.5116 35.0696 47.9366 35.1089 48.3282 35.1607L48.5097 33.7897ZM45.7028 38.0747C45.2231 38.5934 45.203 39.451 45.7487 39.9636L46.6957 38.9557C46.7092 38.9684 46.7169 38.9815 46.7206 38.9905C46.7241 38.9988 46.7241 39.0034 46.7241 39.0037C46.7241 39.0041 46.7241 39.0043 46.7238 39.0051C46.7233 39.0065 46.7217 39.0099 46.7181 39.0138L45.7028 38.0747ZM45.7488 39.9637C46.1107 40.3037 46.5441 40.3417 47.1473 40.3941L47.267 39.0163C46.929 38.987 46.775 38.9655 46.6921 38.9448C46.6594 38.9367 46.6588 38.9334 46.6725 38.9407C46.6891 38.9495 46.6989 38.9587 46.6956 38.9557L45.7488 39.9637ZM47.1473 40.3941C48.091 40.4761 48.8004 40.6718 49.5989 41.0652L50.2101 39.8246C49.2501 39.3517 48.373 39.1124 47.267 39.0163L47.1473 40.3941ZM49.5989 41.0652C50.8522 41.6826 51.9053 42.7187 52.5497 43.9708L53.7794 43.338C53.0002 41.8239 51.7311 40.5739 50.2101 39.8246L49.5989 41.0652ZM52.5497 43.9708C53.0227 44.89 53.3167 46.0276 53.3169 46.8413L54.6999 46.8409C54.6996 45.769 54.3339 44.4156 53.7794 43.338L52.5497 43.9708ZM53.3169 46.8413C53.317 47.0106 53.3244 47.2215 53.4047 47.4344C53.4902 47.6609 53.6299 47.8178 53.7481 47.9359L54.726 46.958C54.7089 46.941 54.6973 46.9286 54.6894 46.9197C54.6815 46.9109 54.6786 46.9069 54.6786 46.9069C54.6806 46.9096 54.6904 46.9241 54.6987 46.9462C54.7064 46.9665 54.7061 46.9756 54.7043 46.9606C54.7022 46.9425 54.6999 46.9077 54.6999 46.8409L53.3169 46.8413ZM53.7481 47.9359C53.9641 48.1519 54.2771 48.3661 54.6845 48.3609C55.0867 48.3558 55.3952 48.1387 55.6092 47.9247L54.6313 46.9467C54.588 46.99 54.5678 47.0002 54.5716 46.9982C54.5792 46.9942 54.6134 46.9787 54.6669 46.9781C54.6921 46.9777 54.7153 46.9809 54.7349 46.9858C54.7542 46.9906 54.7668 46.9963 54.7723 46.9991C54.7813 47.0037 54.7654 46.9974 54.726 46.958L53.7481 47.9359ZM55.6092 47.9247C55.704 47.8298 55.927 47.6315 56.0007 47.2845C56.0302 47.1455 56.0314 47.0086 56.0286 46.8954C56.0256 46.779 56.016 46.6354 56.0052 46.4716L54.6252 46.5626C54.6368 46.7379 54.6439 46.8487 54.646 46.9306C54.6482 47.0158 54.6428 47.0213 54.6479 46.9973C54.6515 46.9803 54.6585 46.9561 54.671 46.929C54.6834 46.9022 54.6961 46.8833 54.7031 46.8739C54.7087 46.8664 54.709 46.8672 54.6956 46.8814C54.6814 46.8965 54.6632 46.9149 54.6313 46.9467L55.6092 47.9247ZM56.0052 46.4716C55.8553 44.1992 54.9158 42.0795 53.3409 40.4755L52.3541 41.4444C53.6928 42.8079 54.4967 44.6142 54.6252 46.5627L56.0052 46.4716ZM53.3409 40.4755C51.6874 38.7913 49.5972 37.8239 47.3203 37.7089L47.2505 39.0901C49.1635 39.1867 50.9312 39.9951 52.3541 41.4444L53.3409 40.4755ZM47.3203 37.7089C46.9199 37.6887 46.6086 37.6708 46.3905 37.7002C46.2493 37.7192 46.0999 37.7613 45.954 37.8549C45.8287 37.9353 45.739 38.0356 45.7029 38.0746L46.7181 39.0138C46.768 38.9599 46.7458 38.99 46.7008 39.0189C46.6725 39.0371 46.6427 39.0511 46.6147 39.0605C46.5891 39.0691 46.5734 39.071 46.575 39.0708C46.5866 39.0692 46.6317 39.0656 46.7543 39.0685C46.8717 39.0713 47.028 39.0789 47.2505 39.0901L47.3203 37.7089ZM45.7376 42.0624C44.978 42.8219 45.37 44.1143 46.4285 44.3174L46.6892 42.9592C46.689 42.9592 46.6986 42.9619 46.7089 42.9714C46.7175 42.9794 46.7218 42.9876 46.7238 42.9941C46.7258 43.0007 46.7268 43.0097 46.7242 43.0206C46.7211 43.0338 46.7149 43.0409 46.7154 43.0404L45.7376 42.0624ZM46.4285 44.3174C46.5717 44.3449 46.8754 44.3891 47.1087 44.4179L47.278 43.0453C47.0537 43.0176 46.7863 42.9779 46.6892 42.9592L46.4285 44.3174ZM47.1087 44.4179C47.5313 44.47 48.1842 44.8067 48.5735 45.2183L49.5783 44.268C49.003 43.6598 48.0668 43.1426 47.2781 43.0453L47.1087 44.4179ZM48.5735 45.2183C48.9692 45.6368 49.1667 46.0447 49.2594 46.6808L50.6279 46.4812C50.4969 45.5829 50.1827 44.9071 49.5783 44.268L48.5735 45.2183ZM49.2594 46.6808C49.3094 47.023 49.3657 47.3335 49.4739 47.5803C49.6108 47.8923 49.8226 48.092 50.0988 48.2179L50.6724 46.9595C50.6636 46.9555 50.6855 46.9644 50.7126 46.9915C50.7396 47.0185 50.7463 47.0381 50.7405 47.0248C50.7324 47.0064 50.7159 46.9608 50.6947 46.8658C50.6739 46.7721 50.6523 46.6486 50.6279 46.4812L49.2594 46.6808ZM50.0989 48.2179C50.2984 48.3088 50.5519 48.3891 50.8414 48.3518C51.1353 48.3138 51.3598 48.1687 51.5284 48.0236L50.6264 46.9752C50.5973 47.0003 50.5877 47.004 50.5949 47.0003C50.5991 46.9981 50.6078 46.994 50.6205 46.9899C50.6334 46.9858 50.6483 46.9822 50.6644 46.9802C50.6805 46.9781 50.6949 46.9778 50.7066 46.9784C50.718 46.9791 50.7251 46.9804 50.727 46.9808C50.729 46.9813 50.713 46.978 50.6723 46.9594L50.0989 48.2179ZM51.5283 48.0236C52.1252 47.5102 52.0722 46.7086 51.9204 45.9881L50.5671 46.2734C50.6373 46.6065 50.6459 46.8045 50.6323 46.9166C50.6212 47.0074 50.6031 46.9953 50.6265 46.9752L51.5283 48.0236ZM51.9204 45.9882C51.4902 43.9475 50.0138 42.35 48.0386 41.8448L47.6959 43.1846C49.1341 43.5525 50.2397 44.7202 50.5671 46.2734L51.9204 45.9882ZM48.0386 41.8448C47.5807 41.7277 47.1623 41.659 46.8001 41.6671C46.4456 41.675 46.0402 41.7597 45.7375 42.0626L46.7155 43.0403C46.658 43.0979 46.642 43.0539 46.831 43.0497C47.0123 43.0457 47.2917 43.0813 47.696 43.1846L48.0386 41.8448Z" fill="white" mask="url(#path-2-outside-1_2199_42)"/>
</svg>
