<svg id="SvgjsSvg1026" width="288" height="288" xmlns="http://www.w3.org/2000/svg" version="1.1" xmlns:xlink="http://www.w3.org/1999/xlink" xmlns:svgjs="http://svgjs.com/svgjs"><defs id="SvgjsDefs1027"></defs><g id="SvgjsG1028"><svg xmlns="http://www.w3.org/2000/svg" width="288" height="288" fill="none" viewBox="0 0 92 92"><circle cx="46" cy="46" r="46" fill="#25cf94" class="color25cf94 svgShape"></circle><mask id="a" width="46" height="47" x="20.996" y="27.867" fill="#000" maskUnits="userSpaceOnUse"><rect width="46" height="47" x="20.996" y="27.867" fill="#ffffff" class="colorfff svgShape"></rect><path fill-rule="evenodd" d="M26.487 28.9274C25.906 29.0139 25.019 29.3396 24.5125 29.6525C23.9707 29.9871 23.1026 30.8609 22.7683 31.4078C22.6097 31.6674 22.371 32.1878 22.238 32.5642L21.9961 33.2487V37.446C21.9961 42.1239 21.9946 42.1088 22.5764 43.3051C23.1765 44.5393 24.2131 45.4314 25.6988 45.9925C26.1813 46.1748 26.3077 46.18 30.8406 46.2069L35.4877 46.2345V45.6736V45.1127H31.2001C26.4037 45.1127 26.1427 45.0878 25.2378 44.5457C24.4743 44.0882 23.9581 43.5334 23.5738 42.757C23.0885 41.7766 23.0443 41.2536 23.0899 37.031C23.1258 33.6991 23.1382 33.4739 23.3148 32.9283C23.8202 31.366 25.1827 30.2454 26.8359 30.0323C27.5696 29.9376 60.3793 29.9365 61.1002 30.031C62.7554 30.2481 64.1077 31.3596 64.625 32.9283C64.8068 33.4794 64.817 33.666 64.8489 37.0392C64.8694 39.2074 64.8473 40.8624 64.7919 41.3223C64.5693 43.1686 63.2358 44.6477 61.4601 45.018C61.1534 45.082 59.0346 45.1127 54.9284 45.1127H48.8507V45.6725V46.2324L55.2967 46.2071C61.6956 46.1819 61.7463 46.1803 62.2373 45.9937C63.728 45.4272 64.7599 44.5387 65.3598 43.3051C65.9415 42.1088 65.94 42.1239 65.94 37.446V33.2487L65.6982 32.5634C65.3831 31.6703 65.0576 31.1436 64.4113 30.481C63.7729 29.8265 63.1648 29.443 62.2558 29.1219L61.5713 28.88L44.2679 28.8681C34.751 28.8617 26.7496 28.8884 26.487 28.9274ZM30.1565 34.7474C29.1778 35.0421 28.724 36.023 29.1413 36.942C29.332 37.3618 29.6784 37.6392 30.4406 37.9823C31.2587 38.3504 31.5056 38.6788 31.3227 39.1554C31.1614 39.576 30.2259 39.6657 29.5045 39.3298C29.2526 39.2125 29.0116 39.1381 28.9691 39.1644C28.9266 39.1907 28.8918 39.3839 28.8918 39.5939C28.8918 39.932 28.9233 39.9947 29.168 40.1435C29.6214 40.4192 30.3068 40.5254 30.9423 40.4184C31.9589 40.2472 32.5288 39.6226 32.5293 38.6794C32.5296 37.9331 32.2857 37.6367 31.197 37.0606C30.2717 36.5708 30.0497 36.338 30.1482 35.9607C30.2078 35.7331 30.5862 35.5179 30.9219 35.5207C31.0539 35.5218 31.3819 35.6132 31.651 35.7239C31.9201 35.8346 32.1609 35.9043 32.1864 35.879C32.3006 35.7647 32.2248 35.11 32.0826 34.9836C31.7657 34.702 30.7295 34.5749 30.1565 34.7474ZM37.3979 34.816C36.1411 35.266 35.5634 36.144 35.5527 37.6208C35.5456 38.5863 35.739 39.122 36.2959 39.6788C36.8858 40.2688 37.3962 40.4444 38.4858 40.4324C39.0376 40.4263 39.4512 40.3717 39.7707 40.2625L40.2418 40.1015L40.2655 38.7424C40.2819 37.797 40.2585 37.3464 40.1886 37.2622C40.11 37.1675 39.8624 37.1464 39.0514 37.1651L38.0146 37.1891L37.9885 37.5959L37.9624 38.0028H38.5702H39.178L39.1531 38.7065L39.1282 39.4102L38.7937 39.4891C38.3841 39.5858 37.7186 39.4488 37.3612 39.1943C37.0113 38.9451 36.757 38.3982 36.7088 37.7912C36.6342 36.8517 36.9643 36.1349 37.6299 35.791C37.9575 35.6216 38.11 35.5973 38.6571 35.627C39.0827 35.6502 39.4279 35.7245 39.6797 35.8473C40.2514 36.126 40.2978 36.1052 40.2677 35.5829C40.2422 35.1388 40.2366 35.1306 39.8283 34.9282C39.2522 34.6425 38.0388 34.5866 37.3979 34.816ZM33.4926 34.8011C33.4592 34.8346 33.4318 36.0883 33.4318 37.5872V40.3124L33.6327 40.3629C33.7432 40.3905 33.9841 40.4009 34.168 40.3859L34.5026 40.3585V37.5745V34.7906L34.028 34.7654C33.767 34.7516 33.5261 34.7676 33.4926 34.8011ZM41.6185 34.8823C41.502 34.9989 41.4839 35.3712 41.4839 37.6571C41.4839 40.5507 41.4559 40.4013 41.9979 40.4013C42.5334 40.4013 42.5113 40.4956 42.5177 38.1864C42.5221 36.5666 42.5455 36.1253 42.6183 36.2896C43.01 37.1737 44.6282 40.0939 44.8024 40.2309C44.9485 40.3458 45.1495 40.4013 45.4195 40.4013C46.1488 40.4013 46.1153 40.5471 46.0895 37.4889L46.0667 34.7906H45.5956H45.1245V36.7822C45.1245 37.8777 45.1154 38.7739 45.1042 38.7739C45.093 38.7738 45.025 38.6328 44.953 38.4604C44.6419 37.7156 43.0851 34.911 42.9397 34.8331C42.6788 34.6935 41.7736 34.7272 41.6185 34.8823ZM49.3995 34.8662C49.3727 34.9361 49.3636 35.8921 49.3792 36.9906C49.4055 38.8224 49.4231 39.0212 49.593 39.3889C49.944 40.1491 50.8757 40.5684 51.9621 40.4548C52.9676 40.3497 53.6132 39.856 53.8613 39.0026C53.9667 38.6401 53.9891 38.1625 53.9707 36.6687L53.9475 34.7906H53.4336H52.9196L52.8768 36.7607C52.84 38.4497 52.8118 38.7716 52.6784 39.0161C52.2969 39.7152 51.1135 39.7104 50.6887 39.008C50.5392 38.7608 50.5165 38.5188 50.4783 36.7607L50.4354 34.7906L49.9419 34.7649C49.5674 34.7453 49.4365 34.7697 49.3995 34.8662ZM55.2832 34.9041C55.2214 35.0198 55.1896 35.9661 55.1896 37.6957V40.3124L55.3905 40.3629C55.501 40.3905 55.7419 40.4009 55.9259 40.3859L56.2604 40.3585L56.2844 39.4069L56.3086 38.4552L56.9721 38.4098C58.0568 38.3354 58.6853 37.9359 58.9469 37.1549C59.1496 36.5492 59.0112 35.7368 58.6342 35.3199C58.2629 34.9093 57.8637 34.8007 56.5896 34.764C55.4375 34.7308 55.3722 34.7378 55.2832 34.9041ZM57.3699 35.7255C57.7305 35.8762 57.8451 36.0829 57.8451 36.5824C57.8451 36.8884 57.7934 37.03 57.605 37.2409C57.39 37.4815 57.3117 37.5108 56.8555 37.5206L56.346 37.5317L56.3214 36.6812C56.3077 36.2134 56.3161 35.7798 56.34 35.7175C56.398 35.5664 57 35.5711 57.3699 35.7255ZM41.0919 42.4621C40.4583 42.7059 39.9939 43.1445 39.6672 43.8081L39.3852 44.3808L39.3617 52.6275C39.3488 57.1632 39.3157 60.8742 39.2883 60.8742C39.2608 60.8742 38.886 60.6298 38.4552 60.3311C36.811 59.191 33.7825 57.2717 33.4328 57.1483C32.2321 56.7247 30.8418 57.3284 30.2502 58.5302C30.0065 59.0253 29.9678 59.191 29.9738 59.7117C29.9811 60.3353 30.1139 60.7678 30.4374 61.222C30.5361 61.3608 32.3778 63.0826 34.53 65.0484C36.6821 67.0141 39.0404 69.2042 39.7707 69.9152C41.513 71.6116 42.3259 72.1778 43.9252 72.8091C44.3493 72.9765 45.1009 73.2014 45.5956 73.309C46.4427 73.4933 46.6844 73.5048 49.7502 73.507C52.6541 73.5089 53.0653 73.4922 53.5621 73.3518C55.2524 72.8741 56.6317 71.7438 57.3782 70.2247C57.9844 68.9913 57.96 69.298 57.9955 62.4161C58.0183 57.9908 57.9994 56.058 57.9296 55.6918C57.7584 54.7937 57.1694 54.039 56.346 53.6628C56.0138 53.511 55.764 53.4672 55.2324 53.4672C54.5729 53.4672 54.3935 53.5173 53.6295 53.916C53.5959 53.9336 53.5423 53.8392 53.5104 53.7062C53.358 53.0716 52.7425 52.3357 52.0664 51.9801C51.6921 51.7831 51.5322 51.7529 50.8637 51.7529C50.1945 51.7529 50.0356 51.7831 49.6591 51.981L49.2253 52.2092L49.1284 51.8518C48.8931 50.9844 48.0897 50.2092 47.197 49.9886C46.6612 49.8562 45.8158 49.9278 45.3187 50.1477L44.9238 50.3224L44.8956 47.3514L44.8675 44.3804L44.5819 43.8006C43.9547 42.527 42.4365 41.9448 41.0919 42.4621ZM42.7471 43.5312C43.1539 43.7012 43.3485 43.8815 43.5488 44.274C43.7037 44.5775 43.7111 44.8805 43.7111 50.9809V57.3699L43.9214 57.5801C44.174 57.8328 44.3936 57.8466 44.6653 57.6268L44.8675 57.4632L44.9103 54.7358C44.955 51.8943 44.9619 51.843 45.3534 51.4771C46.0558 50.8203 47.2108 50.9122 47.7899 51.6709L48.0369 51.9946L48.0798 55.1572L48.1226 58.3197L48.3249 58.4834C48.5807 58.6905 48.778 58.6905 49.0339 58.4834C49.2349 58.3209 49.2365 58.3054 49.279 56.1064C49.3274 53.6054 49.3474 53.52 49.9819 53.1002C50.2718 52.9083 50.433 52.865 50.8575 52.8655C51.5004 52.8661 51.926 53.1021 52.2351 53.6295L52.4485 53.9936V56.402C52.4485 58.06 52.4797 58.8789 52.5488 59.0306C52.7307 59.4297 53.4126 59.4257 53.5651 59.0246C53.6105 58.9051 53.6477 58.1096 53.6477 57.257C53.6477 55.7605 53.6551 55.6942 53.8606 55.3435C54.0921 54.9485 54.7736 54.5353 55.1936 54.5353C55.7625 54.5353 56.3514 54.8865 56.6382 55.3967L56.8249 55.7288L56.8222 62.0239C56.8205 66.1727 56.7884 68.4591 56.728 68.7297C56.3686 70.3403 54.9511 71.8031 53.3443 72.2216C52.6391 72.4053 46.9515 72.4126 46.0025 72.231C43.9496 71.8383 42.4877 71.0096 40.6701 69.2084C39.6114 68.1592 38.0642 66.7278 33.5175 62.5913C32.4103 61.584 31.4179 60.6218 31.3121 60.453C31.0792 60.0812 31.0551 59.4499 31.2576 59.0231C31.5341 58.4407 32.2562 58.0542 32.8574 58.1669C33.1876 58.2289 34.5579 59.0861 37.6938 61.1921C38.8365 61.9595 39.844 62.5874 39.9328 62.5874C40.0217 62.5874 40.1854 62.5138 40.2966 62.4237L40.4988 62.2599L40.5147 53.5364C40.5235 48.7384 40.5539 44.6887 40.5824 44.5369C40.7394 43.6994 41.8806 43.1692 42.7471 43.5312Z" clip-rule="evenodd" fill="#000000" class="color000 svgShape"></path></mask><path fill="#ffffff" fill-rule="evenodd" d="M26.487 28.9274C25.906 29.0139 25.019 29.3396 24.5125 29.6525C23.9707 29.9871 23.1026 30.8609 22.7683 31.4078C22.6097 31.6674 22.371 32.1878 22.238 32.5642L21.9961 33.2487V37.446C21.9961 42.1239 21.9946 42.1088 22.5764 43.3051C23.1765 44.5393 24.2131 45.4314 25.6988 45.9925C26.1813 46.1748 26.3077 46.18 30.8406 46.2069L35.4877 46.2345V45.6736V45.1127H31.2001C26.4037 45.1127 26.1427 45.0878 25.2378 44.5457C24.4743 44.0882 23.9581 43.5334 23.5738 42.757C23.0885 41.7766 23.0443 41.2536 23.0899 37.031C23.1258 33.6991 23.1382 33.4739 23.3148 32.9283C23.8202 31.366 25.1827 30.2454 26.8359 30.0323C27.5696 29.9376 60.3793 29.9365 61.1002 30.031C62.7554 30.2481 64.1077 31.3596 64.625 32.9283C64.8068 33.4794 64.817 33.666 64.8489 37.0392C64.8694 39.2074 64.8473 40.8624 64.7919 41.3223C64.5693 43.1686 63.2358 44.6477 61.4601 45.018C61.1534 45.082 59.0346 45.1127 54.9284 45.1127H48.8507V45.6725V46.2324L55.2967 46.2071C61.6956 46.1819 61.7463 46.1803 62.2373 45.9937C63.728 45.4272 64.7599 44.5387 65.3598 43.3051C65.9415 42.1088 65.94 42.1239 65.94 37.446V33.2487L65.6982 32.5634C65.3831 31.6703 65.0576 31.1436 64.4113 30.481C63.7729 29.8265 63.1648 29.443 62.2558 29.1219L61.5713 28.88L44.2679 28.8681C34.751 28.8617 26.7496 28.8884 26.487 28.9274ZM30.1565 34.7474C29.1778 35.0421 28.724 36.023 29.1413 36.942C29.332 37.3618 29.6784 37.6392 30.4406 37.9823C31.2587 38.3504 31.5056 38.6788 31.3227 39.1554C31.1614 39.576 30.2259 39.6657 29.5045 39.3298C29.2526 39.2125 29.0116 39.1381 28.9691 39.1644C28.9266 39.1907 28.8918 39.3839 28.8918 39.5939C28.8918 39.932 28.9233 39.9947 29.168 40.1435C29.6214 40.4192 30.3068 40.5254 30.9423 40.4184C31.9589 40.2472 32.5288 39.6226 32.5293 38.6794C32.5296 37.9331 32.2857 37.6367 31.197 37.0606C30.2717 36.5708 30.0497 36.338 30.1482 35.9607C30.2078 35.7331 30.5862 35.5179 30.9219 35.5207C31.0539 35.5218 31.3819 35.6132 31.651 35.7239C31.9201 35.8346 32.1609 35.9043 32.1864 35.879C32.3006 35.7647 32.2248 35.11 32.0826 34.9836C31.7657 34.702 30.7295 34.5749 30.1565 34.7474ZM37.3979 34.816C36.1411 35.266 35.5634 36.144 35.5527 37.6208C35.5456 38.5863 35.739 39.122 36.2959 39.6788C36.8858 40.2688 37.3962 40.4444 38.4858 40.4324C39.0376 40.4263 39.4512 40.3717 39.7707 40.2625L40.2418 40.1015L40.2655 38.7424C40.2819 37.797 40.2585 37.3464 40.1886 37.2622C40.11 37.1675 39.8624 37.1464 39.0514 37.1651L38.0146 37.1891L37.9885 37.5959L37.9624 38.0028H38.5702H39.178L39.1531 38.7065L39.1282 39.4102L38.7937 39.4891C38.3841 39.5858 37.7186 39.4488 37.3612 39.1943C37.0113 38.9451 36.757 38.3982 36.7088 37.7912C36.6342 36.8517 36.9643 36.1349 37.6299 35.791C37.9575 35.6216 38.11 35.5973 38.6571 35.627C39.0827 35.6502 39.4279 35.7245 39.6797 35.8473C40.2514 36.126 40.2978 36.1052 40.2677 35.5829C40.2422 35.1388 40.2366 35.1306 39.8283 34.9282C39.2522 34.6425 38.0388 34.5866 37.3979 34.816ZM33.4926 34.8011C33.4592 34.8346 33.4318 36.0883 33.4318 37.5872V40.3124L33.6327 40.3629C33.7432 40.3905 33.9841 40.4009 34.168 40.3859L34.5026 40.3585V37.5745V34.7906L34.028 34.7654C33.767 34.7516 33.5261 34.7676 33.4926 34.8011ZM41.6185 34.8823C41.502 34.9989 41.4839 35.3712 41.4839 37.6571C41.4839 40.5507 41.4559 40.4013 41.9979 40.4013C42.5334 40.4013 42.5113 40.4956 42.5177 38.1864C42.5221 36.5666 42.5455 36.1253 42.6183 36.2896C43.01 37.1737 44.6282 40.0939 44.8024 40.2309C44.9485 40.3458 45.1495 40.4013 45.4195 40.4013C46.1488 40.4013 46.1153 40.5471 46.0895 37.4889L46.0667 34.7906H45.5956H45.1245V36.7822C45.1245 37.8777 45.1154 38.7739 45.1042 38.7739C45.093 38.7738 45.025 38.6328 44.953 38.4604C44.6419 37.7156 43.0851 34.911 42.9397 34.8331C42.6788 34.6935 41.7736 34.7272 41.6185 34.8823ZM49.3995 34.8662C49.3727 34.9361 49.3636 35.8921 49.3792 36.9906C49.4055 38.8224 49.4231 39.0212 49.593 39.3889C49.944 40.1491 50.8757 40.5684 51.9621 40.4548C52.9676 40.3497 53.6132 39.856 53.8613 39.0026C53.9667 38.6401 53.9891 38.1625 53.9707 36.6687L53.9475 34.7906H53.4336H52.9196L52.8768 36.7607C52.84 38.4497 52.8118 38.7716 52.6784 39.0161C52.2969 39.7152 51.1135 39.7104 50.6887 39.008C50.5392 38.7608 50.5165 38.5188 50.4783 36.7607L50.4354 34.7906L49.9419 34.7649C49.5674 34.7453 49.4365 34.7697 49.3995 34.8662ZM55.2832 34.9041C55.2214 35.0198 55.1896 35.9661 55.1896 37.6957V40.3124L55.3905 40.3629C55.501 40.3905 55.7419 40.4009 55.9259 40.3859L56.2604 40.3585L56.2844 39.4069L56.3086 38.4552L56.9721 38.4098C58.0568 38.3354 58.6853 37.9359 58.9469 37.1549C59.1496 36.5492 59.0112 35.7368 58.6342 35.3199C58.2629 34.9093 57.8637 34.8007 56.5896 34.764C55.4375 34.7308 55.3722 34.7378 55.2832 34.9041ZM57.3699 35.7255C57.7305 35.8762 57.8451 36.0829 57.8451 36.5824C57.8451 36.8884 57.7934 37.03 57.605 37.2409C57.39 37.4815 57.3117 37.5108 56.8555 37.5206L56.346 37.5317L56.3214 36.6812C56.3077 36.2134 56.3161 35.7798 56.34 35.7175C56.398 35.5664 57 35.5711 57.3699 35.7255ZM41.0919 42.4621C40.4583 42.7059 39.9939 43.1445 39.6672 43.8081L39.3852 44.3808L39.3617 52.6275C39.3488 57.1632 39.3157 60.8742 39.2883 60.8742C39.2608 60.8742 38.886 60.6298 38.4552 60.3311C36.811 59.191 33.7825 57.2717 33.4328 57.1483C32.2321 56.7247 30.8418 57.3284 30.2502 58.5302C30.0065 59.0253 29.9678 59.191 29.9738 59.7117C29.9811 60.3353 30.1139 60.7678 30.4374 61.222C30.5361 61.3608 32.3778 63.0826 34.53 65.0484C36.6821 67.0141 39.0404 69.2042 39.7707 69.9152C41.513 71.6116 42.3259 72.1778 43.9252 72.8091C44.3493 72.9765 45.1009 73.2014 45.5956 73.309C46.4427 73.4933 46.6844 73.5048 49.7502 73.507C52.6541 73.5089 53.0653 73.4922 53.5621 73.3518C55.2524 72.8741 56.6317 71.7438 57.3782 70.2247C57.9844 68.9913 57.96 69.298 57.9955 62.4161C58.0183 57.9908 57.9994 56.058 57.9296 55.6918C57.7584 54.7937 57.1694 54.039 56.346 53.6628C56.0138 53.511 55.764 53.4672 55.2324 53.4672C54.5729 53.4672 54.3935 53.5173 53.6295 53.916C53.5959 53.9336 53.5423 53.8392 53.5104 53.7062C53.358 53.0716 52.7425 52.3357 52.0664 51.9801C51.6921 51.7831 51.5322 51.7529 50.8637 51.7529C50.1945 51.7529 50.0356 51.7831 49.6591 51.981L49.2253 52.2092L49.1284 51.8518C48.8931 50.9844 48.0897 50.2092 47.197 49.9886C46.6612 49.8562 45.8158 49.9278 45.3187 50.1477L44.9238 50.3224L44.8956 47.3514L44.8675 44.3804L44.5819 43.8006C43.9547 42.527 42.4365 41.9448 41.0919 42.4621ZM42.7471 43.5312C43.1539 43.7012 43.3485 43.8815 43.5488 44.274C43.7037 44.5775 43.7111 44.8805 43.7111 50.9809V57.3699L43.9214 57.5801C44.174 57.8328 44.3936 57.8466 44.6653 57.6268L44.8675 57.4632L44.9103 54.7358C44.955 51.8943 44.9619 51.843 45.3534 51.4771C46.0558 50.8203 47.2108 50.9122 47.7899 51.6709L48.0369 51.9946L48.0798 55.1572L48.1226 58.3197L48.3249 58.4834C48.5807 58.6905 48.778 58.6905 49.0339 58.4834C49.2349 58.3209 49.2365 58.3054 49.279 56.1064C49.3274 53.6054 49.3474 53.52 49.9819 53.1002C50.2718 52.9083 50.433 52.865 50.8575 52.8655C51.5004 52.8661 51.926 53.1021 52.2351 53.6295L52.4485 53.9936V56.402C52.4485 58.06 52.4797 58.8789 52.5488 59.0306C52.7307 59.4297 53.4126 59.4257 53.5651 59.0246C53.6105 58.9051 53.6477 58.1096 53.6477 57.257C53.6477 55.7605 53.6551 55.6942 53.8606 55.3435C54.0921 54.9485 54.7736 54.5353 55.1936 54.5353C55.7625 54.5353 56.3514 54.8865 56.6382 55.3967L56.8249 55.7288L56.8222 62.0239C56.8205 66.1727 56.7884 68.4591 56.728 68.7297C56.3686 70.3403 54.9511 71.8031 53.3443 72.2216C52.6391 72.4053 46.9515 72.4126 46.0025 72.231C43.9496 71.8383 42.4877 71.0096 40.6701 69.2084C39.6114 68.1592 38.0642 66.7278 33.5175 62.5913C32.4103 61.584 31.4179 60.6218 31.3121 60.453C31.0792 60.0812 31.0551 59.4499 31.2576 59.0231C31.5341 58.4407 32.2562 58.0542 32.8574 58.1669C33.1876 58.2289 34.5579 59.0861 37.6938 61.1921C38.8365 61.9595 39.844 62.5874 39.9328 62.5874C40.0217 62.5874 40.1854 62.5138 40.2966 62.4237L40.4988 62.2599L40.5147 53.5364C40.5235 48.7384 40.5539 44.6887 40.5824 44.5369C40.7394 43.6994 41.8806 43.1692 42.7471 43.5312Z" clip-rule="evenodd" class="colorfff svgShape"></path><path stroke="#fff" stroke-width=".825" d="M26.487 28.9274C25.906 29.0139 25.019 29.3396 24.5125 29.6525C23.9707 29.9871 23.1026 30.8609 22.7683 31.4078C22.6097 31.6674 22.371 32.1878 22.238 32.5642L21.9961 33.2487V37.446C21.9961 42.1239 21.9946 42.1088 22.5764 43.3051C23.1765 44.5393 24.2131 45.4314 25.6988 45.9925C26.1813 46.1748 26.3077 46.18 30.8406 46.2069L35.4877 46.2345V45.6736V45.1127H31.2001C26.4037 45.1127 26.1427 45.0878 25.2378 44.5457C24.4743 44.0882 23.9581 43.5334 23.5738 42.757C23.0885 41.7766 23.0443 41.2536 23.0899 37.031C23.1258 33.6991 23.1382 33.4739 23.3148 32.9283C23.8202 31.366 25.1827 30.2454 26.8359 30.0323C27.5696 29.9376 60.3793 29.9365 61.1002 30.031C62.7554 30.2481 64.1077 31.3596 64.625 32.9283C64.8068 33.4794 64.817 33.666 64.8489 37.0392C64.8694 39.2074 64.8473 40.8624 64.7919 41.3223C64.5693 43.1686 63.2358 44.6477 61.4601 45.018C61.1534 45.082 59.0346 45.1127 54.9284 45.1127H48.8507V45.6725V46.2324L55.2967 46.2071C61.6956 46.1819 61.7463 46.1803 62.2373 45.9937C63.728 45.4272 64.7599 44.5387 65.3598 43.3051C65.9415 42.1088 65.94 42.1239 65.94 37.446V33.2487L65.6982 32.5634C65.3831 31.6703 65.0576 31.1436 64.4113 30.481C63.7729 29.8265 63.1648 29.443 62.2558 29.1219L61.5713 28.88L44.2679 28.8681C34.751 28.8617 26.7496 28.8884 26.487 28.9274ZM30.1565 34.7474C29.1778 35.0421 28.724 36.023 29.1413 36.942C29.332 37.3618 29.6784 37.6392 30.4406 37.9823C31.2587 38.3504 31.5056 38.6788 31.3227 39.1554C31.1614 39.576 30.2259 39.6657 29.5045 39.3298C29.2526 39.2125 29.0116 39.1381 28.9691 39.1644C28.9266 39.1907 28.8918 39.3839 28.8918 39.5939C28.8918 39.932 28.9233 39.9947 29.168 40.1435C29.6214 40.4192 30.3068 40.5254 30.9423 40.4184C31.9589 40.2472 32.5288 39.6226 32.5293 38.6794C32.5296 37.9331 32.2857 37.6367 31.197 37.0606C30.2717 36.5708 30.0497 36.338 30.1482 35.9607C30.2078 35.7331 30.5862 35.5179 30.9219 35.5207C31.0539 35.5218 31.3819 35.6132 31.651 35.7239C31.9201 35.8346 32.1609 35.9043 32.1864 35.879C32.3006 35.7647 32.2248 35.11 32.0826 34.9836C31.7657 34.702 30.7295 34.5749 30.1565 34.7474ZM37.3979 34.816C36.1411 35.266 35.5634 36.144 35.5527 37.6208C35.5456 38.5863 35.739 39.122 36.2959 39.6788C36.8858 40.2688 37.3962 40.4444 38.4858 40.4324C39.0376 40.4263 39.4512 40.3717 39.7707 40.2625L40.2418 40.1015L40.2655 38.7424C40.2819 37.797 40.2585 37.3464 40.1886 37.2622C40.11 37.1675 39.8624 37.1464 39.0514 37.1651L38.0146 37.1891L37.9885 37.5959L37.9624 38.0028H38.5702H39.178L39.1531 38.7065L39.1282 39.4102L38.7937 39.4891C38.3841 39.5858 37.7186 39.4488 37.3612 39.1943C37.0113 38.9451 36.757 38.3982 36.7088 37.7912C36.6342 36.8517 36.9643 36.1349 37.6299 35.791C37.9575 35.6216 38.11 35.5973 38.6571 35.627C39.0827 35.6502 39.4279 35.7245 39.6797 35.8473C40.2514 36.126 40.2978 36.1052 40.2677 35.5829C40.2422 35.1388 40.2366 35.1306 39.8283 34.9282C39.2522 34.6425 38.0388 34.5866 37.3979 34.816ZM33.4926 34.8011C33.4592 34.8346 33.4318 36.0883 33.4318 37.5872V40.3124L33.6327 40.3629C33.7432 40.3905 33.9841 40.4009 34.168 40.3859L34.5026 40.3585V37.5745V34.7906L34.028 34.7654C33.767 34.7516 33.5261 34.7676 33.4926 34.8011ZM41.6185 34.8823C41.502 34.9989 41.4839 35.3712 41.4839 37.6571C41.4839 40.5507 41.4559 40.4013 41.9979 40.4013C42.5334 40.4013 42.5113 40.4956 42.5177 38.1864C42.5221 36.5666 42.5455 36.1253 42.6183 36.2896C43.01 37.1737 44.6282 40.0939 44.8024 40.2309C44.9485 40.3458 45.1495 40.4013 45.4195 40.4013C46.1488 40.4013 46.1153 40.5471 46.0895 37.4889L46.0667 34.7906H45.5956H45.1245V36.7822C45.1245 37.8777 45.1154 38.7739 45.1042 38.7739C45.093 38.7738 45.025 38.6328 44.953 38.4604C44.6419 37.7156 43.0851 34.911 42.9397 34.8331C42.6788 34.6935 41.7736 34.7272 41.6185 34.8823ZM49.3995 34.8662C49.3727 34.9361 49.3636 35.8921 49.3792 36.9906C49.4055 38.8224 49.4231 39.0212 49.593 39.3889C49.944 40.1491 50.8757 40.5684 51.9621 40.4548C52.9676 40.3497 53.6132 39.856 53.8613 39.0026C53.9667 38.6401 53.9891 38.1625 53.9707 36.6687L53.9475 34.7906H53.4336H52.9196L52.8768 36.7607C52.84 38.4497 52.8118 38.7716 52.6784 39.0161C52.2969 39.7152 51.1135 39.7104 50.6887 39.008C50.5392 38.7608 50.5165 38.5188 50.4783 36.7607L50.4354 34.7906L49.9419 34.7649C49.5674 34.7453 49.4365 34.7697 49.3995 34.8662ZM55.2832 34.9041C55.2214 35.0198 55.1896 35.9661 55.1896 37.6957V40.3124L55.3905 40.3629C55.501 40.3905 55.7419 40.4009 55.9259 40.3859L56.2604 40.3585L56.2844 39.4069L56.3086 38.4552L56.9721 38.4098C58.0568 38.3354 58.6853 37.9359 58.9469 37.1549C59.1496 36.5492 59.0112 35.7368 58.6342 35.3199C58.2629 34.9093 57.8637 34.8007 56.5896 34.764C55.4375 34.7308 55.3722 34.7378 55.2832 34.9041ZM57.3699 35.7255C57.7305 35.8762 57.8451 36.0829 57.8451 36.5824C57.8451 36.8884 57.7934 37.03 57.605 37.2409C57.39 37.4815 57.3117 37.5108 56.8555 37.5206L56.346 37.5317L56.3214 36.6812C56.3077 36.2134 56.3161 35.7798 56.34 35.7175C56.398 35.5664 57 35.5711 57.3699 35.7255ZM41.0919 42.4621C40.4583 42.7059 39.9939 43.1445 39.6672 43.8081L39.3852 44.3808L39.3617 52.6275C39.3488 57.1632 39.3157 60.8742 39.2883 60.8742C39.2608 60.8742 38.886 60.6298 38.4552 60.3311C36.811 59.191 33.7825 57.2717 33.4328 57.1483C32.2321 56.7247 30.8418 57.3284 30.2502 58.5302C30.0065 59.0253 29.9678 59.191 29.9738 59.7117C29.9811 60.3353 30.1139 60.7678 30.4374 61.222C30.5361 61.3608 32.3778 63.0826 34.53 65.0484C36.6821 67.0141 39.0404 69.2042 39.7707 69.9152C41.513 71.6116 42.3259 72.1778 43.9252 72.8091C44.3493 72.9765 45.1009 73.2014 45.5956 73.309C46.4427 73.4933 46.6844 73.5048 49.7502 73.507C52.6541 73.5089 53.0653 73.4922 53.5621 73.3518C55.2524 72.8741 56.6317 71.7438 57.3782 70.2247C57.9844 68.9913 57.96 69.298 57.9955 62.4161C58.0183 57.9908 57.9994 56.058 57.9296 55.6918C57.7584 54.7937 57.1694 54.039 56.346 53.6628C56.0138 53.511 55.764 53.4672 55.2324 53.4672C54.5729 53.4672 54.3935 53.5173 53.6295 53.916C53.5959 53.9336 53.5423 53.8392 53.5104 53.7062C53.358 53.0716 52.7425 52.3357 52.0664 51.9801C51.6921 51.7831 51.5322 51.7529 50.8637 51.7529C50.1945 51.7529 50.0356 51.7831 49.6591 51.981L49.2253 52.2092L49.1284 51.8518C48.8931 50.9844 48.0897 50.2092 47.197 49.9886C46.6612 49.8562 45.8158 49.9278 45.3187 50.1477L44.9238 50.3224L44.8956 47.3514L44.8675 44.3804L44.5819 43.8006C43.9547 42.527 42.4365 41.9448 41.0919 42.4621ZM42.7471 43.5312C43.1539 43.7012 43.3485 43.8815 43.5488 44.274C43.7037 44.5775 43.7111 44.8805 43.7111 50.9809V57.3699L43.9214 57.5801C44.174 57.8328 44.3936 57.8466 44.6653 57.6268L44.8675 57.4632L44.9103 54.7358C44.955 51.8943 44.9619 51.843 45.3534 51.4771C46.0558 50.8203 47.2108 50.9122 47.7899 51.6709L48.0369 51.9946L48.0798 55.1572L48.1226 58.3197L48.3249 58.4834C48.5807 58.6905 48.778 58.6905 49.0339 58.4834C49.2349 58.3209 49.2365 58.3054 49.279 56.1064C49.3274 53.6054 49.3474 53.52 49.9819 53.1002C50.2718 52.9083 50.433 52.865 50.8575 52.8655C51.5004 52.8661 51.926 53.1021 52.2351 53.6295L52.4485 53.9936V56.402C52.4485 58.06 52.4797 58.8789 52.5488 59.0306C52.7307 59.4297 53.4126 59.4257 53.5651 59.0246C53.6105 58.9051 53.6477 58.1096 53.6477 57.257C53.6477 55.7605 53.6551 55.6942 53.8606 55.3435C54.0921 54.9485 54.7736 54.5353 55.1936 54.5353C55.7625 54.5353 56.3514 54.8865 56.6382 55.3967L56.8249 55.7288L56.8222 62.0239C56.8205 66.1727 56.7884 68.4591 56.728 68.7297C56.3686 70.3403 54.9511 71.8031 53.3443 72.2216C52.6391 72.4053 46.9515 72.4126 46.0025 72.231C43.9496 71.8383 42.4877 71.0096 40.6701 69.2084C39.6114 68.1592 38.0642 66.7278 33.5175 62.5913C32.4103 61.584 31.4179 60.6218 31.3121 60.453C31.0792 60.0812 31.0551 59.4499 31.2576 59.0231C31.5341 58.4407 32.2562 58.0542 32.8574 58.1669C33.1876 58.2289 34.5579 59.0861 37.6938 61.1921C38.8365 61.9595 39.844 62.5874 39.9328 62.5874C40.0217 62.5874 40.1854 62.5138 40.2966 62.4237L40.4988 62.2599L40.5147 53.5364C40.5235 48.7384 40.5539 44.6887 40.5824 44.5369C40.7394 43.6994 41.8806 43.1692 42.7471 43.5312Z" clip-rule="evenodd" mask="url(#a)" fill="#000000" class="color000 svgShape colorStrokefff svgStroke"></path></svg></g></svg>