<svg width="92" height="92" viewBox="0 0 92 92" fill="none" xmlns="http://www.w3.org/2000/svg">
<circle cx="46" cy="46" r="45" fill="#F3F5F7" stroke="#2A3C4A" stroke-width="2"/>
<path fill-rule="evenodd" clip-rule="evenodd" d="M53.7033 22.0284C53.2746 22.1041 53.0614 22.4485 52.6744 23.6906C52.2002 25.2127 52.21 25.2093 50.6096 24.4182C49.6639 23.9508 49.3809 23.8521 49.1514 23.9097C48.7774 24.0034 47.2386 25.5418 47.1448 25.9157C47.0872 26.1452 47.1859 26.4281 47.6534 27.3735C48.4449 28.9737 48.4483 28.9639 46.9256 29.4366C46.1899 29.6649 45.6557 29.8918 45.499 30.0424C45.2571 30.275 45.2484 30.3278 45.2484 31.581C45.2484 32.8343 45.2571 32.8871 45.499 33.1197C45.6557 33.2703 46.1899 33.4972 46.9256 33.7255C48.4483 34.1981 48.4449 34.1884 47.6534 35.7886C47.1859 36.734 47.0872 37.0169 47.1448 37.2464C47.2386 37.6203 48.7774 39.1586 49.1514 39.2524C49.3809 39.31 49.6639 39.2113 50.6096 38.7439C52.2102 37.9527 52.2005 37.9493 52.6733 39.4715C52.9017 40.207 53.1287 40.7411 53.2793 40.8978C53.5119 41.1396 53.5648 41.1482 54.8184 41.1482C56.072 41.1482 56.1248 41.1396 56.3575 40.8978C56.5079 40.7413 56.7347 40.2084 56.9614 39.478C57.4329 37.9594 57.445 37.9553 59.0491 38.7535C59.9775 39.2155 60.2519 39.311 60.4837 39.2529C60.8593 39.1586 62.3979 37.6215 62.492 37.2464C62.5496 37.0169 62.4509 36.734 61.9833 35.7886C61.1919 34.1887 61.1885 34.1985 62.7109 33.7286C63.4609 33.497 63.9781 33.2772 64.1378 33.1221C64.3796 32.8873 64.3883 32.8337 64.3883 31.581C64.3883 30.3284 64.3796 30.2748 64.1378 30.04C63.9781 29.8849 63.4609 29.6651 62.7109 29.4335C61.1885 28.9635 61.1919 28.9734 61.9833 27.3735C62.4509 26.4281 62.5496 26.1452 62.492 25.9157C62.3979 25.5406 60.8593 24.0034 60.4837 23.9092C60.2519 23.8511 59.9775 23.9465 59.0491 24.4086C57.445 25.2068 57.4329 25.2027 56.9614 23.6841C56.461 22.0725 56.4189 22.0356 55.0493 22.0057C54.4538 21.9926 53.8482 22.0029 53.7033 22.0284ZM55.597 24.7187C55.7839 25.3248 56.0121 25.8953 56.1042 25.9865C56.1961 26.0778 56.6302 26.2943 57.0688 26.4677L57.866 26.7829L59.0019 26.2284C59.9344 25.7732 60.1702 25.6943 60.3192 25.7872C60.7694 26.0683 60.7571 26.2017 60.1725 27.3987L59.6179 28.5343L59.9332 29.3313C60.1067 29.7697 60.3232 30.2037 60.4145 30.2956C60.5057 30.3877 61.0764 30.616 61.6827 30.8032L62.785 31.1434V31.581V32.0187L61.6827 32.3589C61.0764 32.5461 60.5057 32.7744 60.4145 32.8665C60.3232 32.9584 60.1067 33.3924 59.9332 33.8308L59.6179 34.6278L60.1725 35.7634C60.6279 36.6956 60.7068 36.9313 60.6138 37.0803C60.3328 37.5303 60.1993 37.5181 59.0019 36.9337L57.866 36.3792L57.0688 36.6944C56.6302 36.8678 56.1961 37.0843 56.1042 37.1756C56.0121 37.2668 55.7837 37.8373 55.5965 38.4434L55.2562 39.5453H54.8184H54.3806L54.0402 38.4434C53.8531 37.8373 53.6247 37.2668 53.5326 37.1756C53.4406 37.0843 53.0065 36.8678 52.568 36.6944L51.7707 36.3792L50.6349 36.9337C49.4375 37.5181 49.304 37.5303 49.0229 37.0803C48.9299 36.9313 49.0089 36.6956 49.4642 35.7634L50.0189 34.6278L49.7035 33.8308C49.5301 33.3924 49.3135 32.9584 49.2222 32.8665C49.131 32.7746 48.5603 32.5441 47.9541 32.3544L46.8518 32.0095V31.581V31.1526L47.9541 30.8077C48.5603 30.618 49.131 30.3875 49.2222 30.2956C49.3135 30.2037 49.5301 29.7697 49.7035 29.3313L50.0189 28.5343L49.4642 27.3987C48.8796 26.2017 48.8674 26.0683 49.3175 25.7872C49.4665 25.6943 49.7023 25.7732 50.6349 26.2284L51.7707 26.7829L52.568 26.4677C53.0065 26.2943 53.4407 26.0778 53.5328 25.9865C53.6249 25.8953 53.8449 25.3474 54.0217 24.7688C54.1985 24.1903 54.364 23.6808 54.3896 23.6365C54.415 23.5922 54.6208 23.5697 54.8466 23.5864L55.2573 23.6168L55.597 24.7187ZM64.74 23.7461C64.5555 23.8955 64.4472 24.2801 64.0914 26.0527C63.8565 27.2228 63.6945 28.1988 63.7313 28.2215C63.858 28.2999 65.1389 28.5099 65.1883 28.4605C65.2154 28.4333 65.323 27.9952 65.4273 27.4869C65.5316 26.9786 65.6404 26.5392 65.6691 26.5104C65.6978 26.4818 65.8558 26.8107 66.0202 27.2415C67.4562 31.0044 66.9857 35.033 64.7197 38.3767C64.4458 38.781 64.2366 39.1223 64.2549 39.1352C64.2732 39.1482 64.5519 39.3701 64.8743 39.6283L65.4606 40.0977L65.6376 39.8716C66.7938 38.3945 67.7811 36.1876 68.2037 34.1356C68.4286 33.0428 68.4637 30.3972 68.2673 29.327C68.1103 28.4715 67.6161 26.8389 67.2931 26.1087C67.139 25.7604 67.0971 25.5717 67.1746 25.5742C67.2404 25.5764 67.6898 25.6608 68.1732 25.7618C68.6565 25.8628 69.0677 25.9174 69.0868 25.883C69.1677 25.7384 69.3684 24.4546 69.318 24.4043C69.2556 24.342 65.3793 23.5679 65.1259 23.5672C65.0356 23.5669 64.862 23.6474 64.74 23.7461ZM53.8782 27.6788C53.2441 27.8381 52.3416 28.3721 51.9035 28.8472C51.6785 29.0913 51.3517 29.5922 51.1773 29.9601C50.8901 30.5661 50.8601 30.7197 50.8601 31.5863C50.8601 32.4894 50.8812 32.5857 51.2344 33.3001C51.6851 34.212 52.2654 34.7799 53.197 35.2211C53.8024 35.5078 53.9575 35.5381 54.8184 35.5381C55.6793 35.5381 55.8344 35.5078 56.4397 35.2211C57.3714 34.7799 57.9516 34.212 58.4023 33.3001C58.756 32.5848 58.7766 32.4902 58.7766 31.581C58.7766 30.6719 58.756 30.5772 58.4023 29.862C57.7252 28.4922 56.5222 27.6885 55.0437 27.6181C54.6166 27.5978 54.0922 27.6251 53.8782 27.6788ZM55.5583 29.2986C56.4195 29.5529 57.2234 30.6549 57.2234 31.581C57.2234 32.8224 56.0601 33.9854 54.8184 33.9854C53.5767 33.9854 52.4134 32.8224 52.4134 31.581C52.4134 30.9514 52.6426 30.4434 53.1615 29.9236C53.8645 29.2193 54.6217 29.0219 55.5583 29.2986ZM38.7561 31.5594C38.4965 31.8231 38.2839 32.0807 38.2839 32.132C38.2839 32.1833 38.4965 32.441 38.7561 32.7047L39.2284 33.1839H38.1154C33.3061 33.1839 28.661 34.8046 24.9151 37.7895C23.9964 38.5216 22.0501 40.4576 22.0501 40.6393C22.0501 40.7074 22.3089 40.9727 22.6252 41.229L23.2004 41.6948L23.9193 40.9138C24.3147 40.4841 25.0142 39.8142 25.4736 39.4249C29.0011 36.4364 33.4895 34.7868 38.0941 34.7868C38.6395 34.7868 39.0856 34.8228 39.0856 34.8666C39.0856 34.9105 38.9052 35.1226 38.6848 35.3378C38.4643 35.553 38.2839 35.7672 38.2839 35.8137C38.2839 35.9241 39.2508 36.8906 39.3614 36.8906C39.4081 36.8906 40.0189 36.3119 40.7189 35.6047C41.8365 34.4755 41.9916 34.2781 41.9916 33.9854C41.9916 33.6926 41.8365 33.4952 40.7189 32.3661C40.0189 31.6588 39.3972 31.0801 39.3373 31.0801C39.2774 31.0801 39.0159 31.2958 38.7561 31.5594ZM36.6679 38.0576C36.2432 38.1319 36.017 38.4805 35.8325 39.345C35.7385 39.7858 35.5951 40.4466 35.5139 40.8133L35.366 41.4801L34.6536 41.6547L33.9411 41.8292L33.5901 41.4386C32.1121 39.7931 31.797 39.4953 31.534 39.4953C31.1247 39.4953 29.3941 40.4029 28.7891 40.9348C28.4667 41.2183 28.5009 41.5532 29.0108 43.1017L29.4561 44.4542L28.9472 44.971L28.4383 45.4878L27.9748 45.3495C27.72 45.2734 27.1084 45.0747 26.6158 44.9078C25.4148 44.5009 25.1497 44.5089 24.7753 44.963C24.3436 45.4866 23.453 47.2382 23.453 47.5637C23.453 47.8387 23.7299 48.133 25.397 49.6294L25.7877 49.9803L25.6131 50.6925L25.4385 51.4048L24.7715 51.5536C24.4046 51.6354 23.7332 51.7809 23.2795 51.8768C22.0246 52.1419 22 52.1831 22 54.0213C22 55.8595 22.0246 55.9007 23.2795 56.1659C23.7332 56.2617 24.4046 56.4072 24.7715 56.4891L25.4385 56.6378L25.6131 57.3501L25.7877 58.0624L25.397 58.4132C23.7509 59.8909 23.453 60.2058 23.453 60.4688C23.453 60.9583 24.6621 63.1272 25.0511 63.3352C25.3556 63.4981 25.6574 63.4595 26.6158 63.1349C27.1084 62.968 27.72 62.7692 27.9748 62.6932L28.4383 62.5548L28.9472 63.0717L29.4561 63.5885L29.0108 64.9409C28.566 66.2919 28.5084 66.5838 28.6263 66.891C28.7691 67.263 31.0238 68.5474 31.534 68.5474C31.797 68.5474 32.1121 68.2496 33.5901 66.604L33.9411 66.2134L34.6536 66.3879L35.366 66.5625L35.5149 67.2293C35.5967 67.5961 35.7422 68.2673 35.8381 68.7209C36.1034 69.9755 36.1446 70 37.9833 70C39.822 70 39.8632 69.9755 40.1285 68.7209C40.2244 68.2673 40.3699 67.5961 40.4517 67.2293L40.6006 66.5625L41.313 66.3879L42.0255 66.2134L42.3765 66.604C43.8734 68.2706 44.1677 68.5474 44.4428 68.5474C44.7983 68.5474 46.6323 67.5953 47.0707 67.1831C47.5079 66.772 47.4986 66.5895 46.9558 64.9409L46.5105 63.5885L47.0194 63.0717L47.5283 62.5548L47.9917 62.6932C48.2466 62.7692 48.8582 62.968 49.3508 63.1349C50.5151 63.5293 50.7544 63.5254 51.1489 63.1061C51.5585 62.6708 52.5136 60.8354 52.5136 60.4837C52.5136 60.1873 52.3404 59.9948 50.9708 58.7685L50.1794 58.0602L50.3552 57.3431C50.4519 56.9487 50.5466 56.626 50.5656 56.626C50.5846 56.626 51.2448 56.487 52.0329 56.3172C54.0242 55.888 53.9666 55.9564 53.9666 54.0213C53.9666 52.0863 54.0242 52.1547 52.0329 51.7254C51.2448 51.5556 50.5846 51.4166 50.5656 51.4166C50.5466 51.4166 50.4519 51.094 50.3552 50.6996L50.1794 49.9825L50.9708 49.2741C52.3272 48.0597 52.5136 47.8538 52.5136 47.569C52.5136 47.1641 51.6025 45.431 51.0736 44.8298C50.7899 44.5073 50.4546 44.5417 48.9061 45.0521L47.5532 45.498L47.0263 44.9743L46.4995 44.4504L46.9512 43.104C47.5002 41.4678 47.5105 41.273 47.0707 40.8595C46.6323 40.4474 44.7983 39.4953 44.4428 39.4953C44.1677 39.4953 43.8734 39.772 42.3765 41.4386L42.0255 41.8292L41.313 41.6547L40.6006 41.4801L40.4517 40.8133C40.3699 40.4466 40.2244 39.7754 40.1285 39.3217C39.871 38.1041 39.7972 38.0546 38.2045 38.0306C37.5041 38.0201 36.8127 38.0322 36.6679 38.0576ZM38.8645 41.0621C39.0411 41.8828 39.2525 42.6086 39.3445 42.7102C39.4349 42.8101 39.7631 42.9439 40.0739 43.0078C40.3846 43.0715 40.9935 43.235 41.4269 43.3711C41.8604 43.5073 42.3144 43.5936 42.4359 43.5632C42.6161 43.518 43.2281 42.8968 44.5517 41.4154C44.6501 41.3053 44.76 41.3269 45.1777 41.5385L45.6844 41.7952L45.4449 42.5737C45.3133 43.0018 45.1137 43.6185 45.0015 43.9439C44.8893 44.2693 44.7975 44.6403 44.7975 44.7681C44.7975 45.088 46.9133 47.2098 47.2298 47.2074C47.3526 47.2064 48.0719 47.0083 48.8283 46.7672L50.2036 46.3287L50.4593 46.7862C50.5999 47.0378 50.7026 47.2759 50.6874 47.3153C50.6721 47.3548 50.1744 47.826 49.5812 48.3627C48.988 48.8992 48.4771 49.4401 48.4459 49.5645C48.4146 49.689 48.5004 50.1454 48.6366 50.5787C48.7728 51.012 48.9363 51.6207 49 51.9314C49.0639 52.242 49.1949 52.5676 49.2913 52.6548C49.3877 52.742 50.1296 52.9583 50.94 53.1356L52.4134 53.4578V54.0213V54.5848L50.94 54.907C50.1296 55.0843 49.3877 55.3006 49.2913 55.3879C49.1949 55.475 49.0639 55.8006 49 56.1113C48.9363 56.4219 48.7728 57.0306 48.6366 57.4639C48.5004 57.8973 48.414 58.3512 48.4445 58.4726C48.4897 58.6528 49.1111 59.2646 50.5929 60.5878C50.703 60.6862 50.6816 60.7958 50.4705 61.2122L50.2145 61.7172L49.7857 61.5859C49.5499 61.5137 48.9239 61.3149 48.3947 61.1441C47.8654 60.9733 47.3365 60.8335 47.2194 60.8335C46.9121 60.8335 44.7975 62.9648 44.7975 63.2745C44.7975 63.4024 44.8893 63.7733 45.0015 64.0987C45.1137 64.4242 45.3133 65.0408 45.4449 65.469L45.6844 66.2475L45.1777 66.5041C44.76 66.7157 44.6501 66.7373 44.5517 66.6273C43.2281 65.1459 42.6161 64.5247 42.4359 64.4795C42.3144 64.449 41.8604 64.5354 41.4269 64.6715C40.9935 64.8077 40.3846 64.9712 40.0739 65.0349C39.7631 65.0987 39.4374 65.2296 39.3502 65.326C39.263 65.4224 39.0466 66.1641 38.8692 66.9743L38.547 68.4472H37.9823H37.4177L37.1021 66.9806C36.9255 66.1598 36.7141 65.434 36.6221 65.3324C36.5317 65.2325 36.2035 65.0987 35.8927 65.0349C35.582 64.9712 34.9731 64.8077 34.5397 64.6715C34.1062 64.5354 33.6522 64.449 33.5307 64.4795C33.3493 64.525 32.7844 65.0985 31.4116 66.6306C31.3091 66.745 31.2071 66.7228 30.7893 66.4955L30.2895 66.2235L30.5254 65.457C30.655 65.0354 30.8529 64.4242 30.9651 64.0987C31.0773 63.7733 31.1691 63.4024 31.1691 63.2745C31.1691 62.9641 29.0545 60.8335 28.7464 60.8335C28.5701 60.8335 27.5191 61.1433 26.0444 61.6298C25.7991 61.7107 25.7599 61.6806 25.5067 61.2153C25.2785 60.7963 25.2561 60.6936 25.3704 60.592C26.8334 59.2916 27.4749 58.6607 27.521 58.477C27.5521 58.3532 27.4662 57.8973 27.33 57.4639C27.1938 57.0306 27.0303 56.4219 26.9665 56.1113C26.9027 55.8006 26.768 55.4717 26.6671 55.3805C26.5634 55.2866 25.8464 55.077 25.0184 54.8985L23.5532 54.5825V54.0213V53.4601L25.0184 53.1441C25.8464 52.9656 26.5634 52.7561 26.6671 52.6622C26.768 52.5709 26.9027 52.242 26.9665 51.9314C27.0303 51.6207 27.1938 51.012 27.33 50.5787C27.4662 50.1454 27.5515 49.6868 27.5196 49.5598C27.4876 49.4327 26.9768 48.8915 26.3842 48.3571C25.7917 47.8226 25.2945 47.3535 25.2792 47.3145C25.264 47.2755 25.367 47.0371 25.5081 46.7847L25.7647 46.3258L26.5379 46.5635C26.9631 46.6943 27.5774 46.893 27.903 47.0051C28.2285 47.1173 28.5995 47.2091 28.7274 47.2091C29.0535 47.2091 31.1691 45.0941 31.1691 44.7681C31.1691 44.6403 31.0773 44.2693 30.9651 43.9439C30.8529 43.6185 30.6541 43.0043 30.5234 42.5792L30.2856 41.8063L30.7446 41.5497C30.997 41.4087 31.2359 41.3057 31.2753 41.3209C31.3148 41.3362 31.7862 41.8337 32.323 42.4268C32.8597 43.0198 33.4008 43.5306 33.5252 43.5617C33.6498 43.593 34.1062 43.5073 34.5397 43.3711C34.9731 43.235 35.582 43.0715 35.8927 43.0078C36.2035 42.9439 36.5317 42.8101 36.6221 42.7102C36.7141 42.6086 36.9255 41.8828 37.1021 41.0621L37.4177 39.5954H37.9833H38.5489L38.8645 41.0621ZM60.9999 42.096C60.5524 42.2392 60.4577 42.3669 60.1789 43.2037C59.9389 43.9241 59.8869 44.0017 59.5747 44.1047C59.2673 44.2061 59.1516 44.1807 58.4211 43.8509C57.4303 43.4037 57.3396 43.427 56.3921 44.3744C55.4444 45.3217 55.421 45.4124 55.8684 46.4028C56.1969 47.1303 56.2234 47.2498 56.1234 47.5529C56.0219 47.8602 55.9377 47.9169 55.2029 48.1726C54.1292 48.5463 54.0668 48.6474 54.0668 50.0141C54.0668 51.3809 54.1292 51.482 55.2029 51.8556C55.9377 52.1114 56.0219 52.1681 56.1234 52.4753C56.2234 52.7785 56.1969 52.898 55.8684 53.6254C55.421 54.6159 55.4444 54.7066 56.3921 55.6539C57.3396 56.6013 57.4303 56.6246 58.4211 56.1774C59.1487 55.8489 59.2682 55.8225 59.5715 55.9224C59.8788 56.0239 59.9355 56.1081 60.1914 56.8427C60.5651 57.916 60.6663 57.9784 62.0334 57.9784C63.4006 57.9784 63.5017 57.916 63.8754 56.8427C64.1313 56.1081 64.188 56.0239 64.4953 55.9224C64.7986 55.8225 64.9181 55.8489 65.6457 56.1774C66.6365 56.6246 66.7272 56.6013 67.6748 55.6539C68.6224 54.7066 68.6458 54.6159 68.1984 53.6254C67.8699 52.898 67.8434 52.7785 67.9434 52.4753C68.0449 52.1681 68.1291 52.1114 68.8639 51.8556C69.9376 51.482 70 51.3809 70 50.0141C70 48.6351 69.9296 48.5211 68.8572 48.164C68.1247 47.9202 68.0477 47.8689 67.9445 47.5561C67.8431 47.2489 67.8686 47.1332 68.1984 46.4028C68.6458 45.4124 68.6224 45.3217 67.6748 44.3744C66.7272 43.427 66.6365 43.4037 65.6457 43.8509C64.9181 44.1794 64.7986 44.2058 64.4953 44.1058C64.188 44.0043 64.1313 43.9202 63.8754 43.1856C63.6847 42.6379 63.5153 42.3255 63.3502 42.2174C63.0681 42.0326 61.458 41.9495 60.9999 42.096ZM62.5873 44.3524C62.7377 44.7647 62.9113 45.1426 62.9732 45.1921C63.1505 45.334 64.3582 45.822 64.6765 45.8804C64.8781 45.9174 65.1723 45.8328 65.6555 45.5991L66.3463 45.2651L66.5571 45.4759L66.7681 45.6867L66.4428 46.3921C66.2229 46.8689 66.1343 47.1887 66.1694 47.3787C66.2271 47.692 66.7167 48.8995 66.8569 49.0746C66.9064 49.1365 67.2843 49.3101 67.6968 49.4604C68.386 49.7118 68.4468 49.7567 68.4468 50.0141C68.4468 50.2716 68.386 50.3165 67.6968 50.5678C67.2843 50.7182 66.9064 50.8918 66.8569 50.9536C66.7149 51.1309 66.2267 52.3383 66.1683 52.6565C66.1313 52.858 66.2159 53.1522 66.4497 53.6352L66.7838 54.3258L66.573 54.5365L66.3621 54.7474L65.6565 54.4222C65.1796 54.2024 64.8597 54.1139 64.6696 54.149C64.3562 54.2067 63.1483 54.696 62.9732 54.8362C62.9113 54.8857 62.7377 55.2636 62.5873 55.6759C62.3358 56.3649 62.2909 56.4256 62.0334 56.4256C61.7759 56.4256 61.731 56.3649 61.4795 55.6759C61.3291 55.2636 61.1555 54.8857 61.0936 54.8362C60.9185 54.696 59.7106 54.2067 59.3972 54.149C59.2071 54.1139 58.8872 54.2024 58.4104 54.4222L57.7047 54.7474L57.5018 54.5445L57.2987 54.3416L57.624 53.6361C57.8439 53.1594 57.9325 52.8396 57.8974 52.6496C57.8389 52.3318 57.3492 51.1275 57.206 50.9489C57.1544 50.8846 56.7765 50.7095 56.3661 50.5599C55.6837 50.3111 55.62 50.2642 55.62 50.0109C55.62 49.7574 55.6837 49.7107 56.37 49.4604C56.7825 49.3101 57.1604 49.1365 57.21 49.0746C57.3501 48.8995 57.8397 47.692 57.8974 47.3787C57.9325 47.1887 57.8439 46.8689 57.624 46.3921L57.2987 45.6867L57.5018 45.4838L57.7047 45.2808L58.4104 45.606C58.8872 45.8258 59.2071 45.9144 59.3972 45.8793C59.7106 45.8216 60.9185 45.3322 61.0936 45.1921C61.1555 45.1426 61.3291 44.7647 61.4795 44.3524C61.731 43.6633 61.7759 43.6026 62.0334 43.6026C62.2909 43.6026 62.3358 43.6633 62.5873 44.3524ZM36.3443 45.3657C32.837 45.9991 29.9346 48.9337 29.3177 52.4702C28.2692 58.4813 33.4912 63.7416 39.4703 62.697C44.2628 61.8598 47.493 57.2918 46.6606 52.529C45.8137 47.6842 41.2093 44.487 36.3443 45.3657ZM40.1378 47.1491C41.275 47.5111 42.1204 48.0385 43.0441 48.9619C43.9599 49.8774 44.4865 50.7166 44.8675 51.8675C45.2563 53.0416 45.2563 55.0011 44.8675 56.1752C44.4865 57.3261 43.9599 58.1653 43.0441 59.0807C42.1284 59.9961 41.289 60.5227 40.1378 60.9036C39.4299 61.1378 39.1778 61.1688 37.9833 61.1688C36.7888 61.1688 36.5367 61.1378 35.8288 60.9036C34.6833 60.5246 33.8452 59.9986 32.9232 59.0804C32.0072 58.1682 31.4819 57.3314 31.0991 56.1752C30.8648 55.4675 30.8337 55.2155 30.8337 54.0213C30.8337 52.8272 30.8648 52.5751 31.0991 51.8675C31.4802 50.7164 32.0068 49.8773 32.9225 48.9622C34.0496 47.8358 35.2812 47.17 36.717 46.911C37.6125 46.7493 39.2373 46.8625 40.1378 47.1491ZM61.2818 46.8953C60.3577 47.1381 59.546 47.8045 59.1301 48.6617C58.9324 49.069 58.8864 49.3216 58.8838 50.0141C58.8808 50.7949 58.9089 50.9182 59.221 51.4969C59.6002 52.2 59.9147 52.5035 60.6699 52.8958C61.1063 53.1225 61.307 53.1617 62.0334 53.1617C62.7598 53.1617 62.9605 53.1225 63.3969 52.8958C64.1521 52.5035 64.4666 52.2 64.8458 51.4969C65.1575 50.9189 65.1861 50.7939 65.1841 50.0141C65.1822 49.2905 65.1419 49.0858 64.9159 48.651C64.5254 47.8997 64.2194 47.5811 63.5417 47.22C62.8958 46.8758 61.9004 46.7327 61.2818 46.8953ZM62.6676 48.5479C63.6972 48.978 63.9482 50.3274 63.1475 51.1279C62.0217 52.2535 60.1767 51.2453 60.473 49.6664C60.65 48.7233 61.7479 48.1637 62.6676 48.5479Z" fill="#2A3C4A"/>
</svg>
