<svg width="106" height="213" viewBox="0 0 106 213" fill="none" xmlns="http://www.w3.org/2000/svg">
<path d="M105.998 49.5075C106.161 50.1733 97.2842 55.3477 96.1979 55.3477L94.6795 55.2192L90.3461 57.8473C89.8651 57.3878 89.4486 56.8652 89.108 56.2938C88.7486 55.7211 88.4843 55.0939 88.3254 54.4366C88.225 54.0278 88.1779 53.6077 88.1852 53.1868C88.8765 52.5272 89.6273 51.9329 90.4279 51.4114C90.4279 51.4114 89.3299 48.0358 90.5564 46.5057C91.3356 45.6484 91.9424 44.649 92.3434 43.5622C92.483 42.9732 92.6546 42.3922 92.8574 41.8218C92.9625 41.5353 93.1288 41.2751 93.3446 41.0592C93.5604 40.8434 93.8206 40.6772 94.1072 40.572C94.1754 40.5489 94.2493 40.5489 94.3174 40.572C94.4576 40.572 94.5277 40.7589 94.5744 40.9108C94.6211 41.0626 94.5744 40.9108 94.5744 40.9108C94.9919 42.5759 94.8355 44.3331 94.1305 45.8983C94.1305 45.8983 99.4685 43.9243 100.707 42.9081C100.707 42.9081 103.872 41.4597 104.211 41.997C104.336 42.172 104.423 42.3708 104.468 42.5811C104.499 42.7548 104.499 42.9329 104.468 43.1067C104.468 43.1067 98.2187 47.0663 98.1252 47.3934C98.0318 47.7204 104.351 45.5595 104.912 45.8165C104.998 45.8825 105.07 45.965 105.124 46.0592C105.179 46.1535 105.213 46.2576 105.227 46.3655C105.288 46.6219 105.319 46.8845 105.32 47.1481C105.338 47.4242 105.338 47.7012 105.32 47.9774L105.437 48.1759C105.519 48.3511 105.636 48.6081 105.752 48.8884C105.854 49.0865 105.936 49.2938 105.998 49.5075Z" fill="#FDBD8E"/>
<path d="M105.998 49.5046C106.161 50.1704 97.2842 55.3448 96.1979 55.3448L94.6795 55.2163L90.3461 57.8444C89.8651 57.3849 89.4486 56.8623 89.108 56.2909C91.0329 55.4183 92.696 54.0573 93.932 52.343C95.1 50.7077 95.8709 48.8389 97.2025 47.2854C98.055 46.3503 99.0386 45.5438 100.123 44.8909C101.248 44.174 102.418 43.5302 103.627 42.9637C103.977 42.8118 104.269 42.6833 104.526 42.6016C104.558 42.7753 104.558 42.9534 104.526 43.1272C104.526 43.1272 98.2771 47.0868 98.1836 47.4139C98.0902 47.7409 104.409 45.58 104.97 45.837C105.056 45.903 105.129 45.9855 105.183 46.0797C105.237 46.174 105.272 46.2781 105.285 46.386C105.346 46.6424 105.378 46.905 105.379 47.1686C105.396 47.4447 105.396 47.7217 105.379 47.9979L105.496 48.1964C105.577 48.3717 105.694 48.6286 105.811 48.909C105.891 49.1016 105.953 49.3009 105.998 49.5046Z" fill="#FB9988"/>
<path d="M105.411 47.1967L104.874 47.4303C103.955 47.8091 103.006 48.1062 102.035 48.318C101.649 48.4039 101.26 48.4701 100.867 48.5165C100.867 48.5165 101.323 48.2596 101.953 47.9442C102.584 47.6288 103.565 47.1499 104.628 46.7061L105.364 46.4141C105.41 46.6723 105.425 46.9349 105.411 47.1967Z" fill="#FD7D6F"/>
<path d="M105.824 48.9469C104.772 49.4082 103.676 49.7642 102.554 50.0098C103.478 49.3223 104.468 48.7276 105.509 48.2344C105.591 48.4096 105.707 48.6665 105.824 48.9469Z" fill="#FD7D6F"/>
<path d="M94.6113 40.9186C94.516 41.0022 94.4263 41.092 94.3427 41.1873C93.7738 42.0307 93.3477 42.962 93.0812 43.9438C92.5205 45.2287 91.4927 46.2799 91.1773 47.6815C91.0295 48.8519 91.0968 50.0395 91.3759 51.1856C91.4651 51.5424 91.4406 51.9181 91.3058 52.2602C91.1438 52.5177 90.9238 52.7337 90.6634 52.891C89.9041 53.4166 89.1099 53.9072 88.3273 54.4561C88.2269 54.0473 88.1798 53.6272 88.1871 53.2063C88.8784 52.5467 89.6292 51.9524 90.4298 51.4309C90.4298 51.4309 89.3318 48.0553 90.5582 46.5252C91.3375 45.6679 91.9443 44.6686 92.3453 43.5817C92.4849 42.9927 92.6565 42.4117 92.8593 41.8414C92.9644 41.5548 93.1307 41.2946 93.3465 41.0788C93.5623 40.8629 93.8225 40.6967 94.1091 40.5916C94.1773 40.5684 94.2511 40.5684 94.3193 40.5916C94.4595 40.6149 94.5296 40.7668 94.6113 40.9186Z" fill="#FFDABA"/>
<path d="M95.1574 47.3281C95.51 47.7406 95.7688 48.2248 95.916 48.7471C96.0633 49.2694 96.0953 49.8174 96.0101 50.3533C95.8541 51.4288 95.4325 52.4484 94.7836 53.3201C94.9628 52.4328 95.189 51.5555 95.4611 50.6921C95.5545 49.9212 95.7764 48.0173 95.1574 47.3281Z" fill="#FD7D6F"/>
<path d="M58.4028 69.8811C60.3301 72.4158 62.0588 74.2145 63.5188 74.8803C63.6508 74.9448 63.7875 74.9995 63.9276 75.0438C71.1811 77.3799 91.8086 56.9977 91.8086 56.9977L90.8041 55.6311L89.4959 53.844L88.6899 52.7344C88.6899 52.7344 73.8559 60.2448 67.6653 64.695L66.6725 65.4309C66.6725 65.4309 65.3409 63.0131 64.5233 61.9268L58.4028 69.8811Z" fill="#FDBD8E"/>
<path d="M63.509 74.8818C63.6411 74.9463 63.7777 75.001 63.9179 75.0453C71.1713 77.3814 91.7988 56.9992 91.7988 56.9992L90.7943 55.6326L90.5257 55.5625C90.5257 55.5625 73.8228 73.8656 63.509 74.8818Z" fill="#FB9988"/>
<path d="M66.5753 65.4582L89.4805 53.8596L88.6746 52.75C88.6746 52.75 73.8405 60.2605 67.6499 64.7107L66.5753 65.4582Z" fill="#FFDABA"/>
<path d="M65.1543 61.0447L59.4076 68.5668L57.5504 70.9847C56.7444 70.3422 55.8918 69.6297 55.0274 68.8822C52.3643 66.5461 49.491 63.9064 46.7578 61.2316L45.5547 49.0139C45.2493 46.5877 45.7413 44.1279 46.9563 42.0057C47.3184 41.41 48.1243 41.4334 50.0633 43.057C50.9393 43.7811 59.3492 53.5693 59.3492 53.5693C61.5334 56.1973 63.7877 59.1875 65.1543 61.0447Z" fill="#FFD455"/>
<path d="M58.6504 69.3343L57.5524 70.9812C56.7465 70.3388 55.8938 69.6263 55.0295 68.8788L49.1893 63.5992V60.5156L58.6504 69.3343Z" fill="#EDB838"/>
<path d="M47.8875 41.6875C53.6692 42.7037 62.3594 55.8441 65.3379 60.8433L64.4969 61.9412L59.5795 54.933C56.18 50.1022 52.259 45.6603 47.8875 41.6875Z" fill="#FFE598"/>
<path d="M37.7734 81.1315L29.3519 100.077L26.8407 105.707C26.8407 105.707 13.782 104.761 8.56092 96.9817C3.3398 89.2026 14.4712 65.1527 14.4712 65.1527L15.207 64.9075L32.4939 59.3359L37.7734 81.1315Z" fill="#0F3358"/>
<path d="M29.3477 100.076L26.8364 105.706C26.8364 105.706 13.7778 104.76 8.55666 96.9805C3.33555 89.2014 14.4669 65.1515 14.4669 65.1515L15.2027 64.9062C13.3222 72.1597 8.68511 95.719 26.8831 99.4334C27.7165 99.5991 28.5394 99.8137 29.3477 100.076Z" fill="#274F74"/>
<path d="M40.9898 206.745C41.1514 207.905 41.4373 209.045 41.8424 210.144C42.1811 210.529 59.2578 210.144 59.2578 210.144V207.516L49.0492 204.012L40.9898 206.745Z" fill="#735214"/>
<path d="M59.2438 207.517C59.2438 207.517 42.062 208.79 41.151 207.599C40.5436 206.793 40.7305 198.558 40.7305 198.558L45.4026 198.371C45.4026 198.371 59.933 207.517 59.2438 207.517Z" fill="#9B7632"/>
<path d="M20.1776 207.805C19.7805 209.358 16.6735 211.647 15.1668 212.64C14.9571 212.782 14.707 212.852 14.4543 212.839C14.2015 212.826 13.9596 212.732 13.7651 212.57C12.492 211.507 9.82884 209.159 9.56019 207.805C9.53678 207.061 9.6557 206.319 9.91059 205.62C10.1325 204.838 10.4362 203.927 10.7749 203.004C11.8378 200.107 13.1928 197.059 13.1928 197.059L18.4373 197.269C18.4373 197.269 19.6053 201.824 20.0959 205.06C20.2688 205.964 20.2964 206.891 20.1776 207.805Z" fill="#735214"/>
<path d="M20.0898 205.06C19.4591 206.613 16.5857 208.716 15.1607 209.65C14.9586 209.802 14.7126 209.884 14.4599 209.884C14.2072 209.884 13.9613 209.802 13.7591 209.65C12.303 208.504 11.0067 207.169 9.90455 205.679C10.1265 204.896 10.4301 203.985 10.7689 203.062C11.8318 200.166 13.1868 197.117 13.1868 197.117L18.4312 197.327C18.4312 197.327 19.646 201.824 20.0898 205.06Z" fill="#9B7632"/>
<path d="M13.0685 202.297C13.1386 202.635 13.489 202.822 13.816 202.939C14.3946 203.209 15.029 203.337 15.6668 203.312C16.3046 203.288 16.9274 203.112 17.4837 202.799C17.5632 202.753 17.6311 202.689 17.6823 202.612C17.7161 202.53 17.7253 202.44 17.7087 202.353C17.6921 202.266 17.6505 202.185 17.5888 202.122C17.4647 201.997 17.3124 201.905 17.1449 201.853C16.5609 201.619 12.7648 200.732 13.0685 202.297Z" fill="white"/>
<path d="M12.6818 205.191C12.7519 205.53 13.1023 205.717 13.4294 205.846C14.0093 206.11 14.643 206.235 15.2798 206.21C15.9166 206.186 16.5389 206.013 17.097 205.705C17.1743 205.651 17.2415 205.584 17.2955 205.507C17.3294 205.425 17.3386 205.335 17.322 205.248C17.3054 205.16 17.2638 205.08 17.2021 205.016C17.0732 204.898 16.9224 204.807 16.7583 204.748C16.1626 204.537 12.3781 203.626 12.6818 205.191Z" fill="white"/>
<path d="M49.0574 203.59C49.2017 203.612 49.3491 203.599 49.4873 203.552C49.6255 203.506 49.7505 203.426 49.8517 203.321C50.3049 203.005 50.6831 202.593 50.9596 202.115C51.2361 201.637 51.4041 201.104 51.4519 200.553C51.464 200.476 51.464 200.397 51.4519 200.32C51.4118 200.257 51.3524 200.21 51.2828 200.184C51.2132 200.159 51.1372 200.157 51.0665 200.179C50.9199 200.219 50.7841 200.29 50.6693 200.39C50.2255 200.717 47.8193 203.134 49.0574 203.59Z" fill="white"/>
<path d="M50.8733 205.131C51.142 205.236 51.434 205.049 51.6676 204.862C52.1225 204.548 52.5019 204.137 52.7786 203.658C53.0554 203.179 53.2224 202.645 53.2678 202.094C53.2857 202.017 53.2857 201.937 53.2678 201.861C53.2264 201.8 53.1669 201.753 53.0977 201.728C53.0285 201.703 52.9532 201.7 52.8823 201.72C52.7348 201.757 52.5985 201.829 52.4852 201.931C52.018 202.269 49.6469 204.675 50.8733 205.131Z" fill="white"/>
<path d="M52.2136 152.221C51.139 155.339 48.3124 200.227 48.3124 200.227H40.1361C40.1361 200.227 36.9124 164.836 37.5431 161.6C38.3958 157.162 41.2575 148.752 41.2575 148.752C40.9421 147.023 40.4749 112.975 40.4749 112.975L38.314 112.8C38.314 112.8 31.516 150.177 29.4953 154.487C27.4746 158.797 19.7539 198.603 19.7539 198.603H11.6828C11.6828 198.603 13.1896 166.634 13.3881 164.041C13.7619 159.042 20.1861 146.673 20.1861 146.673C20.1861 146.673 19.8824 113.489 20.1861 108.455V107.917C20.2406 107.139 20.3224 106.36 20.4314 105.581L20.5015 105.149L20.5715 104.658L20.6767 104.051C20.6767 103.888 20.7351 103.724 20.7584 103.549C21.0387 102.089 21.3775 100.629 21.763 99.2037C21.8564 98.8533 21.9615 98.5029 22.055 98.1525C22.1484 97.8021 22.1834 97.7203 22.2535 97.5101L22.3937 97.0428C22.639 96.2486 22.8843 95.4777 23.1412 94.7068C23.1996 94.5666 23.2464 94.4265 23.2931 94.2863L23.4449 93.8541L23.515 93.6672C23.5201 93.6402 23.5201 93.6125 23.515 93.5855L23.7252 92.9898L24.2158 91.7049C24.3677 91.2961 24.5312 90.8873 24.6947 90.5369C24.9167 89.9879 25.1386 89.4623 25.3488 88.9601C25.3488 88.8549 25.4306 88.7615 25.4773 88.6564L26.073 87.3014L26.2132 86.9977C26.6103 86.1217 26.949 85.4092 27.206 84.8953L27.3578 84.6033C27.3789 84.5554 27.4022 84.5086 27.4279 84.4631L27.6966 83.9375H51.9099C51.9099 83.9375 52.0618 84.615 52.307 85.7596C52.3771 86.1023 52.4589 86.4916 52.5523 86.9277C52.6107 87.2197 52.6808 87.535 52.7509 87.8621C52.821 88.1891 52.8911 88.5162 52.9611 88.8666C53.3466 90.6771 53.7905 92.873 54.2577 95.1974C55.2155 100.08 56.22 105.581 56.6989 109.517C57.7851 118.348 53.2999 149.09 52.2136 152.221Z" fill="#1EAD48"/>
<path d="M30.8984 84.0969C30.8984 84.0969 30.6181 84.9146 30.1509 86.2344C29.929 86.8535 29.6837 87.5777 29.3917 88.3719C29.0997 89.1662 28.7843 90.1006 28.4456 91.0351L27.8732 92.6119L27.3593 94.0019C26.2467 97.1832 24.9639 100.302 23.5165 103.346C21.6476 106.628 23.5165 145.302 23.5165 145.302C23.5165 145.302 16.333 162.694 15.6439 163.395C14.9548 164.096 13.5181 189.839 13.0158 198.541H11.6843C11.6843 198.541 13.191 166.572 13.3896 163.979C13.7633 158.98 20.1875 146.61 20.1875 146.61C20.1875 146.61 19.8839 113.426 20.1875 108.392V107.855C20.2421 107.076 20.3238 106.297 20.4328 105.519L20.5029 105.087L20.573 104.596L20.6781 103.989C20.6781 103.825 20.7365 103.662 20.7599 103.486C21.0402 102.026 21.3789 100.566 21.7644 99.1412C21.8578 98.7908 21.963 98.4404 22.0564 98.09C22.1498 97.7396 22.1849 97.6578 22.255 97.4476L22.3951 96.9803C22.6404 96.1861 22.8857 95.4152 23.1427 94.6443C23.2011 94.5041 23.2478 94.364 23.2945 94.2238L23.4464 93.7916L23.5165 93.6047C23.5215 93.5777 23.5215 93.55 23.5165 93.523L23.7267 92.9273L24.2173 91.6424C24.3691 91.2336 24.5327 90.8248 24.6962 90.4744C24.9181 89.9254 25.14 89.3998 25.3503 88.8976C25.3503 88.7924 25.432 88.699 25.4787 88.5939L26.0744 87.2389L26.2146 86.9353C26.6117 86.0592 26.9505 85.3467 27.2074 84.8328L27.3593 84.5408C27.3803 84.4929 27.4037 84.4461 27.4294 84.4006L27.698 83.875H29.8005H29.999L30.8984 84.0969Z" fill="#0E7C56"/>
<path d="M53.6738 92.5089C44.1291 98.6448 33.8998 98.8648 23.8492 93.0325C23.9777 92.6821 24.1179 92.3317 24.2463 91.9929C24.2723 91.9093 24.3035 91.8274 24.3398 91.7477C24.4566 91.4323 24.585 91.1169 24.7019 90.8132C24.7019 90.7315 24.7719 90.638 24.8187 90.5446C25.0406 89.9956 25.2625 89.47 25.4728 88.9677C25.4728 88.9677 25.4728 88.886 25.4728 88.8393C25.5048 88.7832 25.5322 88.7246 25.5545 88.6641C25.7297 88.2669 25.8933 87.8815 26.0568 87.496C26.0808 87.4192 26.1121 87.3449 26.1502 87.2741L26.2904 86.9704C26.6875 86.0944 27.0262 85.3819 27.2832 84.8679L27.435 84.5759C27.4561 84.5281 27.4794 84.4813 27.5051 84.4358L27.7738 83.9102H51.9054C51.9054 83.9102 52.0572 84.5876 52.3025 85.7323C52.3726 86.0749 52.4543 86.4642 52.5478 86.9003C52.6062 87.1923 52.6763 87.5077 52.7464 87.8347C52.8165 88.1618 52.8865 88.4888 52.9566 88.8393C53.3421 90.638 53.1482 90.1845 53.6738 92.5089Z" fill="#069362"/>
<path d="M43.6328 147.835L43.3759 115.982L40.4558 112.969C40.4558 112.969 40.923 147.017 41.2384 148.746C41.2384 148.746 38.3767 157.167 37.524 161.594C36.8933 164.829 40.1171 200.221 40.1171 200.221H41.9392L39.498 163.895L43.6328 147.835Z" fill="#0E7C56"/>
<path d="M24.8489 153.608C24.8929 153.759 24.9878 153.891 25.1175 153.981C25.2639 154.039 25.4267 154.039 25.5731 153.981C26.3142 153.727 26.9587 153.249 27.4186 152.615C28.4698 151.283 30.7124 146.775 27.5587 146.67C24.405 146.564 24.0429 151.564 24.8489 153.608Z" fill="#27C255"/>
<path d="M45.9459 154.894C46.0321 155.244 46.1939 155.571 46.4199 155.851C46.6459 156.132 46.9307 156.359 47.2541 156.518C47.5401 156.599 47.8415 156.61 48.1325 156.549C48.4235 156.488 48.6953 156.357 48.9244 156.168C49.3804 155.785 49.7573 155.316 50.034 154.789C50.6154 153.87 51.0121 152.847 51.2021 151.776C51.5174 149.591 49.8472 146.73 47.3359 147.816C44.8246 148.902 45.2101 152.815 45.9459 154.894Z" fill="#27C255"/>
<path d="M30.6543 83.9452C30.3987 84.6505 30.0363 85.3123 29.5797 85.9075C29.4339 86.0913 29.2779 86.2667 29.1125 86.4331C28.06 87.4548 26.8287 88.2743 25.4799 88.8509C25.512 88.7949 25.5393 88.7363 25.5617 88.6757C25.7369 88.2786 25.9004 87.8931 26.0639 87.5077C26.8489 87.091 27.5755 86.5726 28.2248 85.9659C28.8427 85.3916 29.3288 84.6903 29.6498 83.9102L30.6543 83.9452Z" fill="#54ECB7"/>
<path d="M32.5332 83.9453L32.4281 84.3541C31.9843 85.9256 31.1575 87.3623 30.0219 88.5357C29.4307 89.1453 28.7724 89.686 28.0596 90.1476C27.46 90.5311 26.8357 90.8745 26.1908 91.1754C25.5484 91.4791 24.8826 91.7595 24.2168 92.0048C24.2428 91.9211 24.274 91.8392 24.3102 91.7595C24.427 91.4441 24.5555 91.1287 24.6723 90.825H24.7774C26.1673 90.2848 27.467 89.5365 28.632 88.6058C28.7955 88.4656 28.959 88.3254 29.1109 88.1736C30.2743 87.064 31.1141 85.659 31.5404 84.1088C31.5365 84.0544 31.5365 83.9998 31.5404 83.9453H32.5332Z" fill="#54ECB7"/>
<path d="M52.5703 86.8888C51.9275 86.6915 51.3314 86.3656 50.8183 85.931C50.1488 85.3597 49.5699 84.6902 49.1012 83.9453H50.1525C50.709 84.7285 51.457 85.3558 52.325 85.7675C52.3873 86.1101 52.4691 86.4838 52.5703 86.8888Z" fill="#54ECB7"/>
<path d="M52.957 88.8277C51.6652 88.5375 50.4613 87.9431 49.4455 87.0939C48.4298 86.2447 47.6314 85.1653 47.1169 83.9453H48.1214C48.5831 84.8843 49.238 85.7151 50.0431 86.3834C50.8483 87.0517 51.7856 87.5423 52.7935 87.8232C52.8169 88.1386 52.8869 88.4773 52.957 88.8277Z" fill="#54ECB7"/>
<path d="M51.8841 83.9453C42.3529 91.9463 27.1685 85.1133 27.1685 85.1133C27.2269 82.7772 24.8324 72.2649 22.7416 62.6637C22.1926 60.094 21.667 57.5827 21.2349 55.3284C20.6638 52.322 20.6203 49.2391 21.1064 46.2177C21.25 45.1864 21.5127 44.1752 21.889 43.2042C22.4048 42.5263 23.0474 41.9551 23.7812 41.5223L24.2133 41.2419H24.2717L24.4119 41.1485C25.9136 40.1333 27.5095 39.265 29.1775 38.5554L30.1703 38.2284C31.4552 37.8313 32.448 37.5977 32.448 37.5977H40.3672C40.8408 37.6068 41.3115 37.6734 41.7689 37.7962C42.0854 37.8768 42.3973 37.9743 42.7033 38.0882C43.9365 38.5514 45.1122 39.155 46.2074 39.887C47.1894 40.5285 48.1332 41.2266 49.0341 41.9778C54.8742 46.8485 54.5355 56.1928 51.0898 62.8973C50.1087 64.8946 51.8841 83.9453 51.8841 83.9453Z" fill="#FFD455"/>
<path d="M49.7773 61.9445H48.9831L46.8456 61.816C44.5897 61.6052 42.3147 61.7551 40.106 62.2598C39.4636 62.4234 38.8329 62.6219 38.1905 62.7971C37.5641 62.9663 36.9283 63.0989 36.2866 63.1943C35.2034 63.347 34.1068 63.3823 33.016 63.2994C32.5827 63.2741 32.1546 63.1916 31.7429 63.0541C31.4269 62.9593 31.1302 62.809 30.8669 62.6103C30.7018 62.4881 30.5595 62.3379 30.4464 62.1664L30.3413 61.9912L30.4931 62.1197C30.6439 62.2339 30.8088 62.3281 30.9837 62.4C31.6346 62.5994 32.3245 62.6355 32.9927 62.5051C34.0137 62.366 35.0243 62.1592 36.0179 61.8861C36.5786 61.7342 37.1859 61.559 37.7466 61.3488C38.3073 61.1385 38.9964 60.9166 39.6972 60.7297C41.0274 60.3888 42.4068 60.2821 43.7737 60.4144C44.8567 60.5252 45.9278 60.7323 46.9741 61.0334C47.8618 61.2904 48.5626 61.5357 49.0415 61.7109L49.7773 61.9445Z" fill="#EDB838"/>
<path d="M25.4743 94.7383C25.4743 94.7383 28.5579 92.4023 29.3522 93.2082C30.1464 94.0141 27.8221 96.14 27.8221 96.14L25.4743 94.7383Z" fill="#FB9988"/>
<path d="M34.9509 97.6734C34.6472 98.491 29.2275 95.7345 29.2275 95.7345L27.9777 96.9025L30.1385 98.2457L31.949 101.493C31.949 101.493 31.5285 102.077 30.9562 102.754L30.7459 103.023C30.3955 103.42 30.0218 103.841 29.6597 104.191C29.6347 104.228 29.603 104.26 29.5662 104.284C29.4025 104.43 29.2309 104.567 29.0523 104.693C28.9153 104.797 28.7548 104.865 28.5851 104.892L26.6578 102.719C25.1476 102.823 23.6313 102.795 22.1258 102.638C21.5794 102.02 21.1232 101.328 20.7709 100.582L19.9299 99.04L21.098 97.7201L23.8779 94.7416C24.2633 94.6365 24.7656 94.5197 25.3379 94.4029L26.214 94.2511C27.2789 94.0418 28.3674 93.9789 29.4494 94.0642C29.8017 94.0984 30.1455 94.1932 30.4656 94.3445C32.3695 95.314 35.2662 96.8441 34.9509 97.6734Z" fill="#FDBD8E"/>
<path d="M29.6582 104.18C29.6333 104.217 29.6015 104.249 29.5647 104.274L29.2961 103.888C29.0625 103.526 28.7237 103.047 28.35 102.545C28.0313 102.103 27.6757 101.689 27.2871 101.307L27.0652 101.109L26.8899 100.968L26.7264 100.852H26.925H27.1703L27.4623 100.98C28.0128 101.252 28.4896 101.653 28.8523 102.148C29.1934 102.615 29.4431 103.142 29.5881 103.702C29.6221 103.859 29.6456 104.019 29.6582 104.18Z" fill="#FD7D6F"/>
<path d="M30.9531 102.752L30.7429 103.021V102.951L29.7851 101.608C29.4639 101.168 29.1084 100.754 28.7222 100.37L28.5119 100.183L28.325 100.043L28.1732 99.9141H28.3718L28.6054 99.9842L28.8974 100.101C29.4531 100.37 29.9344 100.771 30.299 101.269C30.6049 101.72 30.8265 102.222 30.9531 102.752Z" fill="#FD7D6F"/>
<path d="M29.0488 104.684C28.9119 104.788 28.7514 104.856 28.5816 104.883L26.6544 102.71C25.1442 102.813 23.6279 102.786 22.1224 102.628C21.576 102.011 21.1198 101.318 20.7675 100.573L19.9265 99.0308L21.0945 97.7109C21.3164 98.1782 21.5501 98.6571 21.7953 99.1126C22.4611 100.374 23.1619 101.449 23.6759 101.519C25.0074 101.787 27.18 102.068 27.18 102.068L29.0488 104.684Z" fill="#FB9988"/>
<path d="M23.875 94.7435L21.1418 97.7336L19.9738 99.0535C19.9738 99.0535 0.572733 86.2752 0.023756 82.701C-0.151449 81.533 0.853035 77.6435 3.28255 72.5625L5.2916 73.1232L13.3277 75.3775L9.82351 81.5447L23.875 94.7435Z" fill="#FDBD8E"/>
<path d="M21.1367 97.7102L19.9687 99.0301C19.9687 99.0301 0.567648 86.2518 0.018671 82.6776C-0.156534 81.5096 0.84795 77.62 3.27746 72.5391L5.28652 73.0997C4.11848 76.1833 2.07439 81.895 2.62337 82.736C3.33587 83.8807 21.1367 97.7102 21.1367 97.7102Z" fill="#FB9988"/>
<path d="M24.5312 41.0938V44.119V59.7589L22.8493 62.6907L22.1368 63.9405L14.6497 75.6909L4.04395 72.7241L2.66568 72.3504C7.5247 62.0366 15.3271 48.0202 16.063 47.2026C18.5249 45.1597 21.1112 43.2716 23.8071 41.5493L24.2392 41.269H24.2976L24.4378 41.1755L24.5312 41.0938Z" fill="#FFD455"/>
<path d="M31.5391 39.7333C31.5391 39.7333 28.035 41.9292 24.5309 44.1135L21.1786 46.2393C20.0791 46.9067 19.0184 47.6359 18.0015 48.4235C17.6044 48.9491 7.08039 67.3457 3.9851 72.7186L2.60682 72.3449C7.52425 62.0311 15.3267 48.0147 16.0626 47.1971C18.5245 45.1542 21.1108 43.2661 23.8067 41.5438L24.2388 41.2635H24.2972L24.4374 41.17C25.9382 40.1468 27.5341 39.2706 29.203 38.5536L30.1958 38.2266L31.5391 39.7333Z" fill="#FFE598"/>
<path d="M2.57478 69.7891L1.30159 73.6786L13.9514 77.2645L15.8086 74.9518L2.57478 69.7891Z" fill="#FFF0E7"/>
<path d="M21.3079 43.2385C21.3079 43.2385 23.7959 39.9563 26.7627 39.7344C26.7627 39.7344 31.6217 74.9973 22.5928 80.0199C22.5928 80.0199 28.2928 60.6656 21.3079 43.2385Z" fill="#0F3358"/>
<path d="M52.8672 34.2475C51.7742 34.6097 50.6581 34.8984 49.5266 35.1118C41.7592 36.6419 32.0061 35.4973 26.4229 34.5512C23.5962 34.084 21.7507 33.6635 21.7507 33.6635C21.7507 33.6635 20.8397 26.0479 20.8397 23.1512C20.8381 21.4932 20.9631 19.8376 21.2134 18.1987C22.8253 7.68638 29.2145 2.9208 29.6583 2.59375H41.7124L46.1043 4.80133L46.9803 5.25687L47.319 5.43207L52.1313 7.89663L52.2481 12.0315L52.3416 15.3136L52.8672 34.2475Z" fill="#55062C"/>
<path d="M50.4479 32.7508C50.2252 33.5604 49.9158 34.3436 49.5251 35.0869C41.7577 36.617 32.0046 35.4723 26.4214 34.5262C24.5665 31.545 23.572 28.109 23.548 24.5979C23.5387 21.1062 24.0384 17.6318 25.0314 14.2842C25.6643 11.6158 26.7254 9.06758 28.1735 6.73868C29.3061 4.98689 30.8656 3.55194 32.7054 2.5688L32.9858 2.42863C35.0735 1.61696 37.3162 1.28176 39.5501 1.44748C41.0074 1.42907 42.4469 1.76878 43.7422 2.43679C45.0374 3.10479 46.1489 4.08065 46.9788 5.27864C48.4038 7.50958 48.5323 10.2778 48.871 12.9059C49.3032 16.2231 50.1442 19.4819 50.6581 22.7875C51.2844 26.0868 51.2128 29.4808 50.4479 32.7508Z" fill="#3F0727"/>
<path d="M53.7307 25.1602C53.6813 24.9042 53.6189 24.6508 53.5438 24.401C53.449 23.9999 53.316 23.6088 53.1467 23.233C52.9319 22.8033 52.6522 22.4093 52.3174 22.0649C51.9815 21.7015 51.5866 21.3974 51.1494 21.1656C50.7974 20.9881 50.4299 20.8434 50.0514 20.7334L49.6659 20.6399L49.444 20.4297C49.4754 20.486 49.5028 20.5446 49.5258 20.6049H49.2805H49.0002L49.6659 21.0371L49.993 21.808C50.4308 22.779 50.7523 23.7984 50.9508 24.8449C51.099 25.9009 51.1499 26.9683 51.1026 28.0336C51.1026 28.4658 51.1026 28.8162 51.1026 29.0615C51.1026 29.3067 51.1026 29.4469 51.1026 29.4469C51.1026 29.4469 51.1026 29.3184 51.2545 29.0965C51.4063 28.8746 51.4764 28.5359 51.6166 28.127C51.7834 27.637 51.9046 27.1326 51.9787 26.6203C52.0839 25.9743 52.0839 25.3156 51.9787 24.6697C51.8643 24.0225 51.6433 23.3989 51.3246 22.8242C51.0839 22.4077 50.8022 22.0164 50.4836 21.6561C50.9479 21.9777 51.3784 22.3456 51.7684 22.7541C52.3032 23.3612 52.7839 24.0139 53.2051 24.7047L53.6373 25.3588L53.8008 25.5924C53.7655 25.4505 53.7421 25.306 53.7307 25.1602Z" fill="#3F0727"/>
<path d="M46.2754 39.848C45.8389 41.3996 45.0166 42.8154 43.8851 43.9632C42.7535 45.1111 41.3497 45.9537 39.8045 46.4123C34.1512 48.3045 30.4602 41.2029 29.2922 38.5281C30.3653 38.1535 31.4569 37.8338 32.5627 37.5703H40.4819C40.9555 37.5794 41.4261 37.6461 41.8836 37.7689C42.2 37.8494 42.512 37.9469 42.818 38.0609C44.0345 38.5236 45.1944 39.1232 46.2754 39.848Z" fill="#FDBD8E"/>
<path d="M39.5 45.3303L32.4918 37.5746C32.4918 36.4065 32.597 35.9861 32.7021 33.1361C32.8189 29.959 32.9357 26.9922 32.9357 26.9922L41.8828 30.4963C40.9316 32.7904 40.39 35.2336 40.2826 37.7147C40.1862 40.2675 39.9248 42.8113 39.5 45.3303Z" fill="#FDBD8E"/>
<path d="M41.9277 30.5001C40.9765 32.7942 40.435 35.2374 40.3275 37.7185L39.5099 38.0339C38.4703 38.396 35.1298 35.4292 32.747 33.1048C32.8638 29.9277 32.9806 26.9609 32.9806 26.9609L41.9277 30.5001Z" fill="#FB9988"/>
<path d="M51.3254 19.8936C51.1362 20.7732 50.9023 21.6425 50.6246 22.4983C50.6246 22.4983 51.0334 26.9836 50.5545 27.9881C50.0756 28.9926 47.0504 35.2532 43.9084 34.8678C41.257 34.5524 34.7977 30.6745 32.5434 28.3735C32.1898 28.055 31.921 27.6536 31.7608 27.2055C31.4572 25.4301 30.3942 17.5809 30.2891 16.9268C30.0205 15.1397 29.2729 1.67224 45.567 5.42163C47.0011 5.74204 48.316 6.45973 49.3612 7.49256C50.4064 8.5254 51.1398 9.83165 51.4773 11.2618C52.0704 14.1144 52.0185 17.0636 51.3254 19.8936Z" fill="#FDBD8E"/>
<path d="M50.6215 22.4953C50.6215 22.4953 51.0303 26.9806 50.5514 27.9851C50.0726 28.9896 47.0473 35.2503 43.9053 34.8648C41.2539 34.5495 34.7946 30.6716 32.5403 28.3706C35.2969 30.2745 42.6322 35.1568 44.793 34.4093C47.4562 33.4749 50.4697 27.5763 50.4113 26.9923C50.3529 26.4083 50.1777 22.5771 50.1777 22.5771C50.1777 22.5771 50.715 21.4091 51.3457 19.8906C51.1488 20.7706 50.9071 21.64 50.6215 22.4953Z" fill="#FFDABA"/>
<path d="M32.498 26.9969C31.6547 26.9232 30.8353 26.678 30.0901 26.2763C29.3449 25.8746 28.6897 25.3249 28.1646 24.6608C27.9982 24.4627 27.8533 24.2473 27.7324 24.0184C27.1484 22.9555 26.9849 19.2879 28.48 18.4352C29.5312 17.8395 30.3021 18.7039 30.6642 19.2762C30.7573 19.4135 30.8393 19.558 30.9095 19.7084L32.498 26.9969Z" fill="#FFDABA"/>
<path d="M32.498 26.9956C31.6547 26.9219 30.8353 26.6767 30.0901 26.275C29.3449 25.8733 28.6897 25.3235 28.1646 24.6595L27.9778 24.3675C27.3937 23.3046 27.2302 19.6954 28.737 18.7843C29.0588 18.5987 29.4403 18.5462 29.8003 18.6378C30.1603 18.7294 30.4703 18.958 30.6642 19.2749C30.7573 19.4122 30.8393 19.5567 30.9095 19.707L32.498 26.9956Z" fill="#FDBD8E"/>
<path d="M28.031 21.2948C27.9605 21.5907 27.985 21.9013 28.101 22.1825C28.7236 23.4503 29.7017 24.5096 30.916 25.231C30.571 24.647 30.4273 23.9657 30.5072 23.2921C30.5421 23.0676 30.5655 22.8415 30.5773 22.6146C30.5656 21.6919 28.4515 19.5544 28.031 21.2948Z" fill="#FB9988"/>
<path d="M31.5391 25.5776H31.469L31.2821 25.4725C31.0636 25.3257 30.867 25.1487 30.6981 24.9469C30.4632 24.6623 30.2991 24.326 30.2192 23.9657C30.1267 23.5286 30.1801 23.0732 30.371 22.6692L30.4528 22.5057V22.4356L30.371 22.2955C30.2542 22.1202 30.1374 21.945 30.0206 21.7932C29.9038 21.6414 29.7636 21.4895 29.6352 21.3493C29.5195 21.227 29.3945 21.1137 29.2614 21.0106C29.1521 20.924 29.0241 20.864 28.8876 20.8354C28.7802 20.8092 28.668 20.8092 28.5606 20.8354C28.4986 20.8627 28.4459 20.9073 28.4087 20.9639C28.4265 20.8938 28.4677 20.832 28.5255 20.7887C28.6375 20.7172 28.7665 20.6769 28.8993 20.6719C29.0806 20.6788 29.2573 20.731 29.4132 20.8237C29.5731 20.921 29.7255 21.0304 29.8688 21.1508C30.0167 21.2754 30.1686 21.4155 30.3243 21.5713C30.4698 21.7391 30.6062 21.9146 30.7331 22.0969L30.8382 22.237V22.3071L30.9083 22.4123V22.494V22.5641L30.8499 22.6692C30.8184 22.7133 30.791 22.7602 30.7682 22.8094C30.5966 23.1732 30.5318 23.5782 30.5813 23.9774C30.622 24.307 30.7294 24.6249 30.8967 24.9118C31.016 25.1232 31.1655 25.316 31.3405 25.4842L31.4923 25.6127L31.5391 25.5776Z" fill="#FD7D6F"/>
<path d="M52.8125 16.6652C52.8125 16.6652 50.7334 13.8853 49.5771 14.9832C48.4207 16.0812 48.9347 16.1513 48.9347 16.1513L52.8125 16.6652Z" fill="#55062C"/>
<path d="M36.3451 17.1036C36.3451 17.1036 40.1763 12.6768 41.7531 14.2536C42.6642 15.1647 42.0334 15.7837 42.0334 15.7837L36.3451 17.1036Z" fill="#55062C"/>
<path d="M41.4746 17.5469C41.1997 18.0313 40.7667 18.4065 40.2482 18.6098C40.1557 18.4884 40.0377 18.3888 39.9024 18.3182C39.7672 18.2475 39.618 18.2075 39.4656 18.201C38.718 18.201 38.1107 19.1704 38.1107 20.3735C38.1107 21.5766 38.718 22.5461 39.4656 22.5461C40.2131 22.5461 40.8088 21.5766 40.8088 20.3735C40.8096 20.0253 40.7584 19.6788 40.657 19.3456C41.0729 18.8222 41.3537 18.2044 41.4746 17.5469Z" fill="#161818"/>
<path d="M36.8067 19.1584C37.1319 19.6318 37.5802 20.0074 38.1032 20.2447C38.6459 20.4393 39.2311 20.4837 39.7969 20.3732C39.4792 19.8944 39.0216 19.5254 38.4865 19.3163C37.9514 19.1073 37.3647 19.0685 36.8067 19.2051V19.1584Z" fill="#FFF0E7"/>
<path d="M50.6387 18.7031C50.4442 19.032 50.1495 19.2899 49.7977 19.439C49.6568 19.2912 49.4644 19.2034 49.2604 19.1937C48.6997 19.1937 48.2442 19.9296 48.2442 20.8289C48.2442 21.7283 48.6997 22.4759 49.2604 22.4759C49.8211 22.4759 50.2882 21.74 50.2882 20.8289C50.2889 20.5168 50.2294 20.2075 50.113 19.9179C50.3754 19.5565 50.5549 19.1418 50.6387 18.7031Z" fill="#161818"/>
<path d="M51.1582 19.9862C50.9078 20.3023 50.5827 20.5512 50.2121 20.7104C49.8394 20.8493 49.439 20.8974 49.0441 20.8505C49.2948 20.5347 49.6198 20.2859 49.9902 20.1263C50.3628 19.9874 50.7633 19.9393 51.1582 19.9862Z" fill="#FFF0E7"/>
<path d="M44.6544 25.3858C44.337 25.2185 43.9853 25.1266 43.6266 25.1172C43.9905 25.9285 44.6569 26.5655 45.4837 26.8926C45.5456 26.9033 45.6088 26.9033 45.6706 26.8926C45.7548 26.8887 45.836 26.8603 45.9042 26.8108C46.3584 26.5449 46.7554 26.1916 47.0722 25.7713C47.1408 25.6887 47.1924 25.5935 47.2241 25.491C47.3058 25.1522 47.0606 25.2223 46.862 25.3041C46.6271 25.4018 46.3792 25.4648 46.1261 25.491C45.6344 25.5789 45.1286 25.5428 44.6544 25.3858Z" fill="#FB9988"/>
<path d="M45.5519 26.698C45.7621 26.5111 45.9957 26.3476 46.206 26.1723C46.4706 25.9468 46.7131 25.6965 46.9301 25.4248C45.8205 24.6656 45.8322 23.4975 45.8906 22.1893C45.9158 21.593 46.0755 21.01 46.3578 20.484C46.5128 20.2118 46.6968 19.9572 46.9068 19.7248L47.2572 19.4094C47.3717 19.3134 47.5022 19.2383 47.6427 19.1875C47.5726 19.2693 47.5259 19.3627 47.4675 19.4445C47.2988 19.6448 47.1427 19.8554 47.0002 20.0752C46.8565 20.3003 46.7353 20.539 46.6381 20.7877C46.4369 21.2818 46.3261 21.8079 46.3111 22.3412C46.2868 22.8665 46.3703 23.3912 46.5564 23.883C46.7737 24.4624 47.1604 24.963 47.666 25.3197C47.666 25.3197 46.9068 26.2074 46.8367 26.2775C46.6399 26.461 46.429 26.629 46.206 26.7797C45.9909 26.9484 45.7309 27.05 45.4584 27.0717C45.3715 27.0736 45.286 27.0492 45.2131 27.0017L45.3416 26.8965H45.4L45.5519 26.698Z" fill="#FD7D6F"/>
<path d="M43.6377 30.1172C44.0553 30.3235 44.5124 30.4376 44.9779 30.4517C45.4435 30.4658 45.9066 30.3796 46.3359 30.1989C46.2065 30.4091 46.0238 30.5814 45.8064 30.6983C45.5889 30.8152 45.3445 30.8726 45.0978 30.8647C44.5367 30.8002 44.0181 30.5347 43.6377 30.1172Z" fill="#FD7D6F"/>
<path d="M40.4973 27.7578C41.5705 28.5189 42.8115 29.0097 44.1149 29.1887C45.4184 29.3676 46.7458 29.2294 47.9844 28.7857C46.6323 29.026 45.2484 29.026 43.8963 28.7857C42.7083 28.6618 41.5548 28.3129 40.4973 27.7578Z" fill="#FD7D6F"/>
<path d="M54.248 20.4617C54.2403 21.5266 53.8219 22.5475 53.08 23.3117C52.9264 23.4745 52.7583 23.6231 52.5778 23.7555L52.2507 23.9775C52.1207 24.059 51.9839 24.1294 51.8419 24.1877C51.5399 24.3293 51.2224 24.4351 50.8958 24.5031H50.7673C50.6079 24.5145 50.4478 24.5145 50.2884 24.5031H49.7628C49.0129 24.4498 48.2913 24.1948 47.6745 23.7651C47.0577 23.3354 46.5685 22.7469 46.2587 22.0619C46.1339 21.7808 46.0399 21.4871 45.9783 21.1858C45.9371 20.974 45.9137 20.7592 45.9083 20.5434C45.6113 20.3798 45.2778 20.294 44.9388 20.294C44.5998 20.294 44.2663 20.3798 43.9694 20.5434C43.9437 21.4423 43.6512 22.3132 43.1292 23.0453C42.6071 23.7775 41.879 24.3378 41.0376 24.6549C40.5454 24.8252 40.0283 24.9121 39.5075 24.9119C38.3054 24.9088 37.1532 24.4307 36.3021 23.5818C35.451 22.7329 34.9699 21.582 34.9638 20.3799C34.9693 20.0581 35.0045 19.7375 35.0689 19.4221L32.6511 19.0367L30.9341 18.7563H30.7122H30.5486H30.2566H29.9763H29.9179L29.2755 18.6512H29.2054V18.3242V18.1022V17.9738L30.3734 18.1606L31.0158 18.2774L35.2792 18.8147C35.5291 18.1523 35.9289 17.5567 36.4472 17.0744C37.28 16.3225 38.3621 15.9063 39.4841 15.9063C40.5977 15.8994 41.6745 16.3049 42.507 17.0446C43.3394 17.7843 43.8687 18.806 43.9927 19.9127C44.6298 19.6567 45.3412 19.6567 45.9783 19.9127C46.1041 19.0376 46.5063 18.2256 47.1262 17.5952C47.746 16.9648 48.5512 16.549 49.4241 16.4086C49.5871 16.3914 49.7516 16.3914 49.9146 16.4086H50.0782C50.4734 16.4064 50.8668 16.4614 51.2462 16.5721C51.4451 16.6299 51.6401 16.7001 51.8302 16.7824C52.0271 16.876 52.2182 16.9813 52.4025 17.0977C52.9563 17.4704 53.4128 17.9703 53.7339 18.5555C54.055 19.1408 54.2313 19.7944 54.248 20.4617ZM43.3503 20.4617C43.3503 19.4425 42.9454 18.465 42.2248 17.7444C41.5041 17.0237 40.5266 16.6188 39.5075 16.6188C38.4883 16.6188 37.5108 17.0237 36.7902 17.7444C36.0695 18.465 35.6646 19.4425 35.6646 20.4617C35.6677 21.4799 36.0735 22.4556 36.7935 23.1756C37.5136 23.8956 38.4892 24.3014 39.5075 24.3045C39.867 24.3015 40.2244 24.2505 40.5704 24.1527C41.3771 23.9205 42.0856 23.4305 42.5876 22.7577C43.0896 22.0848 43.3575 21.2661 43.3503 20.4266V20.4617ZM53.5472 20.4617C53.5397 19.9777 53.4321 19.5006 53.231 19.0604C53.03 18.6201 52.74 18.2263 52.3792 17.9037C52.1726 17.7271 51.9497 17.5707 51.7134 17.4365C51.2085 17.16 50.6421 17.0154 50.0665 17.016C49.8954 17.004 49.7237 17.004 49.5526 17.016C48.8297 17.1513 48.1677 17.5107 47.6604 18.0431C47.153 18.5756 46.8261 19.2542 46.7259 19.9828C46.7143 20.1305 46.7143 20.2789 46.7259 20.4266C46.7201 20.5239 46.7201 20.6214 46.7259 20.7186C46.8091 21.5761 47.2052 22.3729 47.8387 22.9568C48.4721 23.5407 49.2985 23.8708 50.1599 23.884H50.23C50.3777 23.8961 50.5262 23.8961 50.6739 23.884H50.7439C51.0373 23.8292 51.3207 23.7308 51.5849 23.592C51.7849 23.4976 51.9731 23.38 52.1456 23.2416C52.2731 23.149 52.3905 23.0433 52.496 22.9262L52.6945 22.716C53.2364 22.089 53.5385 21.2903 53.5472 20.4617Z" fill="#161818"/>
<path d="M52.565 12.1949C52.5452 13.2496 52.4672 14.3024 52.3314 15.3486L52.273 15.699C47.0285 12.0197 47.0169 7.77971 47.157 6.44815C45.7437 13.8652 30.0103 18.1285 30.0103 18.1285L27.8027 19.0863C27.3081 18.5095 26.9133 17.8542 26.6346 17.1473C25.7353 15.0799 25.0228 11.3072 27.3238 5.93422C27.8514 4.643 28.671 3.49158 29.7183 2.57028C34.7875 -1.79817 43.6296 0.72478 43.6296 0.72478C51.5839 0.000598456 52.6585 7.5461 52.565 12.1949Z" fill="#3F0727"/>
<path d="M34.2053 21.7364C34.1508 21.5573 34.0574 21.312 33.925 21.0005C33.7714 20.6393 33.5878 20.2915 33.376 19.961C33.1147 19.5243 32.7877 19.1303 32.4065 18.793C32.0171 18.4819 31.5791 18.2372 31.11 18.0688C30.7311 17.9338 30.3399 17.836 29.942 17.7768H29.5565L29.2996 17.6016L29.4047 17.7651H28.8674L29.5916 18.1155L30.0121 18.828C30.575 19.7334 31.0297 20.7017 31.367 21.713C31.6534 22.7441 31.8411 23.8001 31.9276 24.8667C31.986 25.2872 32.0328 25.6376 32.0561 25.8829L32.1145 26.2567L32.2196 25.8829C32.2897 25.6493 32.3715 25.3106 32.4533 24.8784C32.5511 24.37 32.6059 23.8542 32.6168 23.3366C32.6348 22.6846 32.548 22.0339 32.3598 21.4094C32.1619 20.7807 31.862 20.1887 31.4721 19.6573C31.1794 19.2585 30.8467 18.8906 30.4793 18.5594C30.9821 18.8154 31.4559 19.1248 31.8926 19.4821C32.5045 20.0104 33.0674 20.5929 33.5746 21.2225C33.7965 21.4678 33.96 21.678 34.0885 21.8182L34.2754 22.0284C34.2754 22.0284 34.2637 21.9116 34.2053 21.7364Z" fill="#3F0727"/>
<path d="M52.5656 12.1988C52.4518 12.1642 52.3421 12.1172 52.2385 12.0587C49.7506 10.8906 48.1387 7.64349 47.3094 5.45927C46.8539 4.29123 46.632 3.40352 46.632 3.40352C46.5684 3.9144 46.3842 4.40284 46.0947 4.82853C44.4828 7.52669 39.799 11.3462 39.799 11.3462L40.4881 9.19697C40.4881 9.19697 39.215 11.2878 34.3676 14.3363C31.9434 15.6725 29.3273 16.6259 26.6119 17.163C24.6262 17.6302 22.699 17.9689 21.2506 18.1908C21.5267 16.3891 21.9725 14.6175 22.5821 12.8996C23.9311 8.85866 26.3975 5.28261 29.6955 2.5859C34.7648 -1.78255 43.6068 0.740407 43.6068 0.740407C44.1357 0.706014 44.6663 0.706014 45.1953 0.740407C51.7246 1.05578 52.6474 7.8771 52.5656 12.1988Z" fill="#55062C"/>
<path d="M45.2266 0.693685C44.1298 2.54013 42.5878 4.0822 40.7413 5.17894C41.0522 4.6077 41.1901 3.95837 41.1384 3.31008C38.841 6.63509 35.6502 9.24277 31.9343 10.8322C32.3806 9.95971 32.5862 8.984 32.53 8.00558C30.2479 10.0817 27.5058 11.5868 24.529 12.3974C23.9043 12.6004 23.2686 12.7681 22.6251 12.8996C23.974 8.85866 26.4404 5.28261 29.7384 2.5859C34.8077 -1.78255 43.6497 0.740407 43.6497 0.740407C44.1738 0.690946 44.7005 0.675338 45.2266 0.693685Z" fill="#6F0A32"/>
<path d="M33.506 56.5703C34.0729 56.5703 34.5166 56.4126 34.8321 56.102C35.1476 55.7914 35.3054 55.3773 35.3054 54.8596C35.3054 54.342 35.1476 53.9278 34.8272 53.6123C34.5117 53.2919 34.068 53.1341 33.501 53.1341H32.2735V56.5703H33.506ZM32.8897 53.6912H33.4567C34.3194 53.6912 34.6892 54.1349 34.6892 54.8596C34.6892 55.5646 34.3145 56.0132 33.4616 56.0132H32.8897V53.6912Z" fill="white"/>
<path d="M36.6385 56.5703V54.623H37.1068V54.0856H36.6385V53.918C36.6385 53.6666 36.742 53.568 36.9638 53.568C37.0674 53.568 37.1463 53.5778 37.1906 53.5926V53.0848C37.1167 53.07 37.0329 53.0651 36.9343 53.0651C36.6533 53.0651 36.4511 53.1193 36.318 53.2278C36.1257 53.3806 36.0469 53.5827 36.0469 53.9624V54.0856H35.6426V54.623H36.0469V56.5703H36.6385ZM38.5223 54.0314C38.1723 54.0314 37.8765 54.1546 37.6349 54.4061C37.3983 54.6526 37.28 54.9582 37.28 55.328C37.28 55.6977 37.3983 56.0034 37.6349 56.2548C37.8765 56.5013 38.1723 56.6245 38.5223 56.6245C38.9315 56.6245 39.2322 56.452 39.3161 56.2104V56.5703H39.9077V54.0856H39.3161V54.4455C39.2322 54.2039 38.9315 54.0314 38.5223 54.0314ZM38.6012 56.0872C38.3892 56.0872 38.2167 56.0132 38.0737 55.8703C37.9357 55.7273 37.8666 55.5449 37.8666 55.328C37.8666 55.111 37.9357 54.9286 38.0737 54.7857C38.2167 54.6427 38.3892 54.5687 38.6012 54.5687C38.8132 54.5687 38.9956 54.6427 39.1386 54.7857C39.2865 54.9286 39.3604 55.111 39.3604 55.328C39.3604 55.5449 39.2865 55.7273 39.1386 55.8703C38.9956 56.0132 38.8132 56.0872 38.6012 56.0872ZM42.8421 54.0856H42.2308L41.5111 55.5646L40.7913 54.0856H40.175L41.5111 56.7281L42.8421 54.0856ZM43.235 56.2647C43.4963 56.5161 43.8168 56.6443 44.1964 56.6443C44.576 56.6443 44.8964 56.5161 45.1577 56.2647C45.419 56.0132 45.5521 55.6977 45.5521 55.328C45.5521 54.9582 45.419 54.6427 45.1577 54.3913C44.8964 54.1398 44.576 54.0117 44.1964 54.0117C43.8168 54.0117 43.4963 54.1398 43.235 54.3913C42.9738 54.6427 42.8406 54.9582 42.8406 55.328C42.8406 55.6977 42.9738 56.0132 43.235 56.2647ZM44.1964 56.1069C43.9745 56.1069 43.7921 56.0329 43.6442 55.885C43.5013 55.7322 43.4273 55.5498 43.4273 55.328C43.4273 55.1061 43.5013 54.9237 43.6442 54.7758C43.7921 54.623 43.9745 54.549 44.1964 54.549C44.4133 54.549 44.5957 54.623 44.7436 54.7758C44.8915 54.9237 44.9655 55.1061 44.9655 55.328C44.9655 55.5498 44.8915 55.7322 44.7436 55.885C44.5957 56.0329 44.4133 56.1069 44.1964 56.1069Z" fill="#181818"/>
</svg>
