<svg width="63" height="102" viewBox="0 0 63 102" fill="none" xmlns="http://www.w3.org/2000/svg">
<path fill-rule="evenodd" clip-rule="evenodd" d="M31.2496 102.001C48.4601 102.001 62.4993 99.0758 62.4993 95.4866C62.4993 91.8975 48.4643 88.9727 31.2496 88.9727C14.0391 88.9727 0 91.8975 0 95.4866C0.00417832 99.0758 14.0391 102.001 31.2496 102.001Z" fill="#E6E7E8"/>
<path fill-rule="evenodd" clip-rule="evenodd" d="M15.5138 96.2697C17.5821 96.2697 19.266 95.9187 19.266 95.4884C19.266 95.058 17.5821 94.707 15.5138 94.707C13.4456 94.707 11.7617 95.058 11.7617 95.4884C11.7617 95.9146 13.4456 96.2697 15.5138 96.2697Z" fill="#888888"/>
<path fill-rule="evenodd" clip-rule="evenodd" d="M11.3171 99.3209C16.1806 99.3209 20.1459 97.4449 20.1459 95.1468C20.1459 92.8487 16.1806 90.9727 11.3171 90.9727C6.45351 90.9727 2.48828 92.8487 2.48828 95.1468C2.49246 97.449 6.45768 99.3209 11.3171 99.3209Z" fill="#3E3639"/>
<path fill-rule="evenodd" clip-rule="evenodd" d="M9.14258 9.89844H15.9449V95.6542V96.7447L15.9156 96.7698L15.9115 96.774L15.8738 96.8074L15.8655 96.8158L15.8363 96.8367L15.8112 96.8576L15.7986 96.8659L15.761 96.8952L15.6775 96.9578L15.6357 96.9829V96.9871L15.5939 97.0122L15.573 97.0247L15.5479 97.0414L15.5061 97.0665L15.502 97.0707L15.456 97.0957L15.4393 97.1041L15.4101 97.125L15.3724 97.1459L15.3599 97.1501L15.3098 97.1751L15.3014 97.1793L15.2596 97.2002L15.2304 97.2169L15.2095 97.2253L15.1594 97.2503L15.1552 97.2545L15.105 97.2754L15.08 97.2879L15.0507 97.3005L15.0006 97.3255H14.9964L14.9421 97.3464L14.9212 97.359L14.8836 97.3715L14.8376 97.3882L14.8293 97.3924L14.7708 97.4133L14.7541 97.4216L14.7123 97.4384L14.6705 97.4509L14.6538 97.4592L14.5911 97.4801H14.5869L14.5326 97.501L14.4992 97.5094L14.4699 97.5177L14.4072 97.5386L14.3446 97.5553L14.3195 97.5637L14.2819 97.5762L14.2276 97.5888L14.2192 97.593L14.1524 97.6097L14.1315 97.6138L14.0855 97.6264L14.0396 97.6389L14.0228 97.6431L13.9518 97.6598H13.9435L13.885 97.6723L13.8432 97.6807L13.8181 97.689L13.7471 97.7016L13.6802 97.7141L13.6468 97.7225L13.6092 97.7308L13.5423 97.7392L13.5382 97.7434L13.4671 97.7517L13.4421 97.7559L13.3961 97.7643L13.3376 97.7726L13.3251 97.7768L13.2499 97.7851L13.2331 97.7893L13.1747 97.7935L13.1287 97.8019L13.1036 97.8061L13.0284 97.8144H13.02L12.9532 97.8228L12.9156 97.8269H12.878L12.807 97.8353H12.8028L12.7276 97.8395L12.6941 97.8436L12.6482 97.8478L12.5855 97.852H12.573L12.4936 97.8562H12.4727L12.3599 97.8603H12.339L12.2596 97.8645H12.2471H12.1802L12.1342 97.8687H12.1008H12.0214H11.9713H11.917H11.9086H11.8668L11.8167 97.8645H11.7916H11.7665L11.7164 97.8603H11.6788H11.6621H11.612L11.566 97.8562H11.5618H11.5117L11.4615 97.852H11.4574L11.4156 97.8478L11.3654 97.8436H11.3446L11.3153 97.8395L11.2652 97.8353H11.2359L11.215 97.8311L11.1691 97.8269H11.1273L11.1189 97.8228L11.0688 97.8186L11.0228 97.8144H11.0186L10.9727 97.8102L10.9267 97.8019L10.8807 97.7977L10.8306 97.7893H10.8097L10.7847 97.7851L10.7387 97.7768L10.7053 97.7726H10.6886L10.6426 97.7643L10.6008 97.7559H10.5966L10.5507 97.7476L10.5047 97.7434L10.4963 97.7392L10.4588 97.735L10.4128 97.7267L10.3961 97.7225L10.3668 97.7183L10.325 97.7057L10.2958 97.7016L10.2791 97.6974L10.2373 97.689L10.1913 97.6807L10.1454 97.6723L10.1036 97.6598L10.0618 97.6514L10.0159 97.6389H10.0033L9.97406 97.6305L9.93229 97.6222L9.90722 97.6138L9.89049 97.6097L9.84871 97.5971L9.80694 97.5888L9.76514 97.5762L9.72337 97.5637L9.68157 97.5512L9.6398 97.5386L9.60218 97.5261L9.56041 97.5136L9.40581 97.4634L9.37238 97.4509H9.3682L9.32643 97.4342L9.28881 97.4216L9.25122 97.4091L9.2136 97.3924L9.18019 97.3799L9.14258 97.3631V95.5999V9.89844Z" fill="#A37D73"/>
<path fill-rule="evenodd" clip-rule="evenodd" d="M9.14258 9.89844H15.949V10.5001C15.0089 11.2271 13.8307 11.6617 12.5479 11.6617C11.2652 11.6617 10.0869 11.2271 9.14258 10.5001V9.89844Z" fill="#170603"/>
<path fill-rule="evenodd" clip-rule="evenodd" d="M12.5437 9.89844H9.14258V95.6542V96.7447L9.17183 96.7698L9.17601 96.774L9.20526 96.7991L9.22615 96.8158L9.23867 96.8283L9.2721 96.8534L9.28047 96.8576L9.30972 96.8826L9.34313 96.9077L9.38075 96.9328L9.41834 96.962L9.45595 96.9871L9.49357 97.0122L9.51864 97.0247L9.53534 97.0372L9.57711 97.0623L9.5813 97.0665L9.61891 97.0874L9.64816 97.1041L9.66069 97.1124L9.70248 97.1333L9.71919 97.1459L9.74426 97.1584L9.79021 97.1793V97.1835L9.83617 97.2044L9.86124 97.2169L9.88215 97.2294L9.9281 97.2503L9.93647 97.2545L9.97406 97.2712L10.0117 97.2879L10.02 97.2921L10.0702 97.3172L10.0911 97.3255L10.1203 97.3381L10.1705 97.359L10.2206 97.3757L10.2498 97.3882L10.2707 97.3966L10.3209 97.4174L10.3334 97.4216L10.3752 97.4384L10.417 97.4509L10.4295 97.4551L10.4838 97.476L10.5047 97.4801L10.5381 97.4927L10.5924 97.5094L10.6468 97.5261L10.6802 97.5386L10.7053 97.5428L10.7596 97.5595L10.7721 97.5637L10.8181 97.5762L10.864 97.5888L10.8766 97.593L10.9351 97.6097L10.956 97.6138L10.9936 97.6222L11.0521 97.6389L11.1106 97.6514L11.1482 97.6598L11.1732 97.6682L11.2317 97.6807H11.2443L11.2944 97.6932L11.3446 97.7016L11.3571 97.7057L11.4198 97.7183L11.4448 97.7225L11.4824 97.7308L11.5451 97.7392L11.6078 97.7517L11.6454 97.7559L11.6746 97.7601L11.7373 97.7726H11.7498L11.8042 97.781L11.8543 97.7893H11.8668L11.9337 97.7977L12.0006 97.8061L12.0674 97.8144L12.1342 97.8228L12.2011 97.8269L12.268 97.8353H12.2847L12.339 97.8395L12.3933 97.8436H12.4058L12.4769 97.8478L12.5019 97.852H12.5437V95.625V9.89844Z" fill="#BD9585"/>
<path fill-rule="evenodd" clip-rule="evenodd" d="M12.5437 9.89844H9.14258V10.5001C10.0827 11.2271 11.261 11.6617 12.5437 11.6617V9.89844Z" fill="#53362B"/>
<path fill-rule="evenodd" clip-rule="evenodd" d="M12.5421 0.00390625C15.6173 0.00390625 18.1076 2.49836 18.1076 5.56943C18.1076 8.64467 15.6131 11.1349 12.5421 11.1349C9.46684 11.1349 6.97656 8.64049 6.97656 5.56943C6.97656 2.49419 9.46684 0.00390625 12.5421 0.00390625Z" fill="#A37D73"/>
<path fill-rule="evenodd" clip-rule="evenodd" d="M9.75353 10.3866C7.09612 8.84478 6.18523 5.43946 7.72703 2.77787C9.26883 0.116282 12.6742 -0.790415 15.3358 0.751384L9.75353 10.3866Z" fill="#BD9585"/>
<path fill-rule="evenodd" clip-rule="evenodd" d="M18.1115 5.57031C18.1115 8.64555 15.6171 11.1358 12.546 11.1358C9.47075 11.1358 6.98047 8.64138 6.98047 5.57031C6.98047 9.53554 12.0529 9.89906 12.5251 9.89906C14.3844 9.89906 18.1115 9.1762 18.1115 5.57031Z" fill="#53362B"/>
<path fill-rule="evenodd" clip-rule="evenodd" d="M6.97656 5.57031C6.97656 8.64555 9.47102 11.1358 12.5421 11.1358V9.89906C10.6702 9.89488 6.97656 8.76255 6.97656 5.57031Z" fill="#6F3E31"/>
<path fill-rule="evenodd" clip-rule="evenodd" d="M9.14258 11.1328C10.2958 11.6635 11.4114 11.9935 12.5437 11.9935C13.6385 11.9935 14.8125 11.8306 15.9449 11.1328L49.5511 27.3739L15.9449 43.6151C14.8919 44.129 13.6761 44.4758 12.5437 44.4758C11.4114 44.4758 10.1119 44.0454 9.14258 43.6151C9.14258 32.789 9.14258 21.963 9.14258 11.1328Z" fill="#F3C221"/>
<path fill-rule="evenodd" clip-rule="evenodd" d="M12.543 11.9935C13.6377 11.9935 14.8118 11.8306 15.9441 11.1328V43.6151C14.8912 44.129 13.6795 44.4758 12.543 44.4758V11.9935Z" fill="#D4AD26"/>
</svg>
