<svg aria-hidden="true" color="primary" role="img" viewBox="0 0 24 24" xmlns="http://www.w3.org/2000/svg" class="sc-jNMdTA bFHXdM"><path fill-rule="evenodd" clip-rule="evenodd" d="M7.5 4C5.76171 4 4.25867 4.32086 3.41667 4.54543C2.53472 4.78065 2 5.58103 2 6.41863V16.703C2 18.023 3.2345 18.9443 4.46795 18.6865C5.40343 18.4909 6.60957 18.2863 7.5 18.2863C8.14971 18.2863 9.09693 18.6217 9.99067 19.0464C10.4139 19.2474 10.7866 19.4495 11.0535 19.6014C11.1865 19.6771 11.2922 19.7397 11.3634 19.7827C11.3991 19.8042 11.426 19.8207 11.4434 19.8314L11.4623 19.8431L11.4662 19.8456C11.7923 20.0514 12.2079 20.0513 12.5339 19.8455L12.5377 19.8431L12.5566 19.8314C12.574 19.8207 12.6009 19.8042 12.6366 19.7827C12.7078 19.7397 12.8135 19.6771 12.9465 19.6014C13.2135 19.4495 13.5861 19.2474 14.0093 19.0464C14.9031 18.6217 15.8503 18.2863 16.5 18.2863C17.3904 18.2863 18.5966 18.4909 19.5321 18.6865C20.7655 18.9443 22 18.023 22 16.703V6.41863C22 5.58103 21.4653 4.78065 20.5833 4.54543C19.7413 4.32086 18.2383 4 16.5 4C15.0464 4 13.7677 4.45689 12.8752 4.89089C12.5294 5.05906 12.234 5.22745 12 5.3721C11.766 5.22745 11.4706 5.05906 11.1248 4.89089C10.2323 4.45689 8.95364 4 7.5 4ZM11 17.3126L11 7.1055C10.809 6.98526 10.5546 6.83751 10.2502 6.68951C9.51768 6.33331 8.54636 6 7.5 6C6.03836 6 4.7517 6.26386 4 6.45996V16.703L4.00009 16.7052C4.00077 16.7065 4.00362 16.711 4.01058 16.7165C4.01805 16.7224 4.02677 16.7266 4.03493 16.7286C4.0419 16.7303 4.04918 16.7308 4.05868 16.7288C5.00882 16.5302 6.38802 16.2863 7.5 16.2863C8.63646 16.2863 9.93924 16.8077 10.849 17.2399C10.9 17.2642 10.9504 17.2884 11 17.3126ZM13.151 17.2399C13.1 17.2642 13.0496 17.2884 13 17.3126L13 7.1055C13.191 6.98526 13.4454 6.83751 13.7498 6.68951C14.4823 6.33331 15.4536 6 16.5 6C17.9616 6 19.2483 6.26387 20 6.45996V16.703L19.9999 16.7052C19.9992 16.7065 19.9964 16.711 19.9894 16.7165C19.9819 16.7224 19.9732 16.7266 19.9651 16.7286C19.9581 16.7303 19.9508 16.7308 19.9413 16.7288C18.9912 16.5302 17.612 16.2863 16.5 16.2863C15.3635 16.2863 14.0608 16.8077 13.151 17.2399Z"></path></svg>