<svg width="80px" height="80px" viewBox="0 0 80 80" fill="none" xmlns="http://www.w3.org/2000/svg"><g clip-path="url(#clip0_700_18060)"><path d="M30.245 70.1265C13.111 65.6746 8.10529 49.5281 12.2199 33.4478C15.5282 20.5187 27.6649 12.3791 41.9311 10.4522C59.592 8.06685 74.5797 24.2335 75.6142 40.5662C76.8103 59.4519 49.9651 75.2505 30.245 70.1265Z" fill="#C8DCFE"></path><rect width="47.6693" height="61.3824" rx="3.36548" transform="matrix(-0.992366 0.123326 0.123326 0.992366 63.5625 7.41225)" fill="#034FCA"></rect><path d="M70.8447 66.012L30.7672 70.9926C28.9227 71.2219 27.2416 69.9124 27.0124 68.0679L21.1923 21.2359L66.9046 34.9712L70.8447 66.012Z" fill="#002E75"></path><path d="M60.4538 13.199C60.2914 12.3987 59.5362 11.8605 58.7258 11.9612L22.1948 16.5011C21.3298 16.6086 20.7161 17.3974 20.8245 18.2622L27.0606 68.0199C27.1709 68.9003 27.9856 69.5164 28.8628 69.3828L68.5537 63.3371C69.5958 63.1783 70.1905 62.0591 69.7676 61.0936C62.2167 43.8551 64.1394 31.3556 60.4538 13.199Z" fill="#F5F8FF"></path><path d="M60.8837 14.9831C60.8838 14.7703 60.8563 14.5014 60.7878 14.2121L60.4005 11.095L58.4564 11.3366L58.5369 11.9846C59.96 12.2065 60.574 13.309 60.7878 14.2121L60.8837 14.9831Z" fill="#034FCA"></path><path d="M61.5747 31.3079L27.5064 67.813C26.8271 68.5409 27.4452 69.7177 28.4301 69.5715L68.7156 63.5918C69.7443 63.4391 70.3812 62.3863 70.0482 61.4011C66.2923 50.2872 64.9763 45.6527 63.3966 31.9186C63.2937 31.0246 62.1888 30.65 61.5747 31.3079Z" fill="#C8DCFE"></path><rect x="27.7002" y="26.6106" width="28.5932" height="7.88779" rx="1.05208" transform="rotate(-6.47795 27.7002 26.6106)" stroke="#69A2FE" stroke-width="1.66666"></rect><rect x="29.0049" y="38.099" width="28.5932" height="9.42189" rx="1.05208" transform="rotate(-6.47795 29.0049 38.099)" stroke="#69A2FE" stroke-width="1.66666"></rect><line x1="38.0444" y1="21.4526" x2="45.8539" y2="20.5659" stroke="#69A2FE" stroke-width="2" stroke-linecap="round"></line><line x1="33.9199" y1="52.4804" x2="54.4652" y2="50.1476" stroke="#5093FD" stroke-width="2" stroke-linecap="round"></line><line x1="34.3647" y1="56.399" x2="46.093" y2="55.0673" stroke="#5093FD" stroke-width="2" stroke-linecap="round"></line><line x1="51.019" y1="54.5079" x2="55.8895" y2="53.9549" stroke="#5093FD" stroke-width="2" stroke-linecap="round"></line><line x1="34.8095" y1="60.318" x2="39.68" y2="59.7649" stroke="#5093FD" stroke-width="2" stroke-linecap="round"></line><path d="M14.1412 61.276C13.5952 62.8444 11.1407 65.5227 8.94346 67.7034C7.06164 69.5709 7.13635 72.7628 9.29706 74.2992C11.9653 76.1965 14.4967 77.5381 18.1855 78.0632C19.73 78.283 21.2033 77.4421 21.9159 76.0544C22.5035 74.9103 23.2093 73.4501 23.8014 71.9777C25.0811 68.7958 32.2065 65.0465 33.7639 62.7701C35.3214 60.4936 37.6477 52.713 37.6477 52.713L46.4893 42.9524C46.8705 42.5315 46.8452 41.8868 46.3883 41.5495C45.479 40.8785 43.9211 39.97 42.4811 40.295C38.8938 41.1046 35.2274 44.6587 33.3543 46.7133C32.7894 47.333 31.7272 47.134 31.4615 46.3388L30.5721 43.6765C30.4179 43.2148 30.4259 42.7132 30.6394 42.2757C31.0947 41.3426 32.0412 39.7115 33.363 39.0212C34.7 38.323 37.7694 39.7143 40.2205 38.7322C41.1673 38.3528 42.1352 37.4258 42.821 36.6593C43.3095 36.1134 43.0228 35.2898 42.311 35.1163C39.5078 34.4332 33.4381 33.0994 31.0071 33.7042C27.7969 34.5027 20.4269 38.4611 18.0907 41.8758C15.7545 45.2905 15.1762 58.303 14.1412 61.276Z" fill="#D68B3E"></path><path d="M29.4225 48.2998L26.2656 39.9419L30.5904 41.1463C30.5904 41.1463 30.7465 44.0445 31.6989 45.5326C31.8411 45.7549 32.0356 45.9996 32.2316 46.227C32.6352 46.6953 32.616 47.4132 32.1476 47.8168L31.0934 48.7251C30.5399 49.202 29.6807 48.9833 29.4225 48.2998Z" fill="#B75327"></path><path d="M8.98552 40.9539C8.40806 41.0184 7.99224 41.5389 8.05675 42.1163L8.21691 43.5499C8.28142 44.1273 8.80184 44.5432 9.3793 44.4786L45.1568 40.4816L49.1375 38.7587C49.6135 38.5526 49.5356 37.8548 49.0258 37.7589L44.7631 36.9569L8.98552 40.9539Z" fill="#00368A"></path><rect x="25.8716" y="9.21182" width="27.5398" height="9.53302" rx="2.10416" transform="rotate(-7.04965 25.8716 9.21182)" fill="#69A2FE"></rect><ellipse cx="39.5374" cy="7.52182" rx="5.29612" ry="5.29612" transform="rotate(-7.04965 39.5374 7.52182)" fill="#69A2FE"></ellipse><ellipse cx="39.5377" cy="7.52165" rx="2.11845" ry="2.11845" transform="rotate(-7.04965 39.5377 7.52165)" fill="white"></ellipse><path d="M26.522 14.4679L53.8536 11.088L54.1154 13.2046C54.258 14.3579 53.4387 15.4085 52.2854 15.5511L29.1302 18.4146C27.9769 18.5572 26.9263 17.7379 26.7837 16.5845L26.522 14.4679Z" fill="#1D74F5"></path></g><defs><clipPath id="clip0_700_18060"><rect width="79.9999" height="79.9999" fill="white"></rect></clipPath></defs></svg>